<?xml version="1.0" encoding="utf-8"?>
<!-- Generator: Adobe Illustrator 26.4.1, SVG Export Plug-In . SVG Version: 6.00 Build 0)  -->
<svg version="1.1" id="Layer_1" xmlns="http://www.w3.org/2000/svg" xmlns:xlink="http://www.w3.org/1999/xlink" x="0px" y="0px"
	 viewBox="0 0 401 125" style="enable-background:new 0 0 401 125;" xml:space="preserve">
<style type="text/css">
	.st0{fill:#FFFFFF;}
	.st1{fill:#6DCFF6;}
</style>
<path class="st0" d="M12.5,71.5c0,0,63-39.7,128.7-51.9c0,0,46.7,5.4,74.8,6.3C216,25.9,160.2,25.5,12.5,71.5"/>
<path class="st0" d="M223.5,24.2c0,0,87.5-23.9,164.3-7.1c0,0,5.1,2.3,4.2,5c-1,2.7-6.9,1-6.9,1S335.4,8.1,223.5,24.2"/>
<path class="st1" d="M11.7,75.8c0,0,211.5-70.9,365.1-49.9c0,0-39.6,6.3-76.8,45.7C300,71.6,238.2,29.5,11.7,75.8"/>
<path class="st1" d="M283.7,93.1c0.2,0,0.7-0.1,1.4-0.1c1.5,0,2.4,0.7,2.4,2c0,1.2-0.9,2-2.5,2h-1.3V93.1z M280.6,104.9h3.2v-5.6h1
	c1.3,0,1.9,0.5,2.3,2.3c0.4,1.7,0.8,2.9,1,3.3h3.3c-0.3-0.5-0.7-2.4-1.2-4c-0.4-1.3-0.9-2.2-1.9-2.6v-0.1c1.2-0.4,2.5-1.7,2.5-3.5
	c0-1.3-0.5-2.3-1.3-3c-1-0.8-2.5-1.1-4.6-1.1c-1.7,0-3.2,0.1-4.3,0.3V104.9z M277.2,96.3H272v-2.9h5.5v-2.6h-8.7v14.2h9v-2.6H272
	v-3.4h5.2V96.3z M259.5,104.9h3.2V93.4h3.9v-2.7h-10.9v2.7h3.8V104.9z M244.4,104.2c0.8,0.4,2.4,0.9,4,0.9c3.9,0,5.7-2,5.7-4.4
	c0-2-1.2-3.3-3.7-4.2c-1.8-0.7-2.6-1.1-2.6-2c0-0.7,0.7-1.4,2.1-1.4s2.4,0.4,3,0.7l0.7-2.6c-0.8-0.4-2-0.7-3.6-0.7
	c-3.3,0-5.4,1.8-5.4,4.3c0,2.1,1.5,3.4,3.9,4.2c1.7,0.6,2.4,1.1,2.4,2c0,0.9-0.8,1.5-2.2,1.5c-1.4,0-2.7-0.4-3.5-0.9L244.4,104.2z
	 M230,90.7v7.9c0,4.5,2.1,6.5,5.7,6.5c3.7,0,5.9-2.1,5.9-6.4v-7.9h-3.2v8.1c0,2.5-0.9,3.7-2.6,3.7c-1.6,0-2.6-1.2-2.6-3.7v-8.1H230z
	 M219.5,104.9h8.8v-2.7h-5.6V90.7h-3.2V104.9z M216.4,102c-0.6,0.3-1.7,0.5-2.7,0.5c-2.9,0-4.5-1.8-4.5-4.6c0-3.2,2-4.7,4.5-4.7
	c1.1,0,2,0.3,2.7,0.5l0.7-2.5c-0.6-0.3-1.8-0.6-3.5-0.6c-4.3,0-7.7,2.7-7.7,7.5c0,4,2.5,7.1,7.4,7.1c1.7,0,3-0.3,3.6-0.6L216.4,102z
	 M198.4,96.3h-5.2v-2.9h5.5v-2.6h-8.7v14.2h9v-2.6h-5.8v-3.4h5.2V96.3z M183.8,104.9h3.1l-0.8-14.2H182l-1.5,4.7
	c-0.5,1.6-0.9,3.4-1.3,5.1h-0.1c-0.3-1.7-0.8-3.4-1.2-5.1l-1.4-4.7h-4.3l-0.9,14.2h3l0.3-5.4c0.1-1.8,0.2-3.9,0.3-5.9h0
	c0.3,1.8,0.8,3.9,1.3,5.5l1.5,5.5h2.5l1.7-5.5c0.5-1.7,1.1-3.7,1.6-5.5h0.1c0,2.1,0.1,4.1,0.1,5.8L183.8,104.9z M165.1,104.9h3.2
	V90.7h-3.2V104.9z M155.8,104.9h3.2V93.4h3.9v-2.7H152v2.7h3.8V104.9z M146.6,104.9h3.2V90.7h-3.2V104.9z M136.8,93.1
	c0.2,0,0.7-0.1,1.4-0.1c1.5,0,2.4,0.7,2.4,2c0,1.2-0.9,2-2.5,2h-1.3V93.1z M133.6,104.9h3.2v-5.6h1c1.3,0,1.9,0.5,2.3,2.3
	c0.4,1.7,0.8,2.9,1,3.3h3.3c-0.3-0.5-0.7-2.4-1.2-4c-0.4-1.3-0.9-2.2-1.9-2.6v-0.1c1.2-0.4,2.5-1.7,2.5-3.5c0-1.3-0.5-2.3-1.3-3
	c-1-0.8-2.5-1.1-4.6-1.1c-1.7,0-3.2,0.1-4.3,0.3V104.9z M123.1,98.9l0.8-3c0.2-0.8,0.4-1.9,0.7-2.7h0c0.2,0.8,0.5,1.9,0.7,2.7l0.9,3
	H123.1z M126.7,101.3l1.1,3.6h3.4l-4.4-14.2h-4.2l-4.3,14.2h3.3l1-3.6H126.7z M113.3,104.9h3.1l-0.8-14.2h-4.2l-1.5,4.7
	c-0.5,1.6-0.9,3.4-1.3,5.1h-0.1c-0.3-1.7-0.8-3.4-1.2-5.1l-1.4-4.7h-4.3l-0.9,14.2h3l0.3-5.4c0.1-1.8,0.2-3.9,0.3-5.9h0
	c0.3,1.8,0.8,3.9,1.3,5.5l1.5,5.5h2.5l1.7-5.5c0.5-1.7,1.1-3.7,1.6-5.5h0.1c0,2.1,0.1,4.1,0.1,5.8L113.3,104.9z"/>
<path class="st0" d="M264.1,71.2l4.3,10.7c0.1,0.3,0.2,0.5,0.2,0.6c0,0.2-0.1,0.4-0.2,0.5c-0.4,0.6-1,1.2-1.5,1.5
	c-0.6,0.3-1.1,0.6-1.6,0.6l0.8,3.1c0.9-0.1,2.3-0.5,3.5-1.6c1.3-1.2,2.4-3,4.1-7.7l2.7-7.7h-3.9l-1.4,5.8c-0.2,0.7-0.4,1.6-0.5,2.2
	h-0.1c-0.1-0.6-0.4-1.5-0.6-2.2l-1.8-5.8H264.1z M256.9,78.6c0,0.2,0,0.4-0.1,0.6c-0.2,0.7-1,1.3-1.9,1.3c-0.8,0-1.4-0.5-1.4-1.4
	c0-1.4,1.5-1.9,3.4-1.8V78.6z M260.6,82.9c-0.1-0.6-0.2-1.7-0.2-2.9V76c0-2.8-1.2-5.1-5.2-5.1c-2.1,0-3.7,0.6-4.6,1l0.7,2.4
	c0.8-0.5,2-0.9,3.2-0.9c1.8,0,2.1,0.9,2.1,1.5v0.2c-4.2,0-6.9,1.4-6.9,4.5c0,1.9,1.4,3.6,3.8,3.6c1.4,0,2.6-0.5,3.4-1.4h0.1l0.2,1.2
	H260.6z M237.4,75.7h1.2c1.8,0,3.3,0.6,3.3,2.3c0,1.7-1.5,2.3-3.1,2.3c-0.6,0-1.1,0-1.4,0V75.7z M237.4,69.4c0.3,0,0.8-0.1,1.6-0.1
	c1.7,0,2.6,0.6,2.6,1.9c0,1.2-1,2-3,2h-1.2V69.4z M233.8,82.8c0.8,0.1,2.2,0.2,4,0.2c3.2,0,5.2-0.5,6.4-1.5c1-0.8,1.7-2,1.7-3.4
	c0-2.1-1.4-3.5-3.2-4v0c1.8-0.7,2.7-2,2.7-3.5c0-1.5-0.8-2.6-1.9-3.2c-1.2-0.7-2.5-0.9-4.8-0.9c-1.8,0-3.8,0.1-4.7,0.3V82.8z
	 M217.6,78.6c0,0.2,0,0.4-0.1,0.6c-0.2,0.7-1,1.3-1.9,1.3c-0.8,0-1.4-0.5-1.4-1.4c0-1.4,1.5-1.9,3.4-1.8V78.6z M221.3,82.9
	c-0.1-0.6-0.2-1.7-0.2-2.9V76c0-2.8-1.2-5.1-5.2-5.1c-2.1,0-3.7,0.6-4.6,1l0.7,2.4c0.8-0.5,2-0.9,3.2-0.9c1.8,0,2.1,0.9,2.1,1.5v0.2
	c-4.2,0-6.9,1.4-6.9,4.5c0,1.9,1.4,3.6,3.8,3.6c1.4,0,2.6-0.5,3.4-1.4h0.1l0.2,1.2H221.3z M202.4,82.9h3.6v-17h-3.6V82.9z
	 M190.1,75.7c0.1-1,0.7-2.4,2.3-2.4c1.7,0,2.1,1.5,2.1,2.4H190.1z M197.7,78.2c0-0.3,0.1-0.8,0.1-1.4c0-2.9-1.4-5.9-5.2-5.9
	c-4.1,0-5.9,3.3-5.9,6.3c0,3.7,2.3,6,6.3,6c1.6,0,3-0.2,4.2-0.7l-0.5-2.5c-1,0.3-2,0.5-3.2,0.5c-1.7,0-3.2-0.7-3.3-2.2H197.7z
	 M178.3,77.7c0,0.3,0,0.6-0.1,0.8c-0.2,1-1.1,1.8-2.1,1.8c-1.5,0-2.5-1.2-2.5-3.2c0-1.8,0.9-3.3,2.5-3.3c1.1,0,1.9,0.8,2.1,1.8
	c0,0.2,0,0.5,0,0.6V77.7z M178.3,65.9v6.4h0c-0.5-0.8-1.7-1.3-3.1-1.3c-2.8,0-5.3,2.3-5.3,6.2c0,3.6,2.2,6,5,6c1.5,0,2.9-0.7,3.7-2
	h0l0.2,1.7h3.2c0-0.8-0.1-2.2-0.1-3.5V65.9H178.3z M154.1,82.9h3.6v-6.8c0-0.3,0-0.7,0.1-0.9c0.2-0.7,0.8-1.4,1.8-1.4
	c1.3,0,1.8,1,1.8,2.5v6.5h3.6v-7c0-3.5-1.8-5-4.2-5c-1.9,0-3.1,1.1-3.6,1.9h-0.1l-0.2-1.6H154c0,1,0.1,2.3,0.1,3.7V82.9z
	 M145.3,78.6c0,0.2,0,0.4-0.1,0.6c-0.2,0.7-1,1.3-1.9,1.3c-0.8,0-1.4-0.5-1.4-1.4c0-1.4,1.5-1.9,3.4-1.8V78.6z M149,82.9
	c-0.1-0.6-0.2-1.7-0.2-2.9V76c0-2.8-1.2-5.1-5.2-5.1c-2.1,0-3.7,0.6-4.6,1l0.7,2.4c0.8-0.5,2-0.9,3.2-0.9c1.8,0,2.1,0.9,2.1,1.5v0.2
	c-4.2,0-6.9,1.4-6.9,4.5c0,1.9,1.4,3.6,3.8,3.6c1.4,0,2.6-0.5,3.4-1.4h0.1l0.2,1.2H149z M130.3,82.9h3.6L133,66.7h-4.8l-1.7,5.4
	c-0.5,1.8-1.1,3.9-1.5,5.8h-0.1c-0.4-1.9-0.9-3.9-1.4-5.8l-1.6-5.4h-4.9l-1,16.2h3.4l0.3-6.1c0.1-2,0.2-4.5,0.3-6.7h0
	c0.4,2.1,0.9,4.4,1.5,6.3l1.7,6.3h2.9l2-6.3c0.6-1.9,1.3-4.2,1.8-6.3h0.1c0,2.4,0.1,4.7,0.1,6.6L130.3,82.9z"/>
</svg>
