<svg id="Capa_1" enable-background="new 0 0 511.979 511.979" height="512" viewBox="0 0 511.979 511.979" width="512" xmlns="http://www.w3.org/2000/svg"><g><path d="m54.069 283.465c-2.929-2.929-7.678-2.929-10.606 0-17.936 17.936-17.936 47.118 0 65.054 2.929 2.929 7.677 2.929 10.606 0s2.929-7.678 0-10.606c-12.087-12.087-12.087-31.754 0-43.841 2.929-2.929 2.929-7.678 0-10.607zm-21.213-10.607c2.929-2.929 2.929-7.678 0-10.606-2.929-2.929-7.678-2.929-10.606 0-29.632 29.632-29.632 77.848 0 107.48 2.929 2.929 7.678 2.928 10.606 0 2.929-2.929 2.929-7.678 0-10.606-23.784-23.784-23.784-62.483 0-86.268zm258.555 72.589-10.774-36.562c-1.132-3.841-4.579-6.573-8.577-6.799-3.994-.225-7.73 2.1-9.288 5.789l-27.639 65.45-23.787-43.6c-1.523-2.793-4.325-4.63-7.494-4.913-3.169-.285-6.252 1.027-8.248 3.507l-13.783 17.128h-42.019c-4.142 0-7.5 3.358-7.5 7.5s3.358 7.5 7.5 7.5h44.653c2.892 0 5.59-1.292 7.401-3.544l10.268-12.76 25.301 46.374c1.684 3.086 4.841 4.951 8.324 4.951.163 0 .326-.004.49-.012 3.674-.184 6.846-2.403 8.277-5.792l26.084-61.768 7.585 25.741c1.184 4.011 4.93 6.812 9.112 6.812h84.878c4.142 0 7.5-3.358 7.5-7.5s-3.358-7.5-7.5-7.5h-80.764zm160.202-199.157-52.659-52.67c-5.771-5.75-15.159-5.75-20.938.01l-52.644 52.654c-4.256 4.246-5.521 10.579-3.225 16.133 2.298 5.556 7.668 9.146 13.682 9.146h10.67v28.991c-13.305-.772-26.802.926-39.79 5.206v-104.818c0-.916.745-1.66 1.66-1.66h13.6c14.192.134 22.14-18.277 11.773-28.433l-65.98-65.98c-6.492-6.492-17.055-6.492-23.547 0l-65.98 65.98c-10.254 10.226-3.255 28.439 11.773 28.433h13.6c.915 0 1.66.745 1.66 1.66v34.276c0 4.142 3.358 7.5 7.5 7.5s7.5-3.358 7.5-7.5v-34.276c0-9.187-7.474-16.66-16.66-16.66h-13.6c-1.493.014-2.207-1.806-1.167-2.827l65.98-65.98c.397-.397.854-.481 1.167-.481s.77.083 1.167.481l65.98 65.98c1.044 1.019.309 2.847-1.167 2.827h-13.6c-9.186 0-16.66 7.474-16.66 16.66v111.041c-11.948 6.053-22.354 14.207-31.288 24.692-1.088 1.277-2.704 2.009-4.433 2.009s-3.345-.732-4.433-2.009c-8.947-10.501-19.331-18.637-31.288-24.692v-41.765c0-4.142-3.358-7.5-7.5-7.5s-7.5 3.358-7.5 7.5v35.541c-12.987-4.28-26.485-5.978-39.79-5.207v-28.991h10.67c6.014 0 11.384-3.59 13.682-9.146 2.297-5.554 1.031-11.887-3.218-16.126l-52.659-52.67c-5.77-5.75-15.158-5.75-20.938.01l-52.644 52.654c-4.256 4.246-5.521 10.579-3.225 16.133 2.298 5.556 7.668 9.146 13.682 9.146h10.67v77.643c-13.298 20.376-18.924 44.406-16.322 70.259 2.677 26.609 14.166 54.421 32.349 78.312 30.417 39.963 80.594 77.648 149.14 112.008 2.919 1.463 6.121 2.195 9.323 2.195s6.405-.732 9.323-2.195c53.095-26.615 95.417-55.399 125.791-85.552 2.94-2.918 2.957-7.667.039-10.606-2.918-2.94-7.667-2.957-10.606-.039-29.245 29.033-70.273 56.886-121.945 82.789-1.653.828-3.55.828-5.203 0-66.483-33.327-114.907-69.557-143.926-107.684-16.529-21.718-26.957-46.836-29.361-70.729-2.659-26.429 4.565-50.583 20.893-69.851 35.657-42.079 102.629-44.559 139.146-1.706 3.942 4.626 9.719 7.28 15.85 7.28s11.907-2.653 15.849-7.279c36.116-42.384 102.977-40.976 139.146 1.706 16.206 19.124 23.449 43.081 20.949 69.283-2.261 23.684-12.45 48.663-28.691 70.336-2.484 3.314-1.811 8.016 1.504 10.5 3.314 2.484 8.016 1.81 10.5-1.504 17.871-23.848 29.1-51.516 31.619-77.906 2.443-25.603-3.202-49.411-16.386-69.615v-77.642h10.67c6.014 0 11.384-3.59 13.682-9.146 2.299-5.557 1.034-11.89-3.216-16.129zm-301.133 25.082v31.117c-19.948 4.005-38.793 13.638-53.98 28.479v-59.596c0-8.167-6.644-14.81-14.81-14.81l-10.382-.001 52.182-52.192 52.181 52.193h-10.381c-8.167 0-14.81 6.644-14.81 14.81zm279.809-14.81c-8.166 0-14.81 6.644-14.81 14.81v59.596c-15.188-14.84-34.033-24.473-53.98-28.479v-31.117c0-8.167-6.644-14.81-14.81-14.81l-10.382-.001 52.182-52.192 52.181 52.193zm59.441 105.69c-2.929-2.93-7.678-2.929-10.606 0-2.929 2.929-2.929 7.678 0 10.606 23.784 23.784 23.784 62.483 0 86.268-2.929 2.929-2.929 7.678 0 10.606 2.929 2.929 7.678 2.929 10.606 0 29.632-29.632 29.632-77.848 0-107.48zm-21.214 21.213c-2.929-2.929-7.678-2.929-10.606 0-2.929 2.929-2.929 7.678 0 10.606 12.087 12.087 12.087 31.754 0 43.841-2.929 2.929-2.929 7.678 0 10.606 2.929 2.929 7.678 2.929 10.606 0 17.936-17.935 17.936-47.117 0-65.053z"/></g></svg>