<svg id="Capa_1" enable-background="new 0 0 512.003 512.003" height="512" viewBox="0 0 512.003 512.003" width="512" xmlns="http://www.w3.org/2000/svg"><g><path d="m32.868 57.814c2.929-2.929 2.929-7.678 0-10.606-2.929-2.929-7.678-2.929-10.606 0-29.632 29.632-29.632 77.848 0 107.48 2.929 2.929 7.678 2.928 10.606 0 2.929-2.929 2.929-7.678 0-10.606-23.784-23.785-23.784-62.484 0-86.268zm21.213 65.054c-12.086-12.087-12.086-31.754 0-43.841 2.929-2.929 2.929-7.678 0-10.606-2.929-2.929-7.678-2.929-10.606 0-17.935 17.935-17.935 47.118 0 65.054 2.929 2.929 7.677 2.929 10.606 0s2.929-7.678 0-10.607zm387.081 217.573h-10.67v-168.318c8.889-17.191 14.549-35.337 16.322-52.961 3.077-30.576-5.352-58.603-24.374-81.05-33.538-39.579-90.534-49.609-135.523-23.851-9.897 5.667-18.808 13.106-26.483 22.113-1.088 1.277-2.704 2.009-4.433 2.009s-3.345-.732-4.433-2.009c-7.675-9.006-16.585-16.446-26.483-22.113-20.223-11.578-43.1-16.243-66.162-13.492-22.888 2.731-43.88 12.499-60.705 28.247-3.024 2.831-3.181 7.577-.351 10.601 2.831 3.024 7.578 3.182 10.601.351 29.813-27.904 73.683-33.004 109.165-12.688 8.393 4.805 15.969 11.139 22.519 18.824 3.942 4.626 9.719 7.28 15.85 7.28 6.13 0 11.907-2.653 15.85-7.279 6.55-7.686 14.126-14.02 22.519-18.825 38.713-22.166 87.762-13.532 116.627 20.53 16.327 19.268 23.552 43.422 20.893 69.851-2.404 23.893-12.832 49.011-29.361 70.729-34.663 45.542-90.326 80.837-143.925 107.684-1.653.828-3.55.828-5.203 0-52.763-26.428-109.705-62.723-143.926-107.684-30.45-40.008-36.4-90.658-20.491-122.452 1.854-3.704.354-8.21-3.351-10.063s-8.209-.353-10.063 3.351c-10.61 21.201-13.606 45.965-8.666 71.614 2.697 13.998 7.66 27.966 14.607 41.36v168.243h-10.67c-6.014 0-11.384 3.59-13.682 9.146-2.297 5.554-1.031 11.887 3.218 16.126l52.659 52.67c2.884 2.874 6.671 4.312 10.461 4.312 3.792 0 7.586-1.44 10.477-4.321l52.644-52.654c4.256-4.246 5.521-10.579 3.225-16.133-2.298-5.556-7.668-9.146-13.682-9.146h-10.67v-79.235c12.213 8.766 25.479 17.373 39.79 25.807v124.048c0 .916-.745 1.66-1.66 1.66h-13.6c-14.914-.015-22.092 18.12-11.773 28.433l65.98 65.98c3.246 3.246 7.51 4.869 11.773 4.869 4.264 0 8.527-1.623 11.773-4.869l65.98-65.98c10.451-10.276 2.357-28.578-11.773-28.433h-13.6c-.915 0-1.66-.745-1.66-1.66v-39.949c0-4.142-3.358-7.5-7.5-7.5s-7.5 3.358-7.5 7.5v39.949c0 9.187 7.474 16.66 16.66 16.66h13.6c1.448-.023 2.232 1.797 1.167 2.827l-65.98 65.98c-.397.397-.854.481-1.167.481s-.77-.083-1.167-.481l-65.98-65.98c-1.06-1.032-.3-2.844 1.167-2.827h13.6c9.186 0 16.66-7.474 16.66-16.66v-115.486c8.474 4.692 17.268 9.329 26.397 13.905 5.838 2.926 12.808 2.927 18.646 0 9.129-4.576 17.922-9.213 26.397-13.905v40.535c0 4.142 3.358 7.5 7.5 7.5s7.5-3.358 7.5-7.5v-49.099c14.311-8.434 27.576-17.041 39.79-25.807v79.235h-10.67c-6.014 0-11.384 3.59-13.682 9.146-2.297 5.554-1.031 11.887 3.218 16.126l52.659 52.67c2.884 2.874 6.671 4.312 10.461 4.312 3.792 0 7.586-1.44 10.477-4.321l52.644-52.654c4.256-4.246 5.521-10.579 3.225-16.133-2.299-5.556-7.669-9.146-13.682-9.146zm-265.479 15.001-52.182 52.192-52.181-52.193h10.381c8.166 0 14.81-6.644 14.81-14.81v-144.546c14.191 18.986 31.705 36.319 53.98 53.857v90.688c0 8.167 6.644 14.81 14.81 14.81zm212.818 52.192-52.181-52.193h10.381c8.166 0 14.81-6.644 14.81-14.81v-90.688c22.008-17.409 40.057-35.108 53.98-53.864v144.552c0 8.167 6.644 14.81 14.81 14.81l10.382.001zm80.027-339.213c-2.929-2.929-7.678-2.929-10.606 0-2.929 2.929-2.929 7.678 0 10.606 12.086 12.087 12.086 31.753 0 43.841-2.929 2.929-2.929 7.678 0 10.606 2.929 2.929 7.678 2.929 10.606 0 17.935-17.935 17.935-47.118 0-65.053zm21.214-21.213c-2.928-2.93-7.677-2.929-10.606 0s-2.929 7.678 0 10.606c23.783 23.784 23.783 62.483 0 86.267-2.929 2.929-2.929 7.678 0 10.606 2.929 2.929 7.678 2.929 10.606 0 29.632-29.632 29.632-77.847 0-107.479zm-305.275 112.937c2.892 0 5.59-1.292 7.401-3.544l10.268-12.76 25.301 46.374c1.684 3.086 4.841 4.951 8.324 4.951.163 0 .326-.004.49-.012 3.674-.184 6.846-2.403 8.277-5.792l26.084-61.768 7.585 25.741c1.184 4.011 4.93 6.812 9.112 6.812h84.878c4.142 0 7.5-3.358 7.5-7.5s-3.358-7.5-7.5-7.5h-80.766l-10.774-36.562c-1.132-3.841-4.579-6.573-8.577-6.799-3.99-.232-7.73 2.1-9.288 5.789l-27.639 65.45-23.787-43.6c-1.523-2.793-4.325-4.63-7.494-4.913-3.167-.285-6.252 1.027-8.248 3.507l-13.783 17.128h-42.019c-4.142 0-7.5 3.358-7.5 7.5s3.358 7.5 7.5 7.5h44.655z"/></g></svg>