<svg id="Capa_1" enable-background="new 0 0 512 512" height="512" viewBox="0 0 512 512" width="512" xmlns="http://www.w3.org/2000/svg"><g><path d="m377.176 299.134c-2.929 2.929-2.929 7.678 0 10.606 2.929 2.929 7.678 2.93 10.607 0 29.632-29.632 29.632-77.848 0-107.48-2.93-2.929-7.678-2.929-10.607 0s-2.929 7.678 0 10.606c23.784 23.784 23.784 62.484 0 86.268zm28.496-214.026h21.221v21.221c0 4.142 3.357 7.5 7.5 7.5s7.5-3.358 7.5-7.5v-21.221h21.221c4.143 0 7.5-3.358 7.5-7.5s-3.357-7.5-7.5-7.5h-21.221v-21.221c0-4.142-3.357-7.5-7.5-7.5s-7.5 3.358-7.5 7.5v21.221h-21.221c-4.143 0-7.5 3.358-7.5 7.5s3.357 7.5 7.5 7.5zm-49.709 203.419c2.93 2.93 7.678 2.93 10.607 0 17.935-17.935 17.935-47.118 0-65.054-2.929-2.929-7.678-2.93-10.606 0-2.93 2.929-2.93 7.677-.001 10.606 12.087 12.087 12.087 31.754 0 43.841-2.929 2.929-2.929 7.678 0 10.607zm156.037-210.919c0-42.793-34.814-77.608-77.607-77.608-24.324 0-46.06 11.257-60.3 28.825-36.273-18.872-76.957-28.825-118.093-28.825-68.379 0-132.666 26.629-181.019 74.981-48.352 48.353-74.981 112.64-74.981 181.019s26.629 132.666 74.981 181.019c48.353 48.352 112.64 74.981 181.019 74.981s132.666-26.629 181.019-74.981c48.352-48.353 74.981-112.64 74.981-181.019 0-41.136-9.953-81.819-28.824-118.093 17.567-14.24 28.824-35.975 28.824-60.299zm-77.607-62.608c34.521 0 62.607 28.086 62.607 62.608s-28.086 62.607-62.607 62.607c-34.522 0-62.608-28.085-62.608-62.607s28.085-62.608 62.608-62.608zm62.607 241c0 64.372-25.068 124.892-70.588 170.412s-106.04 70.588-170.412 70.588-124.892-25.069-170.412-70.588-70.588-106.04-70.588-170.412 25.069-124.892 70.588-170.412 106.04-70.588 170.412-70.588c38.204 0 75.988 9.11 109.776 26.405-2.329 4.395-4.247 9.037-5.704 13.88-31.898-16.566-67.664-25.285-104.072-25.285-30.315 0-59.68 5.856-87.277 17.406-3.821 1.599-5.622 5.993-4.023 9.814s5.994 5.622 9.814 4.023c25.754-10.778 53.17-16.243 81.486-16.243 35.514 0 70.36 8.877 101.108 25.703-.202 2.277-.324 4.576-.324 6.905 0 42.793 34.815 77.607 77.608 77.607 2.328 0 4.627-.122 6.904-.324 16.826 30.749 25.704 65.595 25.704 101.109 0 56.356-21.949 109.342-61.804 149.197-39.853 39.854-92.84 61.803-149.196 61.803s-109.342-21.949-149.197-61.803-61.803-92.841-61.803-149.197 21.949-109.342 61.803-149.197c11.446-11.445 24.127-21.547 37.691-30.025 3.513-2.195 4.581-6.822 2.386-10.334-2.195-3.513-6.822-4.58-10.335-2.386-14.526 9.079-28.102 19.892-40.349 32.139-42.687 42.687-66.196 99.44-66.196 159.803s23.509 117.116 66.197 159.803 99.44 66.197 159.803 66.197 117.116-23.509 159.804-66.197c42.687-42.688 66.196-99.44 66.196-159.803 0-36.408-8.719-72.173-25.285-104.072 4.842-1.457 9.485-3.375 13.88-5.704 17.295 33.788 26.405 71.573 26.405 109.776zm-395.043-23.674v47.348c0 12.407 10.093 22.5 22.5 22.5h55.097l111.016 61.676c7.039 3.911 15.388 3.813 22.338-.276 6.944-4.086 11.09-11.335 11.09-19.392v-44.507c0-4.142-3.357-7.5-7.5-7.5s-7.5 3.358-7.5 7.5v44.507c0 3.871-2.585 5.81-3.696 6.464-1.112.653-4.062 1.972-7.446.092l-108.858-60.477v-68.521l108.858-60.477c3.384-1.88 6.334-.562 7.446.092 1.111.654 3.696 2.593 3.696 6.464v96.855c0 4.142 3.357 7.5 7.5 7.5s7.5-3.358 7.5-7.5v-96.855c0-8.057-4.146-15.306-11.09-19.392-6.943-4.086-15.295-4.188-22.338-.276l-111.016 61.676h-55.097c-12.407-.001-22.5 10.092-22.5 22.499zm72.041 54.848h-49.541c-4.136 0-7.5-3.364-7.5-7.5v-47.348c0-4.136 3.364-7.5 7.5-7.5h49.541z"/></g></svg>