<svg id="Capa_1" enable-background="new 0 0 512 512" height="512" viewBox="0 0 512 512" width="512" xmlns="http://www.w3.org/2000/svg"><g><path d="m502.572 224.003c-4.122.404-7.137 4.074-6.732 8.196.77 7.857 1.16 15.864 1.16 23.801 0 64.372-25.068 124.892-70.588 170.412s-106.04 70.588-170.412 70.588-124.893-25.069-170.412-70.588-70.588-106.04-70.588-170.412 25.068-124.892 70.588-170.412 106.04-70.588 170.412-70.588c38.204 0 75.989 9.11 109.776 26.405-2.329 4.395-4.247 9.037-5.704 13.88-31.898-16.566-67.664-25.285-104.072-25.285-60.363 0-117.116 23.509-159.804 66.197-42.687 42.688-66.196 99.44-66.196 159.803s23.509 117.115 66.196 159.803c42.688 42.688 99.441 66.197 159.804 66.197s117.116-23.509 159.804-66.197c42.687-42.688 66.196-99.44 66.196-159.803 0-36.408-8.719-72.173-25.285-104.072 4.843-1.457 9.485-3.376 13.881-5.705 8.557 16.696 15.129 34.334 19.564 52.54.836 3.428 3.903 5.727 7.281 5.727.588 0 1.185-.07 1.781-.215 4.024-.98 6.492-5.038 5.512-9.062-4.845-19.885-12.094-39.129-21.559-57.305 17.568-14.241 28.825-35.976 28.825-60.3 0-42.793-34.814-77.608-77.607-77.608-24.324 0-46.06 11.257-60.3 28.825-36.273-18.872-76.957-28.825-118.093-28.825-68.379 0-132.666 26.629-181.019 74.981-48.352 48.353-74.981 112.64-74.981 181.019s26.629 132.666 74.981 181.019c48.353 48.352 112.64 74.981 181.019 74.981s132.666-26.629 181.019-74.981c48.352-48.353 74.981-112.64 74.981-181.019 0-8.423-.414-16.923-1.232-25.264-.404-4.122-4.077-7.142-8.196-6.733zm-35.572 31.997c0 56.356-21.949 109.342-61.804 149.197-39.853 39.854-92.84 61.803-149.196 61.803s-109.343-21.949-149.196-61.803c-39.855-39.855-61.804-92.841-61.804-149.197s21.949-109.342 61.804-149.197c39.853-39.854 92.84-61.803 149.196-61.803 35.514 0 70.36 8.877 101.108 25.703-.202 2.277-.324 4.576-.324 6.905 0 42.793 34.815 77.607 77.608 77.607 2.328 0 4.627-.122 6.904-.324 16.826 30.749 25.704 65.595 25.704 101.109zm-32.607-241c34.521 0 62.607 28.086 62.607 62.608s-28.086 62.607-62.607 62.607c-34.522 0-62.608-28.085-62.608-62.607s28.085-62.608 62.608-62.608zm-106.476 133.427c-6.943-4.086-15.295-4.188-22.338-.276l-111.016 61.676h-55.097c-12.406 0-22.5 10.093-22.5 22.5v47.348c0 12.407 10.094 22.5 22.5 22.5h55.097l41.045 22.803c3.623 2.012 8.187.707 10.199-2.914 2.011-3.621.707-8.187-2.914-10.199l-38.887-21.604v-68.521l108.857-60.477c3.385-1.88 6.334-.562 7.446.092 1.111.654 3.696 2.593 3.696 6.464v176.362c0 3.871-2.585 5.81-3.696 6.464-1.112.653-4.062 1.972-7.446.092l-39.153-21.752c-3.623-2.013-8.188-.707-10.199 2.914s-.707 8.187 2.914 10.198l39.153 21.752c7.039 3.911 15.389 3.813 22.338-.276 6.944-4.086 11.09-11.335 11.09-19.392v-176.362c.001-8.057-4.145-15.306-11.089-19.392zm-138.91 138.747h-49.541c-4.136 0-7.5-3.364-7.5-7.5v-47.348c0-4.136 3.364-7.5 7.5-7.5h49.541zm216.665-202.066h57.441c4.143 0 7.5-3.358 7.5-7.5s-3.357-7.5-7.5-7.5h-57.441c-4.143 0-7.5 3.358-7.5 7.5s3.357 7.5 7.5 7.5zm-34.7 138.365c-2.929 2.929-2.929 7.678.001 10.606 5.843 5.844 9.062 13.628 9.062 21.92s-3.219 16.077-9.062 21.92c-2.929 2.929-2.929 7.678 0 10.606 2.929 2.929 7.678 2.93 10.607 0 8.676-8.676 13.454-20.228 13.455-32.526 0-12.299-4.778-23.851-13.456-32.527-2.929-2.929-7.678-2.928-10.607.001z"/></g></svg>