<svg id="Capa_1" enable-background="new 0 0 512 512" height="512" viewBox="0 0 512 512" width="512" xmlns="http://www.w3.org/2000/svg"><g><path d="m423.646 468.528c11.888 0 23.422-4.754 31.859-13.187 8.806-8.812 13.601-21.003 13.155-33.45-.445-12.438-6.094-24.247-15.497-32.398l-100.853-87.442c.133-7.18-2.593-13.962-7.667-19.034l-13.753-13.753c31.322-57.976 22.531-132.057-26.392-180.98-10.578-10.577-22.557-19.507-35.604-26.542-3.645-1.965-8.195-.604-10.161 3.042s-.604 8.195 3.042 10.161c11.764 6.343 22.569 14.4 32.116 23.946 53.807 53.806 53.807 141.355 0 195.162-53.805 53.806-141.356 53.807-195.161 0-53.807-53.806-53.807-141.355 0-195.162 17.29-17.29 38.854-29.694 62.36-35.874 22.824-5.998 46.969-6.055 69.822-.161 4.008 1.036 8.101-1.378 9.136-5.389 1.034-4.011-1.379-8.101-5.39-9.135-25.329-6.533-52.088-6.47-77.382.179-26.074 6.854-49.987 20.607-69.154 39.774-59.654 59.655-59.654 156.72 0 216.375 29.828 29.828 69.008 44.741 108.188 44.741 25.237 0 50.47-6.198 73.207-18.574l13.658 13.658c5.06 5.06 11.861 7.802 19.034 7.667l30.961 35.708c2.724 3.141 7.463 3.456 10.58.753 3.13-2.713 3.467-7.45.754-10.58l-27.002-31.143c.969-.732 1.896-1.533 2.771-2.407l24.368-24.37c.874-.874 1.675-1.801 2.408-2.771l96.287 83.484c6.361 5.515 10.03 13.186 10.331 21.601.302 8.423-2.814 16.347-8.771 22.307-5.964 5.96-13.906 9.084-22.31 8.774-8.415-.301-16.087-3.97-21.602-10.332l-33.463-38.596c-2.714-3.13-7.45-3.467-10.58-.753-3.13 2.713-3.467 7.45-.754 10.58l33.463 38.595c8.514 9.82 21.007 15.526 33.996 15.526zm-89.61-159.021-24.368 24.37c-2.119 2.119-4.94 3.286-7.942 3.286-3.003 0-5.823-1.167-7.941-3.286l-11.107-11.106c7.687-5.261 15.001-11.292 21.822-18.113 6.933-6.933 13.049-14.376 18.37-22.202l11.168 11.168c2.119 2.119 3.285 4.939 3.285 7.941-.001 3.002-1.168 5.823-3.287 7.942zm-326.536-176.167c4.143 0 7.5-3.358 7.5-7.5v-108.34c0-1.378 1.121-2.5 2.5-2.5h108.34c4.143 0 7.5-3.358 7.5-7.5s-3.357-7.5-7.5-7.5h-108.34c-9.649 0-17.5 7.851-17.5 17.5v108.34c0 4.142 3.357 7.5 7.5 7.5zm118.34 363.66h-108.34c-1.379 0-2.5-1.122-2.5-2.5v-108.34c0-4.142-3.357-7.5-7.5-7.5s-7.5 3.358-7.5 7.5v108.34c0 9.649 7.851 17.5 17.5 17.5h108.34c4.143 0 7.5-3.358 7.5-7.5s-3.358-7.5-7.5-7.5zm62.971-339.11v31.081h-31.08c-4.143 0-7.5 3.358-7.5 7.5s3.357 7.5 7.5 7.5h31.08v31.081c0 4.142 3.357 7.5 7.5 7.5s7.5-3.358 7.5-7.5v-31.081h31.081c4.143 0 7.5-3.358 7.5-7.5s-3.357-7.5-7.5-7.5h-31.081v-31.081c0-4.142-3.357-7.5-7.5-7.5s-7.5 3.358-7.5 7.5zm315.689 220.77c-4.143 0-7.5 3.358-7.5 7.5v108.34c0 1.378-1.121 2.5-2.5 2.5h-108.34c-4.143 0-7.5 3.358-7.5 7.5s3.357 7.5 7.5 7.5h108.34c9.649 0 17.5-7.851 17.5-17.5v-108.34c0-4.142-3.357-7.5-7.5-7.5zm-10-378.66h-108.34c-4.143 0-7.5 3.358-7.5 7.5s3.357 7.5 7.5 7.5h108.34c1.379 0 2.5 1.122 2.5 2.5v108.34c0 4.142 3.357 7.5 7.5 7.5s7.5-3.358 7.5-7.5v-108.34c0-9.649-7.851-17.5-17.5-17.5zm-377.706 116.954c-43.846 43.846-43.846 115.188 0 159.034 21.24 21.24 49.479 32.937 79.518 32.937 30.037 0 58.276-11.697 79.517-32.937 43.846-43.846 43.846-115.188 0-159.034-21.239-21.24-49.479-32.937-79.517-32.937-30.039 0-58.278 11.697-79.518 32.937zm148.427 148.428c-18.406 18.406-42.879 28.543-68.909 28.543-26.031 0-50.504-10.137-68.91-28.543-37.998-37.998-37.998-99.824 0-137.821 18.406-18.407 42.879-28.543 68.91-28.543 26.03 0 50.503 10.137 68.909 28.543 37.998 37.997 37.998 99.823 0 137.821z"/></g></svg>