<svg id="Capa_1" enable-background="new 0 0 512 512" height="512" viewBox="0 0 512 512" width="512" xmlns="http://www.w3.org/2000/svg"><g><path d="m7.5 133.34c4.142 0 7.5-3.358 7.5-7.5v-108.34c0-1.378 1.122-2.5 2.5-2.5h108.34c4.142 0 7.5-3.358 7.5-7.5s-3.358-7.5-7.5-7.5h-108.34c-9.649 0-17.5 7.851-17.5 17.5v108.34c0 4.142 3.358 7.5 7.5 7.5zm414.553 335.16c12.409.444 24.646-4.346 33.453-13.158 8.805-8.811 13.6-21.003 13.155-33.449-.445-12.438-6.093-24.248-15.497-32.399l-26.126-22.652c-3.13-2.714-7.867-2.376-10.58.753s-2.376 7.866.753 10.58l26.127 22.652c6.361 5.515 10.031 13.187 10.332 21.602.302 8.423-2.814 16.346-8.771 22.306-5.963 5.96-13.888 9.084-22.31 8.774-8.415-.301-16.087-3.97-21.602-10.332l-83.483-96.287c.969-.732 1.896-1.533 2.77-2.407l24.37-24.37c.874-.874 1.674-1.801 2.407-2.77l43.674 37.866c1.419 1.23 3.168 1.833 4.91 1.833 2.099 0 4.187-.876 5.67-2.587 2.714-3.129 2.376-7.866-.753-10.58l-48.239-41.825c.133-7.182-2.592-13.961-7.667-19.035l-13.754-13.754c31.322-57.976 22.532-132.056-26.392-180.979-26.329-26.329-61.272-42.133-98.392-44.5-36.78-2.348-73.11 8.591-102.297 30.796-3.296 2.508-3.936 7.213-1.428 10.51s7.215 3.935 10.51 1.428c26.316-20.021 59.082-29.883 92.261-27.765 33.477 2.135 64.992 16.389 88.74 40.137 53.806 53.806 53.806 141.355 0 195.162-53.807 53.806-141.355 53.805-195.162 0-24.3-24.3-38.597-56.57-40.257-90.866-1.648-34.062 9.238-67.323 30.654-93.656 2.613-3.213 2.127-7.937-1.087-10.551-3.213-2.613-7.937-2.127-10.551 1.087-23.752 29.206-35.826 66.085-33.999 103.845 1.84 38.026 17.691 73.806 44.633 100.747 48.621 48.621 122.559 58.138 181.396 26.167l13.658 13.658c5.061 5.062 11.864 7.802 19.035 7.667l87.441 100.852c8.15 9.407 19.959 15.055 32.398 15.5zm-128.269-134.623-11.106-11.106c7.687-5.261 15-11.292 21.821-18.112 6.933-6.933 13.049-14.376 18.371-22.203l11.168 11.168c4.318 4.276 4.338 11.591 0 15.883l-24.37 24.37c-4.301 4.339-11.612 4.313-15.884 0zm-167.944 163.123h-108.34c-1.378 0-2.5-1.122-2.5-2.5v-108.34c0-4.142-3.358-7.5-7.5-7.5s-7.5 3.358-7.5 7.5v108.34c0 9.649 7.851 17.5 17.5 17.5h108.34c4.142 0 7.5-3.358 7.5-7.5s-3.358-7.5-7.5-7.5zm31.89-293.029h77.162c4.142 0 7.5-3.358 7.5-7.5s-3.358-7.5-7.5-7.5h-77.162c-4.142 0-7.5 3.358-7.5 7.5s3.358 7.5 7.5 7.5zm-40.936 72.017c43.846 43.845 115.188 43.846 159.034 0s43.846-115.188 0-159.034-115.188-43.846-159.034 0-43.846 115.189 0 159.034zm10.606-148.427c37.998-37.998 99.824-37.998 137.821 0s37.997 99.824 0 137.821c-37.998 37.997-99.824 37.997-137.821 0-37.997-37.998-37.997-99.824 0-137.821zm367.1-127.561h-108.34c-4.142 0-7.5 3.358-7.5 7.5s3.358 7.5 7.5 7.5h108.34c1.378 0 2.5 1.122 2.5 2.5v108.34c0 4.142 3.358 7.5 7.5 7.5s7.5-3.358 7.5-7.5v-108.34c0-9.649-7.851-17.5-17.5-17.5zm10 378.66c-4.142 0-7.5 3.358-7.5 7.5v108.34c0 1.378-1.122 2.5-2.5 2.5h-108.34c-4.142 0-7.5 3.358-7.5 7.5s3.358 7.5 7.5 7.5h108.34c9.649 0 17.5-7.851 17.5-17.5v-108.34c0-4.142-3.358-7.5-7.5-7.5z"/></g></svg>