<svg id="Capa_1" enable-background="new 0 0 511.984 511.984" height="512" viewBox="0 0 511.984 511.984" width="512" xmlns="http://www.w3.org/2000/svg"><g><path d="m354.246 181.389c-3.443 2.303-4.368 6.961-2.065 10.404 12.718 19.016 19.44 41.212 19.44 64.191 0 63.754-51.868 115.622-115.622 115.622s-115.622-51.868-115.622-115.622 51.869-115.622 115.623-115.622c27.072 0 53.398 9.548 74.128 26.886 3.178 2.658 7.908 2.236 10.564-.941 2.658-3.177 2.236-7.907-.941-10.564-23.424-19.591-53.167-30.38-83.751-30.38-72.025 0-130.622 58.597-130.622 130.622s58.597 130.62 130.622 130.62 130.622-58.597 130.622-130.622c0-25.958-7.598-51.038-21.972-72.53-2.302-3.443-6.961-4.367-10.404-2.064zm151.828-115.619-59.866-59.865c-7.888-7.873-20.726-7.875-28.621.005l-87.956 87.956c-22.453-10.238-47.387-15.95-73.631-15.95-98.187 0-178.067 79.88-178.067 178.067 0 26.244 5.711 51.178 15.95 73.631l-43.016 43.016c-1.625 1.625-4.269 1.625-5.894 0l-12.25-12.25c-12.188-12.188-32.723-3.182-32.723 13.553v118.88c0 10.57 8.6 19.17 19.17 19.17h36.343c4.142 0 7.5-3.358 7.5-7.5s-3.358-7.5-7.5-7.5h-36.343c-2.299 0-4.17-1.871-4.17-4.17v-118.88c.228-3.891 4.101-5.696 7.117-2.947l12.25 12.25c7.474 7.472 19.633 7.472 27.106 0l39.585-39.584c15.926 28.036 39.237 51.348 67.273 67.273l-39.585 39.584c-7.472 7.473-7.472 19.633 0 27.106l12.25 12.25c2.811 3.081 1.157 6.924-2.947 7.117h-47.535c-4.142 0-7.5 3.358-7.5 7.5s3.358 7.5 7.5 7.5h47.537c16.364.154 25.464-21.054 13.553-32.723l-12.25-12.25c-1.625-1.625-1.625-4.269 0-5.894l43.016-43.016c22.453 10.238 47.387 15.95 73.631 15.95 98.187 0 178.067-79.88 178.067-178.067 0-26.244-5.711-51.178-15.95-73.631l87.961-87.961c7.874-7.888 7.874-20.726-.005-28.62zm-87.007 190.213c0 89.916-73.151 163.067-163.067 163.067s-163.067-73.151-163.067-163.067 73.152-163.067 163.067-163.067 163.067 73.152 163.067 163.067zm76.4-172.193-84.525 84.524c-15.926-28.036-39.237-51.348-67.273-67.273l84.52-84.519c2.047-2.044 5.377-2.042 7.418-.005l59.854 59.854c2.044 2.047 2.044 5.377.006 7.419zm-256.325 121.58h45.915c4.142 0 7.5-3.358 7.5-7.5s-3.358-7.5-7.5-7.5h-21.557v-11.797c0-4.142-3.358-7.5-7.5-7.5s-7.5 3.358-7.5 7.5v11.797h-9.358c-10.862 0-19.698 8.836-19.698 19.698v33.717c0 10.862 8.836 19.698 19.698 19.698h33.717c2.591 0 4.698 2.107 4.698 4.698v33.717c0 2.591-2.107 4.698-4.698 4.698h-45.915c-4.142 0-7.5 3.358-7.5 7.5s3.358 7.5 7.5 7.5h21.556v11.797c0 4.142 3.358 7.5 7.5 7.5s7.5-3.358 7.5-7.5v-11.797h9.358c10.862 0 19.698-8.836 19.698-19.698v-33.717c0-10.862-8.836-19.698-19.698-19.698h-33.717c-2.591 0-4.698-2.107-4.698-4.698v-33.717c.001-2.591 2.108-4.698 4.699-4.698z"/></g></svg>