<svg id="Capa_1" enable-background="new 0 0 511.983 511.983" height="512" viewBox="0 0 511.983 511.983" width="512" xmlns="http://www.w3.org/2000/svg"><g><path d="m504.483 67.922c4.143 0 7.5-3.358 7.5-7.5v-41.252c0-10.57-8.6-19.17-19.17-19.17h-118.88c-7.779 0-14.729 4.646-17.707 11.834s-1.348 15.388 4.153 20.889l12.25 12.25c1.625 1.625 1.625 4.269 0 5.894l-43.016 43.016c-22.453-10.238-47.387-15.949-73.631-15.949-34.148 0-67.327 9.695-95.95 28.037-27.862 17.854-50.172 43.013-64.521 72.757-1.8 3.731-.234 8.214 3.496 10.014 3.733 1.8 8.214.234 10.014-3.496 13.142-27.244 33.579-50.289 59.104-66.645 26.203-16.791 56.583-25.667 87.856-25.667 89.916 0 163.067 73.151 163.067 163.067s-73.151 163.067-163.067 163.067-163.067-73.151-163.067-163.067c0-13.295 1.603-26.517 4.765-39.298.995-4.021-1.459-8.087-5.48-9.082-4.016-.993-8.086 1.458-9.082 5.48-3.453 13.958-5.204 28.392-5.204 42.9 0 26.244 5.711 51.178 15.95 73.631l-87.958 87.96c-7.874 7.89-7.874 20.727.005 28.622l59.865 59.865c7.891 7.876 20.729 7.871 28.621-.005l87.956-87.956c22.453 10.238 47.387 15.95 73.631 15.95 98.187 0 178.067-79.88 178.067-178.067 0-26.244-5.711-51.178-15.95-73.631l43.016-43.016c1.623-1.624 4.27-1.624 5.893 0l12.25 12.25c5.501 5.5 13.699 7.132 20.889 4.154 7.189-2.978 11.835-9.928 11.835-17.707v-42.629c0-4.142-3.357-7.5-7.5-7.5s-7.5 3.358-7.5 7.5v42.627c0 2.511-1.801 3.528-2.574 3.849-.774.321-2.767.874-4.542-.902l-12.251-12.25c-7.475-7.473-19.634-7.472-27.106 0l-39.584 39.584c-15.926-28.036-39.237-51.347-67.273-67.272l39.585-39.585c7.473-7.473 7.473-19.633 0-27.106l-12.251-12.25c-1.776-1.776-1.223-3.768-.902-4.542s1.338-2.575 3.85-2.575h118.88c2.299 0 4.17 1.871 4.17 4.17v41.252c-.002 4.143 3.356 7.5 7.498 7.5zm-420.688 427.54c-2.046 2.044-5.377 2.042-7.418.005l-59.854-59.854c-2.043-2.047-2.043-5.377-.005-7.419l84.525-84.524c15.926 28.036 39.237 51.348 67.273 67.273zm172.188-108.84c72.024 0 130.621-58.597 130.621-130.622s-58.597-130.622-130.621-130.622c-72.025 0-130.622 58.597-130.622 130.622s58.598 130.622 130.622 130.622zm0-246.244c63.754 0 115.621 51.868 115.621 115.622s-51.867 115.622-115.621 115.622-115.621-51.868-115.621-115.622 51.868-115.622 115.621-115.622zm16.859 166.235h-45.915c-4.142 0-7.5 3.358-7.5 7.5s3.358 7.5 7.5 7.5h21.557v11.797c0 4.142 3.358 7.5 7.5 7.5 4.143 0 7.5-3.358 7.5-7.5v-11.797h9.358c10.861 0 19.698-8.836 19.698-19.698v-33.717c0-10.862-8.837-19.698-19.698-19.698h-33.717c-2.591 0-4.698-2.107-4.698-4.698v-33.717c0-2.591 2.107-4.698 4.698-4.698h45.915c4.143 0 7.5-3.358 7.5-7.5s-3.357-7.5-7.5-7.5h-21.557v-11.797c0-4.142-3.357-7.5-7.5-7.5-4.142 0-7.5 3.358-7.5 7.5v11.797h-9.358c-10.862 0-19.698 8.836-19.698 19.698v33.717c0 10.862 8.836 19.698 19.698 19.698h33.717c2.591 0 4.698 2.107 4.698 4.698v33.717c0 2.591-2.107 4.698-4.698 4.698z"/></g></svg>