<svg id="Capa_1" enable-background="new 0 0 512 512" height="512" viewBox="0 0 512 512" width="512" xmlns="http://www.w3.org/2000/svg"><g><path d="m350.383 201.673h15.838c4.143 0 7.5-3.358 7.5-7.5s-3.357-7.5-7.5-7.5h-15.838c-4.143 0-7.5 3.358-7.5 7.5s3.357 7.5 7.5 7.5zm0 30h30.838c4.143 0 7.5-3.358 7.5-7.5s-3.357-7.5-7.5-7.5h-30.838c-4.143 0-7.5 3.358-7.5 7.5s3.357 7.5 7.5 7.5zm-29.344 22.661v-189.295c0-35.863-29.177-65.039-65.039-65.039s-65.039 29.176-65.039 65.039v189.294c-44.418 23.991-71.994 70.186-71.994 120.632 0 36.576 14.543 71.094 40.949 97.195 26.031 25.729 60.101 39.84 96.104 39.838.533 0 1.073-.003 1.606-.009 42.063-.49 80.984-19.879 106.782-53.195 2.536-3.275 1.938-7.986-1.338-10.522-3.274-2.536-7.986-1.938-10.521 1.338-22.979 29.674-57.64 46.943-95.097 47.38-.478.005-.951.008-1.428.008-32.027 0-62.366-12.577-85.564-35.507-23.533-23.261-36.494-53.99-36.494-86.527 0-45.014 24.661-86.229 64.358-107.561 4.71-2.53 7.636-7.421 7.636-12.763v-189.601c.001-27.592 22.448-50.039 50.04-50.039s50.039 22.447 50.039 50.039v189.603c0 5.342 2.922 10.23 7.626 12.758 39.704 21.331 64.368 62.548 64.368 107.567 0 15.924-3.019 31.407-8.973 46.019-1.563 3.836.279 8.212 4.115 9.775 3.836 1.565 8.212-.28 9.775-4.115 6.69-16.417 10.082-33.805 10.082-51.679.001-50.446-27.579-96.641-71.993-120.633zm29.344-142.661h30.838c4.143 0 7.5-3.358 7.5-7.5s-3.357-7.5-7.5-7.5h-30.838c-4.143 0-7.5 3.358-7.5 7.5s3.357 7.5 7.5 7.5zm0-60h30.838c4.143 0 7.5-3.358 7.5-7.5s-3.357-7.5-7.5-7.5h-30.838c-4.143 0-7.5 3.358-7.5 7.5s3.357 7.5 7.5 7.5zm0 30h15.838c4.143 0 7.5-3.358 7.5-7.5s-3.357-7.5-7.5-7.5h-15.838c-4.143 0-7.5 3.358-7.5 7.5s3.357 7.5 7.5 7.5zm0 60h15.838c4.143 0 7.5-3.358 7.5-7.5s-3.357-7.5-7.5-7.5h-15.838c-4.143 0-7.5 3.358-7.5 7.5s3.357 7.5 7.5 7.5zm0 30h30.838c4.143 0 7.5-3.358 7.5-7.5s-3.357-7.5-7.5-7.5h-30.838c-4.143 0-7.5 3.358-7.5 7.5s3.357 7.5 7.5 7.5zm-156.986 276.502 11.773-11.773c2.93-2.929 2.93-7.677.001-10.606s-7.678-2.929-10.606 0l-11.773 11.773c-2.93 2.929-2.93 7.677-.001 10.606 2.928 2.929 7.678 2.929 10.606 0zm125.205 0c2.928 2.93 7.678 2.929 10.606 0 2.929-2.929 2.929-7.678-.001-10.606l-11.773-11.773c-2.928-2.93-7.677-2.929-10.606 0s-2.929 7.678.001 10.606zm-70.102-169.24v16.649c0 4.142 3.357 7.5 7.5 7.5s7.5-3.358 7.5-7.5v-16.649c0-4.142-3.357-7.5-7.5-7.5s-7.5 3.357-7.5 7.5zm68.934 45.203 11.773-11.773c2.93-2.929 2.93-7.677.001-10.606-2.93-2.929-7.679-2.93-10.606 0l-11.773 11.773c-2.93 2.929-2.93 7.677-.001 10.606 2.928 2.929 7.678 2.929 10.606 0zm34.598 58.329c4.143 0 7.5-3.358 7.5-7.5s-3.357-7.5-7.5-7.5h-16.649c-4.143 0-7.5 3.358-7.5 7.5s3.357 7.5 7.5 7.5zm-39.149-7.5c0-31.365-25.518-56.883-56.883-56.883s-56.883 25.518-56.883 56.883 25.518 56.883 56.883 56.883 56.883-25.518 56.883-56.883zm-56.883 41.883c-23.095 0-41.883-18.789-41.883-41.883s18.788-41.883 41.883-41.883 41.883 18.789 41.883 41.883-18.789 41.883-41.883 41.883zm-7.5 37.5v16.649c0 4.142 3.357 7.5 7.5 7.5s7.5-3.358 7.5-7.5v-16.649c0-4.142-3.357-7.5-7.5-7.5s-7.5 3.358-7.5 7.5zm-88.532-86.883c-4.143 0-7.5 3.358-7.5 7.5s3.357 7.5 7.5 7.5h16.649c4.143 0 7.5-3.358 7.5-7.5s-3.357-7.5-7.5-7.5zm34.597-43.329c2.928 2.93 7.678 2.929 10.606 0 2.929-2.929 2.929-7.678-.001-10.606l-11.773-11.773c-2.928-2.93-7.677-2.929-10.606 0s-2.929 7.678.001 10.606zm39.533-173.939c-4.143 0-7.5 3.358-7.5 7.5v55.523c0 16.212 13.189 29.402 29.401 29.402s29.401-13.189 29.401-29.402v-147.147c0-16.212-13.189-29.402-29.401-29.402s-29.401 13.189-29.401 29.402v56.625c0 4.142 3.357 7.5 7.5 7.5s7.5-3.358 7.5-7.5v-56.625c0-7.941 6.46-14.402 14.401-14.402s14.401 6.46 14.401 14.402v147.147c0 7.941-6.46 14.402-14.401 14.402s-14.401-6.46-14.401-14.402v-55.523c0-4.142-3.357-7.5-7.5-7.5z"/></g></svg>