<svg id="Capa_1" enable-background="new 0 0 512 512" height="512" viewBox="0 0 512 512" width="512" xmlns="http://www.w3.org/2000/svg"><g><path d="m76.262 112.394c3.799-1.65 5.542-6.068 3.891-9.867-3.419-7.873-5.153-16.257-5.153-24.919 0-34.522 28.086-62.608 62.608-62.608s62.607 28.086 62.607 62.608-28.085 62.607-62.607 62.607c-14.004 0-27.243-4.518-38.285-13.065-3.276-2.536-7.987-1.935-10.521 1.34-2.536 3.275-1.936 7.986 1.34 10.521 13.695 10.601 30.109 16.204 47.467 16.204 42.793 0 77.607-34.814 77.607-77.607s-34.815-77.608-77.608-77.608-77.608 34.815-77.608 77.608c0 10.73 2.151 21.125 6.395 30.894 1.65 3.799 6.067 5.54 9.867 3.892zm211.309-52.394h32.297l-248.822 248.823c-2.929 2.929-2.929 7.678 0 10.606 2.929 2.929 7.678 2.929 10.606 0l248.823-248.823v32.297c0 4.142 3.358 7.5 7.5 7.5s7.5-3.358 7.5-7.5v-50.401c.063-3.554-3.005-7.563-7.5-7.502h-50.404c-4.142 0-7.5 3.358-7.5 7.5s3.358 7.5 7.5 7.5zm-149.963-18.613c-4.142 0-7.5 3.358-7.5 7.5v21.221h-21.221c-4.142 0-7.5 3.358-7.5 7.5s3.358 7.5 7.5 7.5h21.221v21.221c0 4.142 3.358 7.5 7.5 7.5s7.5-3.358 7.5-7.5v-21.221h21.221c4.142 0 7.5-3.358 7.5-7.5s-3.358-7.5-7.5-7.5h-21.221v-21.221c0-4.142-3.358-7.5-7.5-7.5zm366.892 455.613h-36.315v-414.235c0-7.995-6.505-14.5-14.5-14.5h-70.335c-7.995 0-14.5 6.505-14.5 14.5v414.235h-50.665v-141.662c0-4.142-3.358-7.5-7.5-7.5s-7.5 3.358-7.5 7.5v141.662h-69.335v-278.735h69.335v102.073c0 4.142 3.358 7.5 7.5 7.5s7.5-3.358 7.5-7.5v-102.573c0-7.995-6.505-14.5-14.5-14.5h-70.335c-7.995 0-14.5 6.505-14.5 14.5v279.235h-50.665v-144.235c0-7.995-6.505-14.5-14.5-14.5h-70.336c-7.995 0-14.5 6.505-14.5 14.5v144.235h-31.349c-12.407 0-22.5-10.093-22.5-22.5v-44.336h18.114c4.142 0 7.5-3.358 7.5-7.5s-3.358-7.5-7.5-7.5h-18.114v-75h18.114c4.142 0 7.5-3.358 7.5-7.5s-3.358-7.5-7.5-7.5h-18.114v-75h18.114c4.142 0 7.5-3.358 7.5-7.5s-3.358-7.5-7.5-7.5h-18.114v-75h18.114c4.142 0 7.5-3.358 7.5-7.5s-3.358-7.5-7.5-7.5h-18.114v-75h18.114c4.142 0 7.5-3.358 7.5-7.5s-3.358-7.5-7.5-7.5h-18.114v-47.664c0-4.142-3.358-7.5-7.5-7.5s-7.5 3.358-7.5 7.5v467c0 20.678 16.822 37.5 37.5 37.5h467c4.142 0 7.5-3.358 7.5-7.5s-3.358-7.5-7.5-7.5zm-351.315 0h-69.336v-143.735h69.335v143.735zm300 0h-69.335v-413.735h69.335z"/></g></svg>