<svg id="Capa_1" enable-background="new 0 0 512 512" height="512" viewBox="0 0 512 512" width="512" xmlns="http://www.w3.org/2000/svg"><g><path d="m361.856 70.108c-4.142 0-7.5 3.358-7.5 7.5s3.358 7.5 7.5 7.5h57.441c4.142 0 7.5-3.358 7.5-7.5s-3.358-7.5-7.5-7.5zm142.644 426.892h-36.315v-135.868c0-7.995-6.505-14.5-14.5-14.5h-70.335c-7.995 0-14.5 6.505-14.5 14.5v135.868h-50.665v-279.235c0-7.995-6.505-14.5-14.5-14.5h-70.335c-7.995 0-14.5 6.505-14.5 14.5v279.235h-50.665v-414.235c0-7.995-6.505-14.5-14.5-14.5h-70.336c-7.995 0-14.5 6.505-14.5 14.5v179.991c0 4.142 3.358 7.5 7.5 7.5s7.5-3.358 7.5-7.5v-179.491h69.335v413.735h-69.335v-199.244c0-4.142-3.358-7.5-7.5-7.5s-7.5 3.358-7.5 7.5v199.244h-31.349c-12.407 0-22.5-10.093-22.5-22.5v-44.336h18.114c4.142 0 7.5-3.358 7.5-7.5s-3.358-7.5-7.5-7.5h-18.114v-75h18.114c4.142 0 7.5-3.358 7.5-7.5s-3.358-7.5-7.5-7.5h-18.114v-75h18.114c4.142 0 7.5-3.358 7.5-7.5s-3.358-7.5-7.5-7.5h-18.114v-75h18.114c4.142 0 7.5-3.358 7.5-7.5s-3.358-7.5-7.5-7.5h-18.114v-75h18.114c4.142 0 7.5-3.358 7.5-7.5s-3.358-7.5-7.5-7.5h-18.114v-47.664c0-4.142-3.358-7.5-7.5-7.5s-7.5 3.358-7.5 7.5v467c0 20.678 16.822 37.5 37.5 37.5h467c4.142 0 7.5-3.358 7.5-7.5s-3.358-7.5-7.5-7.5zm-201.315 0h-69.335v-278.735h69.335zm150 0h-69.335v-135.368h69.335zm-62.608-341.785c16.513 0 32.279-5.118 45.595-14.8 3.35-2.436 4.091-7.126 1.655-10.477-2.436-3.349-7.125-4.091-10.477-1.655-10.735 7.806-23.451 11.932-36.773 11.932-34.522 0-62.607-28.085-62.607-62.607s28.085-62.608 62.607-62.608 62.608 28.086 62.608 62.608c0 9.61-2.118 18.828-6.294 27.395-1.815 3.724-.268 8.213 3.455 10.028 3.723 1.812 8.212.268 10.028-3.455 5.183-10.632 7.811-22.061 7.811-33.968 0-42.793-34.815-77.608-77.608-77.608s-77.607 34.815-77.607 77.608 34.814 77.607 77.607 77.607zm52.001 151.411h-32.297c-4.142 0-7.5 3.358-7.5 7.5s3.358 7.5 7.5 7.5h50.404c3.558.044 7.556-2.978 7.5-7.502v-50.401c0-4.142-3.358-7.5-7.5-7.5s-7.5 3.358-7.5 7.5v32.297l-248.823-248.823c-2.929-2.929-7.678-2.929-10.606 0-2.929 2.929-2.929 7.678 0 10.606z"/></g></svg>