<svg id="Capa_1" enable-background="new 0 0 512.004 512.004" height="512" viewBox="0 0 512.004 512.004" width="512" xmlns="http://www.w3.org/2000/svg"><g><path d="m344.462 126.447h-176.923c-22.659 0-41.093 18.435-41.093 41.093v176.924c0 22.659 18.435 41.093 41.093 41.093h176.924c22.659 0 41.094-18.435 41.094-41.093v-36.577c0-4.142-3.357-7.5-7.5-7.5s-7.5 3.358-7.5 7.5v36.577c0 14.388-11.706 26.093-26.094 26.093h-176.924c-14.388 0-26.093-11.706-26.093-26.093v-176.924c0-14.388 11.706-26.093 26.093-26.093h176.924c14.388 0 26.094 11.706 26.094 26.093v105.347c0 4.142 3.357 7.5 7.5 7.5s7.5-3.358 7.5-7.5v-105.347c-.001-22.658-18.435-41.093-41.095-41.093zm-318.855-111.445h32.297c4.142 0 7.5-3.358 7.5-7.5s-3.358-7.5-7.5-7.5h-50.403c-3.589-.037-7.537 2.973-7.5 7.502v50.401c0 4.142 3.358 7.5 7.5 7.5s7.5-3.358 7.5-7.5v-32.296l95.301 95.301c2.929 2.929 7.677 2.929 10.606 0s2.929-7.678 0-10.606zm84.694 376.093-95.301 95.301v-32.297c0-4.142-3.358-7.5-7.5-7.5s-7.5 3.358-7.5 7.5v50.401c-.046 3.557 2.976 7.557 7.5 7.502h50.404c4.142 0 7.5-3.358 7.5-7.5s-3.358-7.5-7.5-7.5h-32.297l95.301-95.301c2.929-2.929 2.929-7.678 0-10.606-2.929-2.929-7.678-2.929-10.607 0zm401.662-384.335c-.341-3.512-3.452-6.835-7.464-6.757h-50.401c-4.143 0-7.5 3.358-7.5 7.5s3.357 7.5 7.5 7.5h32.296l-95.301 95.301c-2.929 2.929-2.929 7.678 0 10.606 2.929 2.929 7.678 2.929 10.607 0l95.301-95.3v32.297c0 4.142 3.357 7.5 7.5 7.5s7.5-3.358 7.5-7.5v-50.4c0-.249-.013-.499-.038-.747zm-7.462 439.838c-4.143 0-7.5 3.358-7.5 7.5v32.297l-95.301-95.3c-2.93-2.929-7.678-2.929-10.607 0s-2.929 7.678 0 10.606l95.301 95.301h-32.296c-4.143 0-7.5 3.358-7.5 7.5s3.357 7.5 7.5 7.5h50.403c3.783.034 7.63-3.263 7.5-7.505v-50.399c-.001-4.142-3.358-7.5-7.5-7.5zm-272.218-255.497c4.142 0 7.5-3.358 7.5-7.5s-3.358-7.5-7.5-7.5h-42.042c-7.798 0-14.142 6.344-14.142 14.142v131.518c0 7.798 6.344 14.142 14.142 14.142h131.518c7.798 0 14.143-6.344 14.143-14.142v-131.518c0-7.798-6.345-14.142-14.143-14.142h-54.476c-4.143 0-7.5 3.358-7.5 7.5s3.357 7.5 7.5 7.5h53.618v129.802h-129.801v-129.802z"/></g></svg>