<svg id="Capa_1" enable-background="new 0 0 512 512" height="512" viewBox="0 0 512 512" width="512" xmlns="http://www.w3.org/2000/svg"><g><path d="m55.865 445.528-53.668 53.669c-2.929 2.929-2.929 7.678 0 10.606 1.464 1.465 3.384 2.197 5.303 2.197s3.839-.732 5.304-2.197l53.669-53.669c2.929-2.929 2.929-7.678 0-10.606-2.93-2.929-7.678-2.929-10.608 0zm100.004-96.896h-50.404c-4.143 0-7.5 3.358-7.5 7.5s3.357 7.5 7.5 7.5h32.297l-57.103 57.103c-2.929 2.929-2.929 7.678 0 10.606 2.929 2.929 7.677 2.929 10.607 0l57.103-57.103v32.297c0 4.142 3.357 7.5 7.5 7.5s7.5-3.358 7.5-7.5v-50.398c-.194-3.772-3.045-7.606-7.5-7.505zm200.262-185.263h50.404c4.143 0 7.5-3.358 7.5-7.5s-3.357-7.5-7.5-7.5h-32.297l135.566-135.566c2.929-2.929 2.929-7.678 0-10.606-2.93-2.929-7.678-2.929-10.607 0l-135.566 135.565v-32.297c0-4.142-3.357-7.5-7.5-7.5s-7.5 3.358-7.5 7.5v50.398c.114 3.582 2.965 7.638 7.5 7.506zm18.107 200.263h32.297c4.143 0 7.5-3.358 7.5-7.5s-3.357-7.5-7.5-7.5h-50.402c-3.783-.034-7.632 3.263-7.502 7.505v50.398c0 4.142 3.357 7.5 7.5 7.5s7.5-3.358 7.5-7.5v-32.297l135.565 135.565c2.93 2.929 7.678 2.929 10.607 0s2.929-7.678 0-10.606zm-218.369-265.667c-4.143 0-7.5 3.358-7.5 7.5v32.297l-135.565-135.565c-2.93-2.929-7.678-2.929-10.607 0s-2.929 7.678 0 10.606l135.566 135.565h-32.297c-4.143 0-7.5 3.358-7.5 7.5s3.357 7.5 7.5 7.5h50.404c3.783.033 7.63-3.263 7.5-7.505v-50.398c-.001-4.142-3.358-7.5-7.501-7.5zm165.89 78.134h-131.518c-7.798 0-14.143 6.344-14.143 14.142v131.518c0 7.798 6.345 14.142 14.143 14.142h131.518c7.798 0 14.143-6.344 14.143-14.142v-50.585c0-4.142-3.357-7.5-7.5-7.5s-7.5 3.358-7.5 7.5v49.727h-129.803v-129.802h129.803v45.075c0 4.142 3.357 7.5 7.5 7.5s7.5-3.358 7.5-7.5v-45.933c0-7.797-6.345-14.142-14.143-14.142z"/></g></svg>