<svg id="Capa_1" enable-background="new 0 0 512 512" height="512" viewBox="0 0 512 512" width="512" xmlns="http://www.w3.org/2000/svg"><g><path d="m300.322 415.5h-88.645c-4.143 0-7.5 3.358-7.5 7.5s3.357 7.5 7.5 7.5h88.645c4.143 0 7.5-3.358 7.5-7.5s-3.357-7.5-7.5-7.5zm-15 30h-58.645c-4.143 0-7.5 3.358-7.5 7.5s3.357 7.5 7.5 7.5h58.645c4.143 0 7.5-3.358 7.5-7.5s-3.357-7.5-7.5-7.5zm207.671-286.473c-1.57-3.833-5.947-5.668-9.783-4.098-3.833 1.57-5.668 5.95-4.098 9.783 10.927 26.679 16.882 54.832 17.76 83.787h-50.364c-2.514-64.643-37.355-121.125-88.783-153.695l25.218-43.679c33.268 20.663 61.215 49.263 81.057 83.073 2.098 3.573 6.693 4.768 10.265 2.672 3.572-2.097 4.769-6.692 2.673-10.265-46.054-78.512-130.103-126.605-220.938-126.605-68.38 0-132.668 26.629-181.02 74.98-48.351 48.353-74.98 112.64-74.98 181.02s26.629 132.667 74.98 181.02c48.352 48.351 112.64 74.98 181.02 74.98s132.668-26.629 181.02-74.98c48.351-48.353 74.98-112.64 74.98-181.02 0-33.555-6.395-66.182-19.007-96.973zm-236.993-144.027c39.88 0 79.094 9.869 113.967 28.603l-25.221 43.684c-26.523-14.009-56.722-21.957-88.746-21.957s-62.223 7.948-88.747 21.957l-25.253-43.742c34.637-18.644 73.556-28.545 114-28.545zm-170.413 70.587c13.291-13.291 27.868-24.824 43.439-34.512l25.247 43.73c-51.428 32.57-86.269 89.052-88.783 153.695h-50.363c1.87-61.562 26.714-119.167 70.46-162.913zm0 340.826c-43.746-43.746-68.59-101.351-70.46-162.913h50.367c1.221 30.962 9.969 61.238 25.517 87.998 15.283 26.306 36.763 48.716 62.354 65.125l-16.259 49.126c-18.63-10.599-35.952-23.77-51.519-39.336zm170.413 70.587c-37.146 0-73-8.363-105.438-24.169l25.991-78.532c3.055-9.229 11.639-15.43 21.36-15.43h37.255c4.143 0 7.5-3.358 7.5-7.5s-3.357-7.5-7.5-7.5h-37.255c-16.203 0-30.51 10.335-35.601 25.717l-4.064 12.278c-22.173-14.913-40.827-34.766-54.268-57.902-15.468-26.623-23.646-57.028-23.651-87.933 0-.01.001-.02.001-.029 0-.01-.001-.021-.002-.031.019-96.851 78.817-175.639 175.672-175.639s175.653 78.788 175.67 175.639c0 .01-.002.021-.002.031s.001.02.001.029c-.005 30.904-8.183 61.31-23.651 87.933-13.442 23.137-32.095 42.989-54.268 57.902l-4.064-12.278c-5.091-15.382-19.397-25.717-35.601-25.717h-43.917c-4.143 0-7.5 3.358-7.5 7.5s3.357 7.5 7.5 7.5h43.917c9.722 0 18.306 6.201 21.36 15.43l25.991 78.532c-32.436 15.806-68.29 24.169-105.436 24.169zm170.413-70.587c-15.567 15.566-32.89 28.738-51.519 39.336l-16.259-49.126c25.592-16.41 47.071-38.82 62.354-65.125 15.547-26.759 24.295-57.036 25.517-87.998h50.367c-1.87 61.562-26.714 119.167-70.46 162.913zm-126.169-150.583 80.327-37.413c6.988-3.259 10.442-10.728 8.399-18.162-2.044-7.434-8.825-12.087-16.506-11.317l-86.73 8.787c-8.219-6.399-18.535-10.225-29.734-10.225-26.743 0-48.5 21.757-48.5 48.5s21.757 48.5 48.5 48.5c19.68 0 36.647-11.789 44.244-28.67zm74.066-51.965c.159.114.293.603.22.77-.129.295-69.862 32.453-70.063 32.68.258-9.32-2.169-18.197-6.594-25.743.257-.075 76.186-7.722 76.437-7.707zm-151.81 32.135c0-18.472 15.028-33.5 33.5-33.5s33.5 15.028 33.5 33.5-15.028 33.5-33.5 33.5-33.5-15.028-33.5-33.5z"/></g></svg>