<svg id="Capa_1" enable-background="new 0 0 512.103 512.103" height="512" viewBox="0 0 512.103 512.103" width="512" xmlns="http://www.w3.org/2000/svg"><g><path d="m300.427 415.551h-88.645c-4.142 0-7.5 3.358-7.5 7.5s3.358 7.5 7.5 7.5h88.645c4.142 0 7.5-3.358 7.5-7.5s-3.358-7.5-7.5-7.5zm136.697-340.519c-48.352-48.352-112.64-74.98-181.02-74.98s-132.667 26.628-181.019 74.98c-78.215 78.215-97.71 198.025-47.189 297.14 1.881 3.69 6.396 5.156 10.088 3.275 3.69-1.881 5.156-6.398 3.275-10.088-16.224-31.823-24.968-66.038-26.039-101.807h50.378c1.221 30.962 9.97 61.238 25.517 87.998 15.284 26.306 36.762 48.716 62.354 65.125l-16.206 48.967c-30.736-17.426-57.727-41.606-78.587-71.338-2.379-3.392-7.057-4.211-10.447-1.832-3.391 2.379-4.211 7.057-1.832 10.447 48.104 68.561 127.553 109.132 209.707 109.132 68.38 0 132.667-26.629 181.02-74.98 100.069-100.068 99.875-262.165 0-362.039zm-181.02-59.981c40.444 0 79.363 9.901 114 28.546l-25.257 43.747c-26.979-14.221-57.342-21.963-88.743-21.963-32.024 0-62.223 7.948-88.747 21.957l-25.254-43.741c34.638-18.645 73.558-28.546 114.001-28.546zm-190.509 233.5h-50.363c1.87-61.562 26.714-119.166 70.46-162.913 13.291-13.291 27.868-24.824 43.439-34.512l25.247 43.73c-51.427 32.571-86.269 89.053-88.783 153.695zm38.49 95.462c-68.259-117.485 18.068-263.631 152.019-263.631 58.227 0 112.597 28.877 145.438 77.245 2.327 3.427 6.991 4.319 10.418 1.992s4.319-6.991 1.992-10.418c-15.029-22.134-34.225-40.487-56.128-54.334l25.253-43.74c15.571 9.688 30.148 21.222 43.439 34.512 43.746 43.747 68.59 101.351 70.46 162.913h-50.362c-.898-23.301-5.97-45.918-15.14-67.331-1.631-3.808-6.04-5.572-9.847-3.942-3.808 1.631-5.572 6.04-3.942 9.847 21.454 50.104 17.901 109.616-9.563 156.888-13.442 23.137-32.095 42.989-54.268 57.902l-4.064-12.278c-5.091-15.382-19.397-25.717-35.601-25.717h-116.171c-16.203 0-30.51 10.335-35.601 25.717l-4.064 12.278c-22.172-14.913-40.825-34.766-54.268-57.903zm152.019 153.038c-37.009 0-72.974-8.549-105.387-24.322l25.941-78.379c3.055-9.229 11.639-15.43 21.36-15.43h116.172c9.722 0 18.306 6.201 21.36 15.43l25.991 78.532c-32.437 15.806-68.291 24.169-105.437 24.169zm170.413-70.587c-15.567 15.567-32.889 28.738-51.519 39.336l-16.259-49.126c25.592-16.409 47.071-38.819 62.354-65.125 15.547-26.759 24.296-57.036 25.517-87.998h50.367c-1.87 61.562-26.714 119.166-70.46 162.913zm-170.413-121.913c26.743 0 48.5-21.757 48.5-48.5s-21.757-48.5-48.5-48.5c-11.199 0-21.515 3.826-29.734 10.225l-86.737-8.788c-7.673-.772-14.455 3.884-16.497 11.317-2.043 7.435 1.411 14.903 8.402 18.164l80.323 37.411c7.596 16.882 24.563 28.671 44.243 28.671zm0-82c18.472 0 33.5 15.028 33.5 33.5s-15.028 33.5-33.5 33.5-33.5-15.028-33.5-33.5 15.028-33.5 33.5-33.5zm-118.23 2.323c-.217-.101-.29-.177-.292-.177-.079-.179.055-.668.202-.775.001 0 .101-.034.345-.009l76.103 7.71c-4.205 7.18-6.627 15.524-6.627 24.428 0 .441.022.877.033 1.315zm147.553 220.677h-58.645c-4.142 0-7.5 3.358-7.5 7.5s3.358 7.5 7.5 7.5h58.645c4.142 0 7.5-3.358 7.5-7.5s-3.358-7.5-7.5-7.5z"/></g></svg>