<svg id="Capa_1" enable-background="new 0 0 512 512" height="512" viewBox="0 0 512 512" width="512" xmlns="http://www.w3.org/2000/svg"><g><path d="m322.854 160.641c-19.655-13.808-42.772-21.106-66.854-21.106-22.863 0-45.002 6.632-64.023 19.179-3.458 2.281-4.412 6.933-2.131 10.391s6.933 4.413 10.391 2.131c16.563-10.926 35.846-16.701 55.764-16.701 20.979 0 41.114 6.356 58.251 18.395 27.087 19.028 43.208 49.972 43.208 83.077 0 31.621-14.355 60.863-39.386 80.23-.03.023-.061.047-.091.071-17.501 13.831-39.632 21.157-61.982 21.157-22.109 0-44.662-7.3-61.985-21.159-.029-.023-.059-.047-.088-.07-25.03-19.367-39.385-48.61-39.385-80.23 0-22.913 7.45-44.53 21.545-62.514 2.555-3.26 1.984-7.974-1.276-10.529-3.259-2.555-7.975-1.984-10.529 1.276-16.185 20.65-24.74 45.467-24.74 71.767 0 36.28 16.458 69.83 45.162 92.06 20.205 15.648 45.705 24.399 71.297 24.399 25.826 0 50.927-8.623 71.297-24.399 28.703-22.229 45.162-55.779 45.162-92.06-.002-38.098-18.453-73.479-49.607-95.365zm-73.298 62.758c-4.142 0-7.5 3.358-7.5 7.5v40.202c0 6.341 5.159 11.5 11.5 11.5h26.889c4.143 0 7.5-3.358 7.5-7.5s-3.357-7.5-7.5-7.5h-23.389v-36.702c0-4.142-3.358-7.5-7.5-7.5zm208.314 100.921h34.66c10.735 0 19.47-8.734 19.47-19.47v-97.7c0-10.736-8.734-19.47-19.47-19.47h-34.66c-1.903 0-3.566-1.198-4.238-3.054-2.194-6.059-4.692-12.079-7.423-17.894-.84-1.787-.512-3.812.835-5.159l24.52-24.52c7.589-7.589 7.589-19.938 0-27.526l-69.09-69.09c-3.676-3.675-8.563-5.7-13.764-5.7s-10.088 2.024-13.764 5.7l-24.519 24.519c-1.349 1.347-3.372 1.673-5.159.836-5.81-2.729-11.83-5.227-17.896-7.424-1.854-.671-3.053-2.334-3.053-4.238v-34.66c.001-10.736-8.733-19.47-19.469-19.47h-97.7c-10.736 0-19.47 8.734-19.47 19.47v34.66c0 1.903-1.198 3.566-3.054 4.238-6.063 2.196-12.084 4.694-17.894 7.423-1.788.839-3.813.511-5.159-.835l-24.52-24.52c-3.675-3.675-8.563-5.7-13.764-5.7s-10.088 2.024-13.763 5.7l-69.09 69.089c-3.675 3.675-5.7 8.563-5.7 13.764s2.024 10.088 5.7 13.763l24.52 24.52c1.346 1.347 1.674 3.372.835 5.158-2.73 5.811-5.228 11.832-7.424 17.896-.671 1.854-2.334 3.053-4.238 3.053h-34.659c-10.736.001-19.47 8.735-19.47 19.471v97.7c0 10.736 8.734 19.47 19.47 19.47h34.66c1.903 0 3.566 1.198 4.238 3.054 2.196 6.063 4.694 12.084 7.423 17.894.839 1.787.511 3.812-.835 5.159l-24.52 24.52c-3.675 3.675-5.7 8.563-5.7 13.764s2.024 10.088 5.7 13.763l69.089 69.09c3.675 3.675 8.563 5.7 13.764 5.7s10.088-2.024 13.763-5.7l24.52-24.52c1.347-1.347 3.37-1.674 5.158-.835 5.811 2.73 11.832 5.228 17.896 7.424 1.854.671 3.053 2.334 3.053 4.238v34.66c0 10.736 8.734 19.47 19.47 19.47h97.7c10.736 0 19.471-8.734 19.471-19.47v-34.66c-.01-2.148 1.415-3.673 3.411-4.372 14.616 34.353 48.706 58.501 88.331 58.501 23.027 0 45.294-8.282 62.696-23.32 3.135-2.708 3.479-7.444.771-10.579-2.708-3.134-7.445-3.479-10.578-.771-14.679 12.685-33.461 19.67-52.889 19.67-44.63 0-80.938-36.309-80.938-80.938s36.309-80.938 80.938-80.938 80.938 36.309 80.938 80.938c0 12.689-2.851 24.833-8.472 36.094-1.851 3.706-.346 8.21 3.36 10.06 3.705 1.85 8.211.347 10.06-3.361 6.67-13.36 10.052-27.758 10.052-42.793 0-39.625-24.148-73.716-58.501-88.331.697-1.997 2.238-3.417 4.371-3.411zm-18.603-1.352c-7.433-1.854-15.205-2.844-23.204-2.844-52.9 0-95.938 43.038-95.938 95.938 0 8 .99 15.771 2.844 23.205-8.057 2.871-13.653 9.952-13.648 18.603v34.66c0 2.465-2.006 4.47-4.471 4.47h-97.7c-2.465 0-4.47-2.005-4.47-4.47v-34.66c0-8.168-5.203-15.54-12.946-18.342-5.634-2.041-11.228-4.361-16.626-6.897-7.463-3.505-16.361-1.975-22.141 3.806l-24.521 24.52c-.842.842-1.963 1.306-3.156 1.306s-2.314-.464-3.157-1.306l-69.09-69.09c-.842-.842-1.306-1.963-1.306-3.156s.464-2.314 1.306-3.157l24.52-24.52c5.781-5.781 7.31-14.678 3.805-22.142-2.536-5.397-4.856-10.991-6.896-16.624-2.803-7.744-10.174-12.947-18.342-12.947h-34.66c-2.465 0-4.47-2.005-4.47-4.47v-97.7c0-2.465 2.005-4.47 4.47-4.47h34.66c8.168 0 15.54-5.203 18.342-12.946 2.041-5.634 4.361-11.228 6.897-16.626 3.504-7.463 1.975-16.36-3.806-22.141l-24.52-24.521c-.842-.842-1.306-1.963-1.306-3.156s.464-2.314 1.306-3.157l69.09-69.09c.842-.842 1.963-1.306 3.156-1.306s2.314.464 3.157 1.306l24.52 24.52c5.78 5.781 14.679 7.311 22.142 3.805 5.397-2.536 10.991-4.856 16.624-6.896 7.744-2.803 12.947-10.174 12.947-18.342v-34.661c0-2.465 2.005-4.47 4.47-4.47h97.7c2.465 0 4.471 2.005 4.471 4.47v34.66c0 8.168 5.203 15.54 12.945 18.342 5.635 2.041 11.229 4.361 16.626 6.897 7.464 3.504 16.36 1.976 22.143-3.806l24.52-24.52c.842-.842 1.963-1.306 3.156-1.306s2.314.464 3.156 1.306l69.09 69.09c1.741 1.741 1.741 4.573 0 6.313l-24.519 24.52c-5.781 5.78-7.311 14.678-3.806 22.142 2.537 5.402 4.857 10.996 6.896 16.624 2.803 7.745 10.174 12.948 18.343 12.948h34.66c2.465 0 4.47 2.005 4.47 4.47v97.7c0 2.465-2.005 4.47-4.47 4.47h-34.66c-8.677-.014-15.716 5.585-18.603 13.648zm-23.205 40.828c-4.143 0-7.5 3.358-7.5 7.5v71.424l-13.164-13.164c-2.93-2.929-7.678-2.929-10.607 0s-2.929 7.678 0 10.606l25.968 25.968c2.476 2.519 7.446 3.27 10.607 0l25.967-25.968c2.929-2.929 2.929-7.678-.001-10.606-2.928-2.93-7.677-2.929-10.606 0l-13.163 13.164v-71.424c-.001-4.142-3.358-7.5-7.501-7.5z"/></g></svg>