<svg id="Capa_1" enable-background="new 0 0 511.928 511.928" height="512" viewBox="0 0 511.928 511.928" width="512" xmlns="http://www.w3.org/2000/svg"><g><path d="m351.003 282.473c-5.086-5.086-10.485-9.672-16.13-13.771v-106.75c0-4.213 3.423-7.64 7.63-7.64h22.479c9.331 0 17.346-5.354 20.915-13.971 3.57-8.619 1.688-18.073-4.911-24.672l-109.049-109.051c-8.824-8.824-23.184-8.824-32.008 0l-41.372 41.372c-2.929 2.929-2.929 7.678 0 10.606 2.93 2.929 7.678 2.929 10.607 0l41.372-41.372c2.975-2.976 7.818-2.976 10.793 0l109.05 109.05c3.353 3.352 2.118 7.22 1.66 8.325s-2.319 4.711-7.057 4.711h-22.479c-12.479 0-22.63 10.156-22.63 22.64v97.316c-39.758-21.467-88.123-21.467-127.881 0v-97.316c0-12.484-10.151-22.64-22.63-22.64h-22.479c-4.737 0-6.599-3.606-7.057-4.711s-1.692-4.974 1.66-8.325l42.785-42.786c2.929-2.929 2.929-7.678 0-10.606-2.93-2.929-7.678-2.929-10.607 0l-42.785 42.786c-6.6 6.6-8.481 16.053-4.911 24.672 3.569 8.617 11.584 13.971 20.915 13.971h22.479c4.207 0 7.63 3.427 7.63 7.64v106.75c-5.645 4.099-11.044 8.686-16.13 13.771-52.421 52.421-52.421 137.718 0 190.139 52.421 52.422 137.719 52.421 190.141 0 14.538-14.538 25.296-31.691 31.976-50.982 1.355-3.914-.719-8.186-4.633-9.542-3.915-1.355-8.187.72-9.541 4.633-5.932 17.129-15.489 32.364-28.409 45.284-46.574 46.572-122.355 46.572-168.926 0-46.573-46.573-46.573-122.353 0-168.926 46.572-46.572 122.354-46.572 168.926 0 23.954 23.954 36.643 57.107 34.811 90.959-.224 4.136 2.948 7.67 7.084 7.895 4.144.215 7.671-2.948 7.895-7.084 2.06-38.099-12.222-75.413-39.183-102.375zm-136.849 147.456 94.166-94.167c2.929-2.929 2.929-7.678 0-10.606-2.93-2.929-7.678-2.929-10.607 0l-94.166 94.167c-2.929 2.929-2.929 7.678 0 10.606 2.929 2.929 7.677 2.929 10.607 0zm16.85-77.316c9.592-9.592 9.592-25.2 0-34.792s-25.2-9.592-34.794 0c-9.592 9.593-9.592 25.201.001 34.793 4.646 4.646 10.825 7.206 17.396 7.206s12.751-2.56 17.397-7.207zm-24.187-24.186c1.873-1.872 4.332-2.808 6.791-2.808s4.918.936 6.789 2.808c3.744 3.744 3.744 9.836 0 13.58-1.813 1.814-4.225 2.812-6.789 2.812-2.565 0-4.977-.999-6.79-2.812-3.744-3.744-3.744-9.836-.001-13.58zm91.441 116.031c6.3 0 12.601-2.398 17.396-7.193h.001c9.592-9.592 9.592-25.2-.001-34.793-9.592-9.592-25.201-9.591-34.793 0-9.592 9.592-9.592 25.2 0 34.792 4.798 4.797 11.097 7.194 17.397 7.194zm-6.789-31.38c1.871-1.872 4.33-2.808 6.789-2.808s4.918.936 6.79 2.808c3.744 3.744 3.744 9.835.001 13.579-3.745 3.744-9.837 3.744-13.58 0-3.744-3.743-3.744-9.835 0-13.579z"/></g></svg>