<svg id="Capa_1" enable-background="new 0 0 512 512" height="512" viewBox="0 0 512 512" width="512" xmlns="http://www.w3.org/2000/svg"><g><path d="m267.631 410.59h-31.678c-4.142 0-7.5 3.358-7.5 7.5s3.358 7.5 7.5 7.5h12.547v5.813c0 4.142 3.358 7.5 7.5 7.5s7.5-3.358 7.5-7.5v-5.813h4.131c8.776 0 15.916-7.14 15.916-15.916v-23.262c0-8.776-7.14-15.916-15.916-15.916h-23.262c-.505 0-.916-.411-.916-.916v-23.262c0-.505.411-.916.916-.916h31.678c4.142 0 7.5-3.358 7.5-7.5s-3.358-7.5-7.5-7.5h-12.547v-5.813c0-4.142-3.358-7.5-7.5-7.5s-7.5 3.358-7.5 7.5v5.813h-4.131c-8.776 0-15.916 7.14-15.916 15.916v23.262c0 8.776 7.14 15.916 15.916 15.916h23.262c.505 0 .916.411.916.916v23.262c0 .505-.411.916-.916.916zm206.869-166.594h-44.01v-72.43h10.67c6.014 0 11.384-3.59 13.682-9.146 2.297-5.554 1.031-11.887-3.218-16.126l-52.659-52.67c-5.771-5.75-15.159-5.75-20.938.01l-52.644 52.654c-4.256 4.246-5.521 10.579-3.225 16.133 2.298 5.556 7.668 9.146 13.682 9.146h10.67v72.43h-39.79v-67.195c0-4.142-3.358-7.5-7.5-7.5s-7.5 3.358-7.5 7.5v67.195h-71.44v-143.05c0-9.187-7.474-16.66-16.66-16.66h-13.6c-1.494.012-2.205-1.806-1.167-2.827l65.98-65.98c.644-.644 1.69-.644 2.334 0l65.98 65.98c1.043 1.016.31 2.848-1.167 2.827h-13.6c-9.186 0-16.66 7.474-16.66 16.66v40.854c0 4.142 3.358 7.5 7.5 7.5s7.5-3.358 7.5-7.5v-40.854c0-.916.745-1.66 1.66-1.66h13.6c14.237.131 22.088-18.329 11.773-28.433l-65.98-65.98c-6.492-6.492-17.055-6.492-23.547 0l-65.98 65.98c-9.996 9.914-3.561 28.467 11.773 28.433h13.6c.915 0 1.66.745 1.66 1.66v143.05h-39.79v-72.43h10.67c6.014 0 11.384-3.59 13.682-9.146 2.297-5.554 1.031-11.887-3.218-16.126l-52.659-52.67c-5.77-5.75-15.158-5.75-20.938.01l-52.644 52.654c-4.256 4.246-5.521 10.579-3.225 16.133 2.298 5.556 7.668 9.146 13.682 9.146h10.67v72.43h-44.009c-20.678 0-37.5 16.822-37.5 37.5v193c0 20.678 16.822 37.5 37.5 37.5h437c20.678 0 37.5-16.822 37.5-37.5v-193c0-20.68-16.822-37.502-37.5-37.502zm-138.182-87.432 52.182-52.192 52.181 52.193h-10.381c-8.166 0-14.81 6.644-14.81 14.81v72.62h-53.98v-72.62c0-8.167-6.644-14.81-14.81-14.81zm-265 0 52.182-52.192 52.181 52.193h-10.381c-8.166 0-14.81 6.644-14.81 14.81v72.62h-53.98v-72.62c0-8.167-6.644-14.81-14.81-14.81zm-56.318 124.932c0-12.407 10.093-22.5 22.5-22.5h14.672c2.007 3.887 3.068 8.183 3.068 12.62 0 15.229-12.39 27.62-27.62 27.62-4.437 0-8.733-1.061-12.62-3.067zm37.172 215.5h-14.672c-12.407 0-22.5-10.093-22.5-22.5v-14.672c3.887-2.007 8.183-3.067 12.62-3.067 15.229 0 27.62 12.39 27.62 27.62-.001 4.436-1.062 8.732-3.068 12.619zm444.828-22.5c0 12.407-10.093 22.5-22.5 22.5h-14.672c-2.007-3.887-3.068-8.183-3.068-12.62 0-15.229 12.39-27.62 27.62-27.62 4.437 0 8.733 1.061 12.62 3.067zm0-30.834c-4.052-1.256-8.294-1.905-12.62-1.905-23.5 0-42.62 19.119-42.62 42.62 0 4.326.648 8.568 1.905 12.62h-375.331c1.256-4.052 1.905-8.294 1.905-12.62 0-23.5-19.119-42.62-42.62-42.62-4.326 0-8.568.648-12.62 1.905v-131.331c4.052 1.256 8.294 1.905 12.62 1.905 23.5 0 42.62-19.119 42.62-42.62 0-4.326-.648-8.568-1.905-12.62h375.331c-1.256 4.052-1.905 8.294-1.905 12.62 0 23.5 19.119 42.62 42.62 42.62 4.326 0 8.568-.648 12.62-1.905zm0-147.494c-3.887 2.007-8.183 3.067-12.62 3.067-15.229 0-27.62-12.39-27.62-27.62 0-4.437 1.061-8.733 3.068-12.62h14.672c12.407 0 22.5 10.093 22.5 22.5zm-90 51.828c-16.542 0-30 13.458-30 30s13.458 30 30 30 30-13.458 30-30-13.458-30-30-30zm0 45c-8.271 0-15-6.729-15-15s6.729-15 15-15 15 6.729 15 15-6.729 15-15 15zm-302-45c-16.542 0-30 13.458-30 30s13.458 30 30 30 30-13.458 30-30-13.458-30-30-30zm0 45c-8.271 0-15-6.729-15-15s6.729-15 15-15 15 6.729 15 15-6.729 15-15 15zm151-107.444c-50.974 0-92.444 41.47-92.444 92.444 0 19.278 5.876 37.753 16.994 53.427 2.396 3.379 7.078 4.173 10.456 1.779 3.379-2.396 4.175-7.078 1.778-10.457-9.308-13.124-14.229-28.598-14.229-44.749 0-42.703 34.741-77.444 77.444-77.444s77.444 34.741 77.444 77.444-34.74 77.444-77.443 77.444c-14.152 0-27.995-3.851-40.033-11.135-3.544-2.146-8.155-1.01-10.299 2.534-2.145 3.543-1.01 8.155 2.534 10.299 14.38 8.703 30.909 13.302 47.799 13.302 50.974 0 92.444-41.47 92.444-92.444s-41.471-92.444-92.445-92.444z"/></g></svg>