<svg id="Capa_1" enable-background="new 0 0 512 512" height="512" viewBox="0 0 512 512" width="512" xmlns="http://www.w3.org/2000/svg"><g><path d="m437 134.004c0-16.542-13.458-30-30-30s-30 13.458-30 30 13.458 30 30 30 30-13.458 30-30zm-45 0c0-8.271 6.729-15 15-15s15 6.729 15 15-6.729 15-15 15-15-6.729-15-15zm-147.631-32.594h31.678c4.142 0 7.5-3.358 7.5-7.5s-3.358-7.5-7.5-7.5h-12.547v-5.813c0-4.142-3.358-7.5-7.5-7.5s-7.5 3.358-7.5 7.5v5.813h-4.131c-8.776 0-15.916 7.14-15.916 15.916v23.262c0 8.776 7.14 15.916 15.916 15.916h23.262c.505 0 .916.411.916.916v23.262c0 .505-.411.916-.916.916h-31.678c-4.142 0-7.5 3.358-7.5 7.5s3.358 7.5 7.5 7.5h12.547v5.813c0 4.142 3.358 7.5 7.5 7.5s7.5-3.358 7.5-7.5v-5.813h4.131c8.776 0 15.916-7.14 15.916-15.916v-23.262c0-8.776-7.14-15.916-15.916-15.916h-23.262c-.505 0-.916-.411-.916-.916v-23.262c0-.505.411-.916.916-.916zm-169.369 32.594c0 16.542 13.458 30 30 30s30-13.458 30-30-13.458-30-30-30-30 13.458-30 30zm45 0c0 8.271-6.729 15-15 15s-15-6.729-15-15 6.729-15 15-15 15 6.729 15 15zm136-92.444c-50.974 0-92.444 41.47-92.444 92.444s41.47 92.444 92.444 92.444 92.444-41.47 92.444-92.444-41.47-92.444-92.444-92.444zm0 169.888c-42.703 0-77.444-34.741-77.444-77.444s34.741-77.444 77.444-77.444 77.444 34.741 77.444 77.444-34.741 77.444-77.444 77.444zm218.5-211.444h-97.421c-4.142 0-7.5 3.358-7.5 7.5s3.358 7.5 7.5 7.5h66.587c-1.256 4.052-1.905 8.294-1.905 12.62 0 23.5 19.119 42.62 42.62 42.62 4.326 0 8.568-.648 12.62-1.905v131.331c-4.052-1.256-8.294-1.905-12.62-1.905-23.5 0-42.62 19.119-42.62 42.62 0 4.326.648 8.568 1.905 12.62h-375.332c1.256-4.052 1.905-8.294 1.905-12.62 0-23.5-19.119-42.62-42.62-42.62-4.326 0-8.568.648-12.62 1.905v-131.332c4.052 1.256 8.294 1.905 12.62 1.905 23.5 0 42.62-19.119 42.62-42.62 0-4.326-.648-8.568-1.905-12.62h273.744c4.142 0 7.5-3.358 7.5-7.5s-3.358-7.5-7.5-7.5h-304.578c-20.678.001-37.5 16.823-37.5 37.501v193c0 20.678 16.822 37.5 37.5 37.5h44.01v72.43h-10.67c-6.014 0-11.384 3.59-13.682 9.146-2.297 5.554-1.031 11.887 3.218 16.126l52.659 52.67c2.884 2.874 6.671 4.312 10.461 4.312 3.792 0 7.586-1.44 10.477-4.321l52.644-52.654c4.256-4.246 5.521-10.579 3.225-16.133-2.298-5.556-7.668-9.146-13.682-9.146h-10.67v-72.43h39.79v64.545c0 4.142 3.358 7.5 7.5 7.5s7.5-3.358 7.5-7.5v-64.545h71.44v143.05c0 9.187 7.474 16.66 16.66 16.66h13.6c1.446-.026 2.234 1.796 1.167 2.827l-65.98 65.98c-.644.644-1.69.644-2.334 0l-65.98-65.98c-1.061-1.035-.298-2.843 1.167-2.827h13.6c9.186 0 16.66-7.474 16.66-16.66v-43.504c0-4.142-3.358-7.5-7.5-7.5s-7.5 3.358-7.5 7.5v43.504c0 .916-.745 1.66-1.66 1.66h-13.6c-14.891-.019-22.141 18.07-11.773 28.433l65.98 65.98c3.246 3.246 7.51 4.869 11.773 4.869s8.527-1.623 11.773-4.869l65.98-65.98c10.492-10.308 2.391-28.576-11.773-28.433h-13.6c-.915 0-1.66-.745-1.66-1.66v-143.05h39.79v72.43h-10.67c-6.014 0-11.384 3.59-13.682 9.146-2.297 5.554-1.031 11.887 3.218 16.126l52.659 52.67c2.884 2.874 6.671 4.312 10.461 4.312 3.792 0 7.586-1.44 10.477-4.321l52.644-52.654c4.256-4.246 5.521-10.579 3.225-16.133-2.298-5.556-7.668-9.146-13.682-9.146h-10.67v-72.43h44.01c20.678 0 37.5-16.822 37.5-37.5v-193c0-20.678-16.822-37.5-37.5-37.5zm-459.5 37.5c0-12.407 10.093-22.5 22.5-22.5h14.672c2.007 3.887 3.068 8.183 3.068 12.62 0 15.229-12.39 27.62-27.62 27.62-4.437 0-8.733-1.061-12.62-3.067zm37.172 215.5h-14.672c-12.407 0-22.5-10.093-22.5-22.5v-14.672c3.887-2.007 8.183-3.067 12.62-3.067 15.229 0 27.62 12.39 27.62 27.62-.001 4.436-1.062 8.732-3.068 12.619zm123.51 102.432-52.182 52.191-52.181-52.193h10.381c8.166 0 14.81-6.644 14.81-14.81v-72.62h53.98v72.62c0 8.167 6.644 14.81 14.81 14.81zm265 0-52.182 52.191-52.181-52.193h10.381c8.166 0 14.81-6.644 14.81-14.81v-72.62h53.98v72.62c0 8.167 6.644 14.81 14.81 14.81zm56.318-124.932c0 12.407-10.093 22.5-22.5 22.5h-14.672c-2.007-3.887-3.068-8.183-3.068-12.62 0-15.229 12.39-27.62 27.62-27.62 4.437 0 8.733 1.061 12.62 3.067zm0-178.328c-3.887 2.007-8.183 3.067-12.62 3.067-15.229 0-27.62-12.39-27.62-27.62 0-4.437 1.061-8.733 3.068-12.62h14.672c12.407 0 22.5 10.093 22.5 22.5z"/></g></svg>