<svg id="Capa_1" enable-background="new 0 0 512 512" height="512" viewBox="0 0 512 512" width="512" xmlns="http://www.w3.org/2000/svg"><g><path d="m145.34 356.771c0 4.142 3.358 7.5 7.5 7.5s7.5-3.358 7.5-7.5v-126.224c0-16.187-13.169-29.356-29.356-29.356h-32.464c-6.006 0-10.965-3.313-13.263-8.862-2.299-5.549-1.135-11.398 3.112-15.645l157.48-157.479c2.711-2.712 6.316-4.205 10.15-4.205s7.44 1.493 10.151 4.205l68.677 68.677c2.93 2.929 7.678 2.929 10.607 0s2.929-7.678 0-10.606l-68.676-68.678c-5.545-5.544-12.917-8.598-20.759-8.598-7.841 0-15.213 3.054-20.757 8.598l-157.48 157.48c-8.555 8.555-10.994 20.814-6.364 31.992s15.022 18.122 27.122 18.122h32.464c7.916 0 14.356 6.44 14.356 14.356zm186.846 55.229c0-4.142-3.357-7.5-7.5-7.5h-137.372c-4.142 0-7.5 3.358-7.5 7.5s3.358 7.5 7.5 7.5h137.371c4.143 0 7.501-3.358 7.501-7.5zm-114.872 22.5c-4.142 0-7.5 3.358-7.5 7.5s3.358 7.5 7.5 7.5h77.371c4.143 0 7.5-3.358 7.5-7.5s-3.357-7.5-7.5-7.5zm216.924-268.422-63.994-63.994c-2.93-2.929-7.678-2.929-10.607 0s-2.929 7.678 0 10.606l63.994 63.994c4.247 4.247 5.411 10.096 3.112 15.645s-7.257 8.862-13.264 8.862h-32.464c-16.187 0-29.355 13.169-29.355 29.356v253.953c0 6.893-5.607 12.5-12.5 12.5h-166.32c-6.893 0-12.5-5.607-12.5-12.5v-92.729c0-4.142-3.358-7.5-7.5-7.5s-7.5 3.358-7.5 7.5v92.729c0 15.164 12.336 27.5 27.5 27.5h166.32c15.163 0 27.5-12.336 27.5-27.5v-253.953c0-7.916 6.439-14.356 14.355-14.356h32.464c12.1 0 22.491-6.944 27.122-18.122 4.63-11.178 2.192-23.436-6.363-31.991zm-178.238-73.646c-42.009 0-76.186 34.176-76.186 76.185s34.177 76.186 76.186 76.186 76.186-34.177 76.186-76.186-34.177-76.185-76.186-76.185zm0 137.37c-33.738 0-61.186-27.448-61.186-61.186 0-33.737 27.448-61.185 61.186-61.185s61.186 27.448 61.186 61.185c0 33.738-27.448 61.186-61.186 61.186zm16.21-86.105c4.143 0 7.5-3.358 7.5-7.5s-3.357-7.5-7.5-7.5h-8.71v-3.265c0-4.142-3.357-7.5-7.5-7.5-4.142 0-7.5 3.358-7.5 7.5v3.265h-1.905c-7.888 0-14.305 6.417-14.305 14.305v18.81c0 7.888 6.417 14.305 14.305 14.305h18.115v17.42h-24.92c-4.142 0-7.5 3.358-7.5 7.5s3.358 7.5 7.5 7.5h8.71v3.265c0 4.142 3.358 7.5 7.5 7.5 4.143 0 7.5-3.358 7.5-7.5v-3.265h1.904c7.888 0 14.306-6.417 14.306-14.305v-18.81c0-7.888-6.418-14.305-14.306-14.305h-18.114v-17.419h24.92zm59.976 163.958c0-6.341-5.159-11.5-11.5-11.5h-129.372c-6.341 0-11.5 5.159-11.5 11.5v30.689c0 6.341 5.159 11.5 11.5 11.5h129.371c6.341 0 11.5-5.159 11.5-11.5v-30.689zm-15 27.19h-122.372v-23.689h122.371v23.689z"/></g></svg>