<svg id="Capa_1" enable-background="new 0 0 512 512" height="512" viewBox="0 0 512 512" width="512" xmlns="http://www.w3.org/2000/svg"><g><path d="m440.602 313.931c-4.631-11.178-15.022-18.122-27.122-18.122h-32.464c-7.916 0-14.355-6.44-14.355-14.356v-253.953c0-15.164-12.337-27.5-27.5-27.5h-166.321c-15.163 0-27.5 12.336-27.5 27.5v28.242c0 4.142 3.357 7.5 7.5 7.5s7.5-3.358 7.5-7.5v-28.242c0-6.893 5.607-12.5 12.5-12.5h166.32c6.893 0 12.5 5.607 12.5 12.5v253.953c0 16.187 13.169 29.356 29.355 29.356h32.464c6.007 0 10.965 3.313 13.264 8.862s1.135 11.398-3.112 15.645l-157.481 157.479c-2.711 2.712-6.316 4.205-10.15 4.205s-7.439-1.493-10.15-4.205l-157.481-157.479c-4.247-4.247-5.411-10.096-3.112-15.645s7.257-8.862 13.264-8.862h32.464c16.187 0 29.355-13.169 29.355-29.356v-190.711c0-4.142-3.357-7.5-7.5-7.5s-7.5 3.358-7.5 7.5v190.711c0 7.916-6.439 14.356-14.355 14.356h-32.464c-12.1 0-22.491 6.944-27.122 18.122-4.63 11.178-2.191 23.437 6.363 31.992l157.48 157.479c5.545 5.544 12.917 8.598 20.758 8.598s15.213-3.054 20.758-8.598l157.48-157.479c8.555-8.556 10.993-20.814 6.364-31.992zm-260.788-213.931c0 4.142 3.357 7.5 7.5 7.5h137.371c4.143 0 7.5-3.358 7.5-7.5s-3.357-7.5-7.5-7.5h-137.371c-4.142 0-7.5 3.358-7.5 7.5zm114.872-22.5c4.143 0 7.5-3.358 7.5-7.5s-3.357-7.5-7.5-7.5h-77.371c-4.143 0-7.5 3.358-7.5 7.5s3.357 7.5 7.5 7.5zm-38.686 342.068c42.009 0 76.186-34.176 76.186-76.185s-34.177-76.185-76.186-76.185-76.186 34.177-76.186 76.186 34.177 76.184 76.186 76.184zm0-137.37c33.738 0 61.186 27.448 61.186 61.186 0 33.737-27.447 61.185-61.186 61.185s-61.186-27.448-61.186-61.185c0-33.738 27.448-61.186 61.186-61.186zm-76.186-77.853c0 6.341 5.159 11.5 11.5 11.5h51.528c4.143 0 7.5-3.358 7.5-7.5s-3.357-7.5-7.5-7.5h-48.028v-23.689h122.371v23.689h-39.343c-4.143 0-7.5 3.358-7.5 7.5s3.357 7.5 7.5 7.5h42.843c6.341 0 11.5-5.159 11.5-11.5v-30.689c0-6.341-5.159-11.5-11.5-11.5h-129.371c-6.341 0-11.5 5.159-11.5 11.5zm59.976 163.958c-4.143 0-7.5 3.358-7.5 7.5s3.357 7.5 7.5 7.5h8.71v3.265c0 4.142 3.357 7.5 7.5 7.5s7.5-3.358 7.5-7.5v-3.265h1.904c7.888 0 14.306-6.417 14.306-14.305v-18.81c0-7.888-6.418-14.305-14.306-14.305h-18.114v-17.42h24.92c4.143 0 7.5-3.358 7.5-7.5s-3.357-7.5-7.5-7.5h-8.71v-3.265c0-4.142-3.357-7.5-7.5-7.5s-7.5 3.358-7.5 7.5v3.265h-1.904c-7.888 0-14.306 6.417-14.306 14.305v18.81c0 7.888 6.418 14.305 14.306 14.305h18.114v17.419h-24.92z"/></g></svg>