<svg id="Capa_1" enable-background="new 0 0 511.899 511.899" height="512" viewBox="0 0 511.899 511.899" width="512" xmlns="http://www.w3.org/2000/svg"><g><path d="m496.088 419.782h-12.452c-.487 0-.884-.396-.884-.884v-41.532c0-4.142-3.357-7.5-7.5-7.5s-7.5 3.358-7.5 7.5v41.532c0 8.758 7.125 15.884 15.884 15.884h12.452c.636-.071 1.156 1.078.624 1.508l-60.405 60.406c-.342.343-.906.343-1.248 0l-60.405-60.405c-.525-.431-.036-1.572.624-1.508h12.452c8.759 0 15.884-7.125 15.884-15.884v-166.08c0-1.973 1.605-3.578 3.578-3.578h56.982c1.973 0 3.578 1.605 3.578 3.578v89.547c0 4.142 3.357 7.5 7.5 7.5s7.5-3.358 7.5-7.5v-89.547c0-10.244-8.334-18.578-18.578-18.578h-42.128c-5.046-38.906-23.582-74.742-52.677-101.524-30.981-28.518-71.247-44.223-113.381-44.223-14.613 0-29.119 1.885-43.114 5.604-4.003 1.063-6.387 5.171-5.322 9.174 1.063 4.004 5.175 6.386 9.174 5.323 12.739-3.385 25.949-5.101 39.263-5.101 38.359 0 75.018 14.298 103.222 40.259 26.012 23.945 42.754 55.831 47.699 90.502-10.113.153-18.296 8.415-18.296 18.564v78.348c-27.098 47.689-77.731 77.247-132.625 77.247-38.359 0-75.018-14.298-103.222-40.259-26.012-23.945-42.753-55.831-47.699-90.502 10.113-.153 18.296-8.415 18.296-18.564v-78.343c14.594-25.692 36.099-46.463 62.331-60.117 3.674-1.913 5.103-6.441 3.189-10.116-1.912-3.674-6.442-5.102-10.115-3.19-21.779 11.337-40.592 27.142-55.405 46.366v-60.68c0-.487.396-.884.884-.884h12.452c13.654.132 21.085-17.459 11.231-27.114l-60.405-60.404c-6.084-6.144-16.383-6.14-22.463 0l-60.405 60.404c-9.765 9.482-3.064 27.267 11.231 27.114h12.452c.487 0 .884.396.884.884v166.079c0 10.244 8.334 18.578 18.578 18.578h42.128c5.046 38.906 23.582 74.742 52.677 101.524 30.981 28.518 71.247 44.223 113.381 44.223 52.361 0 101.187-24.488 132.625-65.232v60.717c0 .487-.396.884-.884.884h-12.452c-14.315-.168-21.088 17.432-11.231 27.114l60.405 60.405c6.055 6.116 16.384 6.145 22.463 0l60.405-60.405c9.918-9.737 2.369-27.252-11.232-27.114zm-448.285-157.115c-1.973 0-3.578-1.605-3.578-3.578v-166.08c0-8.758-7.125-15.884-15.884-15.884h-12.452c-.667.065-1.139-1.085-.624-1.508l60.405-60.405c.339-.343.91-.343 1.248 0l60.405 60.405c.517.424.04 1.572-.624 1.508h-12.452c-8.759 0-15.884 7.125-15.884 15.884v166.079c0 1.973-1.605 3.578-3.578 3.578h-56.982zm230.088 61.288h-59.653c-4.143 0-7.5 3.358-7.5 7.5s3.357 7.5 7.5 7.5h30.251v17.571c0 4.142 3.357 7.5 7.5 7.5s7.5-3.358 7.5-7.5v-17.571h14.402c12.874 0 23.349-10.474 23.349-23.348v-43.805c0-12.874-10.475-23.348-23.349-23.348h-43.805c-4.604 0-8.349-3.745-8.349-8.348v-43.805c0-4.603 3.745-8.348 8.349-8.348h59.653c4.143 0 7.5-3.358 7.5-7.5s-3.357-7.5-7.5-7.5h-30.251v-17.571c0-4.142-3.357-7.5-7.5-7.5s-7.5 3.358-7.5 7.5v17.571h-14.402c-12.874 0-23.349 10.474-23.349 23.348v43.805c0 12.874 10.475 23.348 23.349 23.348h43.805c4.604 0 8.349 3.745 8.349 8.348v43.805c0 4.603-3.746 8.348-8.349 8.348z"/></g></svg>