<svg id="Capa_1" enable-background="new 0 0 512 512" height="512" viewBox="0 0 512 512" width="512" xmlns="http://www.w3.org/2000/svg"><g><path d="m167.853 157.394c3.543-2.146 4.677-6.757 2.531-10.301-6.115-10.1-9.347-21.716-9.347-33.593 0-35.82 29.142-64.963 64.963-64.963s64.963 29.143 64.963 64.963-29.142 64.963-64.963 64.963c-11.84 0-23.425-3.213-33.502-9.292-3.545-2.14-8.157-.998-10.296 2.548-2.14 3.547-.999 8.156 2.548 10.296 12.415 7.489 26.679 11.448 41.25 11.448 44.092 0 79.963-35.871 79.963-79.963s-35.871-79.963-79.963-79.963-79.963 35.871-79.963 79.963c0 14.616 3.982 28.919 11.516 41.362 2.145 3.543 6.756 4.677 10.3 2.532zm231.647-7.363c12.407 0 22.5-10.094 22.5-22.5s-10.093-22.5-22.5-22.5-22.5 10.094-22.5 22.5 10.093 22.5 22.5 22.5zm0-30c4.136 0 7.5 3.364 7.5 7.5s-3.364 7.5-7.5 7.5-7.5-3.364-7.5-7.5 3.364-7.5 7.5-7.5zm-347 286.969c-12.407 0-22.5 10.094-22.5 22.5s10.093 22.5 22.5 22.5 22.5-10.094 22.5-22.5-10.093-22.5-22.5-22.5zm0 30c-4.136 0-7.5-3.364-7.5-7.5s3.364-7.5 7.5-7.5 7.5 3.364 7.5 7.5-3.364 7.5-7.5 7.5zm348.038-102.378c-2.523-2.517-7.404-3.29-10.614.009l-32.075 32.075c-2.929 2.93-2.929 7.678 0 10.607 2.929 2.928 7.678 2.929 10.606-.001l19.28-19.28v92.511c0 4.143 3.358 7.5 7.5 7.5s7.5-3.357 7.5-7.5v-92.511l19.28 19.281c2.929 2.928 7.678 2.929 10.606 0 2.929-2.93 2.929-7.678 0-10.607zm51.462-41.393v-180.729c0-20.678-16.822-37.5-37.5-37.5h-81.7c-16.186-44.875-59.067-75-106.8-75-47.73 0-90.61 30.126-106.8 75h-81.7c-20.678 0-37.5 16.822-37.5 37.5v332c0 20.678 16.822 37.5 37.5 37.5h279.681c20.698 18.639 48.073 30 78.053 30 64.385 0 116.766-52.381 116.766-116.766 0-43.793-24.238-82.026-60-102.005zm-414.5 173.771c-12.407 0-22.5-10.094-22.5-22.5v-332c0-12.406 10.093-22.5 22.5-22.5h82.06c6.108 0 11.599-3.886 13.662-9.664 13.98-39.079 51.264-65.336 92.778-65.336s78.798 26.257 92.776 65.331c2.065 5.783 7.556 9.669 13.664 9.669h82.06c12.407 0 22.5 10.094 22.5 22.5v173.697c-12.975-4.987-27.055-7.729-41.766-7.729-64.385 0-116.766 52.381-116.766 116.766 0 3.971.201 7.896.59 11.766h-38.058c-4.142 0-7.5 3.357-7.5 7.5s3.358 7.5 7.5 7.5h40.569c1.21 5.139 2.763 10.146 4.629 15h-128.348v-15h48.15c4.142 0 7.5-3.357 7.5-7.5s-3.358-7.5-7.5-7.5h-48.65c-7.995 0-14.5 6.505-14.5 14.5v16c0 7.995 6.505 14.5 14.5 14.5h135.878c2.94 5.262 6.271 10.277 9.962 15zm357.734 30c-56.114 0-101.766-45.651-101.766-101.766s45.652-101.766 101.766-101.766 101.766 45.652 101.766 101.766-45.652 101.766-101.766 101.766zm-143.192-422.256c-3.438-2.309-8.098-1.395-10.408 2.043l-10.024 14.921c-1.794-.462-3.674-.708-5.61-.708-12.407 0-22.5 10.094-22.5 22.5s10.093 22.5 22.5 22.5 22.5-10.094 22.5-22.5c0-5.022-1.655-9.665-4.447-13.414l10.033-14.934c2.31-3.438 1.394-8.098-2.044-10.408zm-26.042 46.256c-4.136 0-7.5-3.364-7.5-7.5s3.364-7.5 7.5-7.5 7.5 3.364 7.5 7.5-3.364 7.5-7.5 7.5zm-173.5-15.969c-12.407 0-22.5 10.094-22.5 22.5s10.093 22.5 22.5 22.5 22.5-10.094 22.5-22.5-10.093-22.5-22.5-22.5zm0 30c-4.136 0-7.5-3.364-7.5-7.5s3.364-7.5 7.5-7.5 7.5 3.364 7.5 7.5-3.364 7.5-7.5 7.5z"/></g></svg>