<svg id="Capa_1" enable-background="new 0 0 512 512" height="512" viewBox="0 0 512 512" width="512" xmlns="http://www.w3.org/2000/svg"><g><path d="m437.75 71.066h-45.373c-4.143 0-7.5 3.357-7.5 7.5s3.357 7.5 7.5 7.5h27.266l-65.414 65.414c-2.929 2.93-2.929 7.678 0 10.607 2.929 2.93 7.677 2.928 10.607 0l65.414-65.414v27.265c0 4.143 3.357 7.5 7.5 7.5s7.5-3.357 7.5-7.5v-45.367c-.191-3.76-3.07-7.617-7.5-7.505zm-332.5 82.434h-6v-14.93c0-4.143-3.358-7.5-7.5-7.5s-7.5 3.357-7.5 7.5v14.93h-6c-6.341 0-11.5 5.159-11.5 11.5v64c0 6.341 5.159 11.5 11.5 11.5h6v14.93c0 4.143 3.358 7.5 7.5 7.5s7.5-3.357 7.5-7.5v-14.93h6c6.341 0 11.5-5.159 11.5-11.5v-64c0-6.341-5.159-11.5-11.5-11.5zm-3.5 72h-20v-57h20zm372.75-210.5h-437c-20.678 0-37.5 16.822-37.5 37.5v298.309c0 20.678 16.822 37.5 37.5 37.5h170.7v47.234h-21.026c-13.765 0-24.963 11.198-24.963 24.963v21.994c0 7.995 6.505 14.5 14.5 14.5h158.578c7.995 0 14.5-6.505 14.5-14.5v-21.994c0-13.765-11.198-24.963-24.963-24.963h-21.026v-47.234h68.56c4.143 0 7.5-3.357 7.5-7.5s-3.357-7.5-7.5-7.5h-334.86c-12.407 0-22.5-10.094-22.5-22.5v-40.883h482v40.883c0 12.406-10.094 22.5-22.5 22.5h-67.141c-4.143 0-7.5 3.357-7.5 7.5s3.357 7.5 7.5 7.5h67.141c20.678 0 37.5-16.822 37.5-37.5v-298.309c0-20.678-16.822-37.5-37.5-37.5zm-149.674 435.543c5.493 0 9.963 4.47 9.963 9.963v21.494h-157.578v-21.494c0-5.493 4.469-9.963 9.963-9.963zm-101.626-62.234h65.6v47.234h-65.6zm273.8-93.383h-482v-242.426c0-12.406 10.093-22.5 22.5-22.5h437c12.406 0 22.5 10.094 22.5 22.5zm-59.25-76.992h-118.562c-4.143 0-7.5 3.357-7.5 7.5s3.357 7.5 7.5 7.5h118.562c4.143 0 7.5-3.357 7.5-7.5s-3.357-7.5-7.5-7.5zm-257.5-94.434h-6v-14.93c0-4.143-3.358-7.5-7.5-7.5s-7.5 3.357-7.5 7.5v14.93h-6c-6.341 0-11.5 5.159-11.5 11.5v12.526c0 4.143 3.358 7.5 7.5 7.5s7.5-3.357 7.5-7.5v-9.026h20v57h-20v-12.974c0-4.143-3.358-7.5-7.5-7.5s-7.5 3.357-7.5 7.5v16.474c0 6.341 5.159 11.5 11.5 11.5h6v14.93c0 4.143 3.358 7.5 7.5 7.5s7.5-3.357 7.5-7.5v-14.93h6c6.341 0 11.5-5.159 11.5-11.5v-64c0-6.341-5.159-11.5-11.5-11.5zm75-30h-6v-14.93c0-4.143-3.358-7.5-7.5-7.5s-7.5 3.357-7.5 7.5v14.93h-6c-6.341 0-11.5 5.159-11.5 11.5v64c0 6.341 5.159 11.5 11.5 11.5h6v14.93c0 4.143 3.358 7.5 7.5 7.5s7.5-3.357 7.5-7.5v-14.93h6c6.341 0 11.5-5.159 11.5-11.5v-64c0-6.341-5.159-11.5-11.5-11.5zm-3.5 72h-20v-57h20zm156 82.434h-88.562c-4.143 0-7.5 3.357-7.5 7.5s3.357 7.5 7.5 7.5h88.562c4.143 0 7.5-3.357 7.5-7.5s-3.357-7.5-7.5-7.5zm30-60h-118.562c-4.143 0-7.5 3.357-7.5 7.5s3.357 7.5 7.5 7.5h118.562c4.143 0 7.5-3.357 7.5-7.5s-3.357-7.5-7.5-7.5z"/></g></svg>