<svg id="Capa_1" enable-background="new 0 0 512 512" height="512" viewBox="0 0 512 512" width="512" xmlns="http://www.w3.org/2000/svg"><g><path d="m474.5 15h-437c-20.678 0-37.5 16.822-37.5 37.5v73.5c0 4.143 3.357 7.5 7.5 7.5s7.5-3.357 7.5-7.5v-73.5c0-12.406 10.094-22.5 22.5-22.5h437c12.406 0 22.5 10.094 22.5 22.5v242.426h-68.131c-4.143 0-7.5 3.357-7.5 7.5s3.357 7.5 7.5 7.5h68.131v40.883c0 12.406-10.094 22.5-22.5 22.5h-437c-12.406 0-22.5-10.094-22.5-22.5v-40.883h378.869c4.143 0 7.5-3.357 7.5-7.5s-3.357-7.5-7.5-7.5h-378.869v-133.926c0-4.143-3.357-7.5-7.5-7.5s-7.5 3.357-7.5 7.5v189.809c0 20.678 16.822 37.5 37.5 37.5h170.7v47.234h-21.026c-13.765 0-24.963 11.198-24.963 24.963v21.994c0 7.995 6.505 14.5 14.5 14.5h158.578c7.995 0 14.5-6.505 14.5-14.5v-21.994c0-13.765-11.198-24.963-24.963-24.963h-21.026v-47.234h170.7c20.678 0 37.5-16.822 37.5-37.5v-298.309c0-20.678-16.822-37.5-37.5-37.5zm-251.3 373.309h65.6v47.234h-65.6zm101.626 62.234c5.493 0 9.963 4.47 9.963 9.963v21.494h-157.578v-21.494c0-5.493 4.47-9.963 9.963-9.963zm-5.638-187.609h88.562c4.143 0 7.5-3.357 7.5-7.5s-3.357-7.5-7.5-7.5h-88.562c-4.143 0-7.5 3.357-7.5 7.5s3.357 7.5 7.5 7.5zm0-30h118.562c4.143 0 7.5-3.357 7.5-7.5s-3.357-7.5-7.5-7.5h-118.562c-4.143 0-7.5 3.357-7.5 7.5s3.357 7.5 7.5 7.5zm-152.438-131.864c-4.143 0-7.5 3.357-7.5 7.5v14.93h-6c-6.341 0-11.5 5.159-11.5 11.5v64c0 6.341 5.159 11.5 11.5 11.5h6v14.93c0 4.143 3.357 7.5 7.5 7.5s7.5-3.357 7.5-7.5v-14.93h6c6.341 0 11.5-5.159 11.5-11.5v-64c0-6.341-5.159-11.5-11.5-11.5h-6v-14.93c0-4.142-3.357-7.5-7.5-7.5zm10 37.43v57h-20v-57zm182.782-34.589c-4.143 0-7.5 3.357-7.5 7.5v45.368c-.034 3.785 3.264 7.636 7.5 7.505h45.373c4.143 0 7.5-3.357 7.5-7.5s-3.357-7.5-7.5-7.5h-27.265l65.414-65.414c2.929-2.93 2.929-7.678 0-10.607-2.93-2.928-7.678-2.928-10.607 0l-65.414 65.414v-27.266c-.001-4.142-3.358-7.5-7.501-7.5zm-117.782 27.159c-4.143 0-7.5 3.357-7.5 7.5v14.93h-6c-6.341 0-11.5 5.159-11.5 11.5v64c0 6.341 5.159 11.5 11.5 11.5h6v14.93c0 4.143 3.357 7.5 7.5 7.5s7.5-3.357 7.5-7.5v-14.93h6c6.341 0 11.5-5.159 11.5-11.5v-64c0-6.341-5.159-11.5-11.5-11.5h-6v-14.93c0-4.142-3.357-7.5-7.5-7.5zm10 37.43v57h-20v-57zm-160-97.43c-4.143 0-7.5 3.357-7.5 7.5v14.93h-6c-6.341 0-11.5 5.159-11.5 11.5v64c0 6.341 5.159 11.5 11.5 11.5h6v14.93c0 4.143 3.357 7.5 7.5 7.5s7.5-3.357 7.5-7.5v-14.93h6c6.341 0 11.5-5.159 11.5-11.5v-64c0-6.341-5.159-11.5-11.5-11.5h-6v-14.93c0-4.142-3.357-7.5-7.5-7.5zm10 37.43v57h-20v-57zm209.938 86.934c0 4.143 3.357 7.5 7.5 7.5h118.562c4.143 0 7.5-3.357 7.5-7.5s-3.357-7.5-7.5-7.5h-118.562c-4.143 0-7.5 3.357-7.5 7.5z"/></g></svg>