<svg id="Capa_1" enable-background="new 0 0 512 512" height="512" viewBox="0 0 512 512" width="512" xmlns="http://www.w3.org/2000/svg"><g><path d="m504.5 497h-22.5v-320.435c0-9.649-7.851-17.5-17.5-17.5h-80.326c-9.649 0-17.5 7.851-17.5 17.5v320.435h-45v-275.435c0-9.649-7.851-17.5-17.5-17.5h-80.327c-9.649 0-17.5 7.851-17.5 17.5v152.858c0 4.143 3.357 7.5 7.5 7.5s7.5-3.357 7.5-7.5v-152.858c0-1.379 1.121-2.5 2.5-2.5h80.327c1.379 0 2.5 1.121 2.5 2.5v275.435h-85.327v-87.576c0-4.143-3.357-7.5-7.5-7.5s-7.5 3.357-7.5 7.5v87.576h-45v-155.435c0-9.649-7.851-17.5-17.5-17.5h-80.326c-9.649 0-17.5 7.851-17.5 17.5v155.435h-38.521c-4.143 0-7.5 3.357-7.5 7.5s3.357 7.5 7.5 7.5h497c4.143 0 7.5-3.357 7.5-7.5s-3.357-7.5-7.5-7.5zm-358.153 0h-85.326v-155.435c0-1.379 1.121-2.5 2.5-2.5h80.326c1.379 0 2.5 1.121 2.5 2.5zm320.653 0h-85.326v-320.435c0-1.379 1.121-2.5 2.5-2.5h80.326c1.379 0 2.5 1.121 2.5 2.5zm-37.355-279.667c-2.397-2.501-7.505-3.279-10.612-.006l-21.986 21.986c-2.929 2.93-2.929 7.678 0 10.607 2.929 2.93 7.677 2.928 10.607 0l9.183-9.183v207.697c0 4.143 3.357 7.5 7.5 7.5s7.5-3.357 7.5-7.5v-207.696l9.182 9.182c2.929 2.929 7.678 2.93 10.606.001 2.93-2.929 2.93-7.678.001-10.606zm-48.471-88.268h26.326c4.143 0 7.5-3.357 7.5-7.5s-3.357-7.5-7.5-7.5h-25.826v-40.447c13.302 5.146 25.926 7.031 35.163 7.631v4.708c0 4.143 3.357 7.5 7.5 7.5s7.5-3.357 7.5-7.5v-4.707c9.238-.6 21.861-2.485 35.163-7.631v40.447h-24.5c-4.143 0-7.5 3.357-7.5 7.5s3.357 7.5 7.5 7.5h25c7.995 0 14.5-6.505 14.5-14.5v-72.004c0-7.995-6.505-14.5-14.5-14.5h-7.04v-13.562c0-7.995-6.505-14.5-14.5-14.5h-43.25c-7.995 0-14.5 6.505-14.5 14.5v13.562h-7.036c-7.995 0-14.5 6.505-14.5 14.5v72.004c0 7.995 6.505 14.499 14.5 14.499zm22.036-114.065h42.25v13.062h-42.25zm-21.536 28.062h85.326v14.268c-17.1 7.914-33.839 9.171-42.663 9.171s-25.563-1.257-42.663-9.171z"/></g></svg>