<svg id="Capa_1" enable-background="new 0 0 512 512" height="512" viewBox="0 0 512 512" width="512" xmlns="http://www.w3.org/2000/svg"><g><path d="m504.5 469.967h-22.5v-425.434c0-9.649-7.851-17.5-17.5-17.5h-80.327c-9.649 0-17.5 7.851-17.5 17.5v70.854c0 4.143 3.358 7.5 7.5 7.5s7.5-3.357 7.5-7.5v-70.854c0-1.379 1.122-2.5 2.5-2.5h80.327c1.378 0 2.5 1.121 2.5 2.5v425.435h-85.327v-319.58c0-4.143-3.358-7.5-7.5-7.5s-7.5 3.357-7.5 7.5v319.58h-45v-305.435c0-9.649-7.851-17.5-17.5-17.5h-80.327c-9.649 0-17.5 7.851-17.5 17.5v305.435h-45v-155.435c0-9.649-7.851-17.5-17.5-17.5h-22.955c-4.142 0-7.5 3.357-7.5 7.5s3.358 7.5 7.5 7.5h22.955c1.378 0 2.5 1.121 2.5 2.5v155.435h-85.326v-155.435c0-1.379 1.122-2.5 2.5-2.5h22.372c4.142 0 7.5-3.357 7.5-7.5s-3.358-7.5-7.5-7.5h-22.372c-9.649 0-17.5 7.851-17.5 17.5v155.435h-38.52c-4.142 0-7.5 3.357-7.5 7.5s3.358 7.5 7.5 7.5h497c4.142 0 7.5-3.357 7.5-7.5s-3.358-7.501-7.5-7.501zm-197.827 0h-85.327v-305.434c0-1.379 1.122-2.5 2.5-2.5h80.327c1.378 0 2.5 1.121 2.5 2.5zm-202.989-124.369c-4.142 0-7.5 3.357-7.5 7.5v57.697l-9.184-9.183c-2.929-2.928-7.678-2.928-10.606 0-2.929 2.93-2.929 7.678 0 10.607l21.986 21.986c2.484 2.534 7.456 3.255 10.606 0l21.986-21.986c2.929-2.93 2.929-7.678 0-10.607-2.929-2.928-7.678-2.928-10.606 0l-9.183 9.183v-57.697c.001-4.142-3.357-7.5-7.499-7.5zm-43.164-78.565h86.327c7.995 0 14.5-6.505 14.5-14.5v-72.004c0-7.995-6.505-14.5-14.5-14.5h-7.037v-13.562c0-7.995-6.505-14.5-14.5-14.5h-43.25c-7.995 0-14.5 6.505-14.5 14.5v13.562h-7.04c-7.995 0-14.5 6.505-14.5 14.5v72.004c0 7.995 6.505 14.5 14.5 14.5zm22.04-114.066h42.25v13.062h-42.25zm-21.54 28.062h85.327v14.268c-17.1 7.914-33.839 9.171-42.663 9.171s-25.564-1.257-42.664-9.171zm0 30.556c13.303 5.146 25.926 7.031 35.164 7.632v4.707c0 4.143 3.358 7.5 7.5 7.5s7.5-3.357 7.5-7.5v-4.708c9.237-.6 21.861-2.485 35.163-7.631v40.447h-85.327z"/></g></svg>