<svg id="Capa_1" enable-background="new 0 0 512 512" height="512" viewBox="0 0 512 512" width="512" xmlns="http://www.w3.org/2000/svg"><g><path d="m322 58h93c7.995 0 14.5-6.505 14.5-14.5v-29c0-7.995-6.505-14.5-14.5-14.5h-93c-7.995 0-14.5 6.505-14.5 14.5v29c0 7.995 6.505 14.5 14.5 14.5zm.5-43h92v28h-92zm81.733 253.358c2.632 3.198 7.359 3.658 10.557 1.023l30.17-24.838 50.195 76.654c2.288 3.496 6.958 4.409 10.383 2.166 3.465-2.27 4.435-6.918 2.166-10.383l-50.5-77.121c-2.253-3.442-5.879-5.771-9.946-6.392-4.071-.621-8.223.524-11.4 3.141l-30.601 25.192c-3.198 2.635-3.656 7.361-1.024 10.558zm-89.233-175.252h107c4.142 0 7.5-3.357 7.5-7.5s-3.358-7.5-7.5-7.5h-107c-4.142 0-7.5 3.357-7.5 7.5s3.358 7.5 7.5 7.5zm-230.027 164.5 34.918-22.445 12.39 35.891c2.696 7.959 12.157 12.015 19.791 8.431l65.386-30.228 35.909 126.711c1.339 4.725 4.937 8.421 9.625 9.886 4.643 1.451 9.738.488 13.542-2.646l57.821-47.603 43.697 75.922c3.029 5.272 9.144 8.082 15.061 7.051l97.371-17c4.08-.713 6.811-4.599 6.098-8.679-.712-4.079-4.599-6.809-8.678-6.099l-97.026 16.94-44.779-77.803 41.583-34.234c3.198-2.633 3.656-7.359 1.023-10.557-2.632-3.198-7.358-3.658-10.557-1.023l-39.636 32.631-55.203-95.916c-3.772-6.551-11.791-9.101-18.651-5.927l-37.553 17.36-13.81-48.73c-2.55-9.244-13.801-13.463-21.792-8.242l-63.66 40.921-27.421-79.433c-1.352-3.916-5.62-5.994-9.537-4.643-3.916 1.352-5.994 5.622-4.642 9.537l28.613 82.887-37.991 24.421c-3.484 2.239-4.493 6.88-2.253 10.364s6.875 4.495 10.361 2.255zm185.561-32.888 56.233 97.703-59.178 48.719-36.347-128.257zm-71.491-40.437 14.272 50.363-67.038 30.991-13.401-38.821zm-42.043-126.281h29.5c4.142 0 7.5-3.357 7.5-7.5s-3.358-7.5-7.5-7.5h-29v-28h92v28h-28c-4.142 0-7.5 3.357-7.5 7.5s3.358 7.5 7.5 7.5h28.5c7.995 0 14.5-6.505 14.5-14.5v-29c0-7.995-6.505-14.5-14.5-14.5h-93c-7.995 0-14.5 6.505-14.5 14.5v29c0 7.995 6.505 14.5 14.5 14.5zm347.5 439h-61v-18.114c0-4.143-3.358-7.5-7.5-7.5s-7.5 3.357-7.5 7.5v18.114h-75v-18.114c0-4.143-3.358-7.5-7.5-7.5s-7.5 3.357-7.5 7.5v18.114h-75v-18.114c0-4.143-3.358-7.5-7.5-7.5s-7.5 3.357-7.5 7.5v18.114h-75v-18.114c0-4.143-3.358-7.5-7.5-7.5s-7.5 3.357-7.5 7.5v18.114h-75v-18.114c0-4.143-3.358-7.5-7.5-7.5s-7.5 3.357-7.5 7.5v18.114h-31c-12.407 0-22.5-10.094-22.5-22.5v-44.336h18.114c4.142 0 7.5-3.357 7.5-7.5s-3.358-7.5-7.5-7.5h-18.114v-75h18.114c4.142 0 7.5-3.357 7.5-7.5s-3.358-7.5-7.5-7.5h-18.114v-75h18.114c4.142 0 7.5-3.357 7.5-7.5s-3.358-7.5-7.5-7.5h-18.114v-75h18.114c4.142 0 7.5-3.357 7.5-7.5s-3.358-7.5-7.5-7.5h-18.114v-75h18.114c4.142 0 7.5-3.357 7.5-7.5s-3.358-7.5-7.5-7.5h-18.114v-47.664c0-4.143-3.358-7.5-7.5-7.5s-7.5 3.357-7.5 7.5v467c0 20.678 16.822 37.5 37.5 37.5h467c4.142 0 7.5-3.357 7.5-7.5s-3.358-7.5-7.5-7.5zm-354.5-403.894h107c4.142 0 7.5-3.357 7.5-7.5s-3.358-7.5-7.5-7.5h-107c-4.142 0-7.5 3.357-7.5 7.5s3.358 7.5 7.5 7.5z"/></g></svg>