<svg id="Capa_1" enable-background="new 0 0 512.001 512.001" height="512" viewBox="0 0 512.001 512.001" width="512" xmlns="http://www.w3.org/2000/svg"><g><path d="m7.5 278.752c4.142 0 7.5-3.357 7.5-7.5v-21.088h18.114c4.142 0 7.5-3.357 7.5-7.5s-3.358-7.5-7.5-7.5h-18.114v-75h18.114c4.142 0 7.5-3.357 7.5-7.5s-3.358-7.5-7.5-7.5h-18.114v-75h18.114c4.142 0 7.5-3.357 7.5-7.5s-3.358-7.5-7.5-7.5h-18.114v-47.664c0-4.142-3.358-7.5-7.5-7.5s-7.5 3.358-7.5 7.5v263.752c0 4.143 3.358 7.5 7.5 7.5zm307.5-185.645h107c4.143 0 7.5-3.357 7.5-7.5s-3.357-7.5-7.5-7.5h-107c-4.143 0-7.5 3.357-7.5 7.5s3.357 7.5 7.5 7.5zm7-35.107h93c7.995 0 14.5-6.505 14.5-14.5v-29c0-7.995-6.505-14.5-14.5-14.5h-26.5c-4.143 0-7.5 3.357-7.5 7.5s3.357 7.5 7.5 7.5h26v28h-92v-28h31c4.143 0 7.5-3.357 7.5-7.5s-3.357-7.5-7.5-7.5h-31.5c-7.995 0-14.5 6.505-14.5 14.5v29c0 7.995 6.505 14.5 14.5 14.5zm-165 0h93c7.995 0 14.5-6.505 14.5-14.5v-29c0-7.995-6.505-14.5-14.5-14.5h-93c-7.995 0-14.5 6.505-14.5 14.5v29c0 7.995 6.505 14.5 14.5 14.5zm.5-43h92v28h-92zm-45.567 313.03c3.381 2.388 8.063 1.586 10.453-1.796l22.509-31.848 33.605 23.752-49.489 115.137c-1.636 3.806.124 8.217 3.929 9.853 3.723 1.6 8.201-.075 9.853-3.929l48.23-112.21 41.686 29.464c5.77 4.078 13.617 3.438 18.645-1.611l35.256-35.414 42.013 45.548c5.72 6.274 16.149 6.11 21.663-.39l41.573-48.455 113.393-22.531c4.062-.808 6.701-4.756 5.895-8.818-.809-4.062-4.758-6.698-8.818-5.895l-113.562 22.566c-3.17.63-6.074 2.328-8.179 4.78l-41.32 48.16-42.065-45.605 62.064-62.341 38.306 25.317c6.589 4.354 15.309 2.706 19.854-3.751l93.208-132.46c2.384-3.388 1.569-8.066-1.817-10.45-3.388-2.382-8.066-1.57-10.45 1.817l-92.928 132.062-38.242-25.275c-5.738-3.791-13.422-3.006-18.271 1.867l-61.901 62.178-52.897-57.349c-3.344-3.624-8.243-5.287-13.105-4.46-4.861.833-8.927 4.035-10.874 8.566l-25.591 59.539-31.411-22.202c-6.529-4.614-15.594-3.057-20.21 3.472l-22.797 32.256c-2.395 3.384-1.591 8.065 1.792 10.456zm111.691-76.888 52.807 57.251-35.41 35.567-43.943-31.06zm-73.624-158.035h107c4.143 0 7.5-3.357 7.5-7.5s-3.357-7.5-7.5-7.5h-107c-4.142 0-7.5 3.357-7.5 7.5s3.358 7.5 7.5 7.5zm354.5 403.893h-61v-18.114c0-4.143-3.357-7.5-7.5-7.5s-7.5 3.357-7.5 7.5v18.114h-75v-18.114c0-4.143-3.357-7.5-7.5-7.5s-7.5 3.357-7.5 7.5v18.114h-75v-18.114c0-4.143-3.357-7.5-7.5-7.5-4.142 0-7.5 3.357-7.5 7.5v18.114h-75v-18.114c0-4.143-3.358-7.5-7.5-7.5s-7.5 3.357-7.5 7.5v18.114h-75v-18.114c0-4.143-3.358-7.5-7.5-7.5s-7.5 3.357-7.5 7.5v18.114h-31c-12.407 0-22.5-10.093-22.5-22.5v-44.336h18.114c4.142 0 7.5-3.357 7.5-7.5s-3.358-7.5-7.5-7.5h-18.114v-75h18.114c4.142 0 7.5-3.357 7.5-7.5s-3.358-7.5-7.5-7.5h-18.114v-18.386c0-4.143-3.358-7.5-7.5-7.5s-7.5 3.357-7.5 7.5v167.722c0 20.678 16.822 37.5 37.5 37.5h467c4.143 0 7.5-3.357 7.5-7.5s-3.357-7.5-7.5-7.5z"/></g></svg>