<svg id="Capa_1" enable-background="new 0 0 512 512" height="512" viewBox="0 0 512 512" width="512" xmlns="http://www.w3.org/2000/svg"><g><path d="m446.227 290.292h-80.154c4.197-5.861 6.677-13.03 6.677-20.772v-150.16c0-19.729-16.046-35.78-35.77-35.78h-8.49c.48-3.382.744-6.833.744-10.346 0-40.381-32.852-73.234-73.234-73.234s-73.234 32.853-73.234 73.234c0 3.513.264 6.964.744 10.346h-8.49c-19.724 0-35.77 16.051-35.77 35.78v60.078c0 4.143 3.357 7.5 7.5 7.5s7.5-3.357 7.5-7.5v-60.078c0-11.458 9.317-20.78 20.77-20.78h12.273c5.904 15.953 17.218 29.292 31.698 37.811v36.629c0 3.889 1.965 7.449 5.257 9.524 3.307 2.085 7.378 2.311 10.888.633l20.864-9.974 20.865 9.974c3.519 1.682 7.59 1.446 10.888-.633 3.292-2.075 5.257-5.636 5.257-9.524v-36.629c14.48-8.518 25.794-21.858 31.698-37.811h12.273c11.452 0 20.77 9.322 20.77 20.78v150.16c0 11.453-9.317 20.771-20.77 20.771h-161.961c-11.452 0-20.77-9.317-20.77-20.771v-55.081c0-4.143-3.357-7.5-7.5-7.5s-7.5 3.357-7.5 7.5v55.081c0 7.742 2.48 14.912 6.677 20.772h-80.154c-19.725 0-35.773 16.048-35.773 35.773v150.161c0 19.726 16.048 35.774 35.773 35.774h161.953c11.49 0 21.724-5.451 28.273-13.895 6.55 8.444 16.784 13.895 28.273 13.895h161.953c19.727 0 35.775-16.048 35.775-35.773v-150.162c0-19.725-16.048-35.773-35.773-35.773zm-168.217-123.193-17.157-8.201c-3.085-1.468-6.622-1.468-9.717.006l-17.146 8.195v-24.015c6.95 2.195 14.343 3.385 22.01 3.385s15.059-1.19 22.01-3.385zm-22.01-35.63c-32.11 0-58.234-26.124-58.234-58.234s26.124-58.235 58.234-58.235 58.234 26.124 58.234 58.234-26.124 58.235-58.234 58.235zm-131.264 173.823h44.027v68.518l-17.144-8.196c-1.548-.74-3.209-1.11-4.87-1.11s-3.322.37-4.869 1.109l-17.145 8.197v-68.518zm123.764 170.935c0 11.454-9.319 20.773-20.773 20.773h-161.954c-11.454 0-20.773-9.319-20.773-20.773v-150.162c0-11.454 9.319-20.773 20.773-20.773h43.963v74.437c0 3.888 1.965 7.448 5.257 9.523 3.298 2.08 7.366 2.317 10.89.636l20.867-9.977 20.867 9.977c.001 0 .001 0 .002.001 3.51 1.677 7.581 1.448 10.888-.637 3.292-2.075 5.257-5.636 5.257-9.523v-74.437h64.736zm218.5 0c0 11.454-9.319 20.773-20.773 20.773h-161.954c-11.454 0-20.773-9.319-20.773-20.773v-170.935h64.736v74.437c0 3.888 1.965 7.448 5.257 9.523 3.298 2.08 7.366 2.317 10.89.636l20.867-9.977 20.869 9.978c3.509 1.677 7.581 1.448 10.888-.637 3.292-2.075 5.257-5.636 5.257-9.523v-21.91c0-4.143-3.357-7.5-7.5-7.5s-7.5 3.357-7.5 7.5v15.991l-17.144-8.196c-3.096-1.48-6.646-1.479-9.739-.001l-17.145 8.197v-68.518h44.027v17.526c0 4.143 3.357 7.5 7.5 7.5s7.5-3.357 7.5-7.5v-17.526h43.963c11.454 0 20.773 9.319 20.773 20.773v150.162zm-197.001-394.324-6.499 6.499v-48.441c0-4.143-3.357-7.5-7.5-7.5s-7.5 3.357-7.5 7.5v48.441l-6.499-6.499c-2.928-2.928-7.677-2.929-10.606.001-2.929 2.929-2.929 7.678.001 10.606l19.296 19.295c2.63 2.685 7.682 3.114 10.617 0l19.296-19.295c2.93-2.929 2.93-7.678.001-10.606-2.93-2.929-7.679-2.928-10.607-.001z"/></g></svg>