<svg id="Capa_1" enable-background="new 0 0 512 512" height="512" viewBox="0 0 512 512" width="512" xmlns="http://www.w3.org/2000/svg"><g><path d="m444.621 124.969c0-16.542-13.458-30-30-30s-30 13.458-30 30c0 6.207 1.895 11.979 5.136 16.769l-77.356 87.374c-4.09-2.093-8.716-3.282-13.618-3.282-6.342 0-12.227 1.983-17.078 5.355l-64.161-55.264c1.962-3.986 3.068-8.466 3.068-13.2 0-16.542-13.458-30-30-30s-30 13.458-30 30c0 5.531 1.511 10.714 4.132 15.167l-52.119 52.119c-4.471-2.65-9.683-4.178-15.247-4.178-16.542 0-30 13.458-30 30s13.458 30 30 30 30-13.458 30-30c0-5.547-1.519-10.744-4.155-15.206l52.102-52.103c4.48 2.665 9.706 4.201 15.286 4.201 6.38 0 12.296-2.008 17.164-5.417l64.123 55.231c-1.991 4.01-3.116 8.521-3.116 13.294 0 16.542 13.458 30 30 30s30-13.458 30-30c0-6.212-1.898-11.989-5.145-16.782l77.351-87.368c4.094 2.098 8.725 3.29 13.632 3.29 16.543 0 30.001-13.458 30.001-30zm-347.242 145.86c-8.271 0-15-6.729-15-15s6.729-15 15-15 15 6.729 15 15-6.729 15-15 15zm93.234-93.108c-8.271 0-15-6.729-15-15s6.729-15 15-15 15 6.729 15 15-6.729 15-15 15zm108.17 93.108c-8.271 0-15-6.729-15-15s6.729-15 15-15 15 6.729 15 15-6.729 15-15 15zm115.838-130.86c-8.271 0-15-6.729-15-15s6.729-15 15-15 15 6.729 15 15-6.729 15-15 15zm82.879-139.969h-483c-7.995 0-14.5 6.505-14.5 14.5v43.513c0 7.995 6.505 14.5 14.5 14.5h9.171v282.445c0 20.678 16.822 37.5 37.5 37.5h187.329v43.281c-17.65 3.5-31 19.099-31 37.761 0 21.229 17.271 38.5 38.5 38.5s38.5-17.271 38.5-38.5c0-18.662-13.35-34.261-31-37.761v-43.281h187.329c20.678 0 37.5-16.822 37.5-37.5v-74.366c0-4.143-3.358-7.5-7.5-7.5s-7.5 3.357-7.5 7.5v74.366c0 12.406-10.093 22.5-22.5 22.5h-389.658c-12.407 0-22.5-10.094-22.5-22.5v-282.445h56.333c4.142 0 7.5-3.357 7.5-7.5s-3.358-7.5-7.5-7.5h-80.004v-42.513h482v42.513h-366.996c-4.142 0-7.5 3.357-7.5 7.5s3.358 7.5 7.5 7.5h343.325v173.079c0 4.143 3.358 7.5 7.5 7.5s7.5-3.357 7.5-7.5v-173.079h9.171c7.995 0 14.5-6.505 14.5-14.5v-43.513c0-7.995-6.505-14.5-14.5-14.5zm-218 473.5c0 12.958-10.542 23.5-23.5 23.5s-23.5-10.542-23.5-23.5 10.542-23.5 23.5-23.5 23.5 10.542 23.5 23.5zm-181-141.55c-4.142 0-7.5 3.357-7.5 7.5s3.358 7.5 7.5 7.5h45c4.142 0 7.5-3.357 7.5-7.5s-3.358-7.5-7.5-7.5zm270 0c-4.142 0-7.5 3.357-7.5 7.5s3.358 7.5 7.5 7.5h45c4.142 0 7.5-3.357 7.5-7.5s-3.358-7.5-7.5-7.5zm-180 0c-4.142 0-7.5 3.357-7.5 7.5s3.358 7.5 7.5 7.5h45c4.142 0 7.5-3.357 7.5-7.5s-3.358-7.5-7.5-7.5zm90 0c-4.142 0-7.5 3.357-7.5 7.5s3.358 7.5 7.5 7.5h45c4.142 0 7.5-3.357 7.5-7.5s-3.358-7.5-7.5-7.5z"/></g></svg>