<svg id="Capa_1" enable-background="new 0 0 512 512" height="512" viewBox="0 0 512 512" width="512" xmlns="http://www.w3.org/2000/svg"><g><path d="m97.379 94.969c-16.542 0-30 13.458-30 30s13.458 30 30 30c5.555 0 10.759-1.523 15.226-4.166l59.786 59.786c-2.648 4.47-4.174 9.679-4.174 15.24 0 16.542 13.458 30 30 30s30-13.458 30-30c0-2.271-.262-4.48-.742-6.607l71.448-36.648c5.501 6.217 13.53 10.147 22.464 10.147 4.791 0 9.319-1.135 13.341-3.141l55.29 64.112c-3.397 4.862-5.397 10.769-5.397 17.137 0 16.542 13.458 30 30 30s30-13.458 30-30-13.458-30-30-30c-4.746 0-9.236 1.112-13.229 3.083l-55.329-64.157c3.353-4.843 5.324-10.711 5.324-17.034 0-16.542-13.458-30-30-30s-30 13.458-30 30c0 2.23.252 4.401.716 6.494l-71.498 36.674c-5.498-6.167-13.495-10.059-22.388-10.059-5.55 0-10.749 1.521-15.213 4.159l-59.792-59.792c2.643-4.467 4.167-9.671 4.167-15.227 0-16.543-13.458-30.001-30-30.001zm0 45c-8.271 0-15-6.729-15-15s6.729-15 15-15 15 6.729 15 15-6.729 15-15 15zm317.242 115.86c8.271 0 15 6.729 15 15s-6.729 15-15 15-15-6.729-15-15 6.729-15 15-15zm-93.234-108.108c8.271 0 15 6.729 15 15s-6.729 15-15 15-15-6.729-15-15 6.729-15 15-15zm-123.17 63.108c8.271 0 15 6.729 15 15s-6.729 15-15 15-15-6.729-15-15 6.729-15 15-15zm-9.717 121.121c-4.142 0-7.5 3.357-7.5 7.5s3.358 7.5 7.5 7.5h45c4.142 0 7.5-3.357 7.5-7.5s-3.358-7.5-7.5-7.5zm-90 15h45c4.142 0 7.5-3.357 7.5-7.5s-3.358-7.5-7.5-7.5h-45c-4.142 0-7.5 3.357-7.5 7.5s3.358 7.5 7.5 7.5zm399-346.95h-104.388c-4.142 0-7.5 3.357-7.5 7.5s3.358 7.5 7.5 7.5h103.888v42.513h-482v-42.513h343.112c4.142 0 7.5-3.357 7.5-7.5s-3.358-7.5-7.5-7.5h-343.612c-7.995 0-14.5 6.505-14.5 14.5v43.513c0 7.995 6.505 14.5 14.5 14.5h9.171v282.445c0 20.678 16.822 37.5 37.5 37.5h59.519c4.142 0 7.5-3.357 7.5-7.5s-3.358-7.5-7.5-7.5h-59.519c-12.407 0-22.5-10.094-22.5-22.5v-282.445h434.658v282.445c0 12.406-10.093 22.5-22.5 22.5h-295.14c-4.142 0-7.5 3.357-7.5 7.5s3.358 7.5 7.5 7.5h92.811v43.281c-17.65 3.5-31 19.099-31 37.761 0 21.229 17.271 38.5 38.5 38.5s38.5-17.271 38.5-38.5c0-18.662-13.35-34.261-31-37.761v-43.281h187.329c20.678 0 37.5-16.822 37.5-37.5v-282.445h9.171c7.995 0 14.5-6.505 14.5-14.5v-43.513c0-7.995-6.505-14.5-14.5-14.5zm-218 473.5c0 12.958-10.542 23.5-23.5 23.5s-23.5-10.542-23.5-23.5 10.542-23.5 23.5-23.5 23.5 10.542 23.5 23.5zm89-141.55c-4.142 0-7.5 3.357-7.5 7.5s3.358 7.5 7.5 7.5h45c4.142 0 7.5-3.357 7.5-7.5s-3.358-7.5-7.5-7.5zm-90 0c-4.142 0-7.5 3.357-7.5 7.5s3.358 7.5 7.5 7.5h45c4.142 0 7.5-3.357 7.5-7.5s-3.358-7.5-7.5-7.5z"/></g></svg>