<svg id="Capa_1" enable-background="new 0 0 512 512" height="512" viewBox="0 0 512 512" width="512" xmlns="http://www.w3.org/2000/svg"><g><path d="m504.5 496.996h-22.888v-393.133c0-1.379 1.121-2.5 2.5-2.5h10.367c15.025.142 23.207-19.261 12.375-29.874l-66.367-66.368c-6.824-6.822-17.926-6.822-24.75 0l-66.366 66.368c-10.703 10.402-3.247 30.049 12.374 29.874h10.367c1.379 0 2.5 1.121 2.5 2.5v62.925c0 4.143 3.357 7.5 7.5 7.5s7.5-3.357 7.5-7.5v-62.925c0-9.649-7.851-17.5-17.5-17.5h-10.367c-2.42-.087-3.436-2.476-1.768-4.267l66.367-66.368c.975-.977 2.561-.977 3.535 0l66.368 66.368c1.66 1.783.665 4.179-1.769 4.267h-10.367c-9.649 0-17.5 7.851-17.5 17.5v393.133h-77v-295.208c0-4.143-3.357-7.5-7.5-7.5s-7.5 3.357-7.5 7.5v295.208h-65.111v-302.42c0-1.379 1.121-2.5 2.5-2.5h10.367c15.034.142 23.203-19.264 12.375-29.875l-66.367-66.367c-6.824-6.822-17.926-6.822-24.75 0l-66.367 66.367c-10.691 10.393-3.255 30.05 12.374 29.875h10.368c1.378 0 2.5 1.121 2.5 2.5v302.42h-65.112v-87.852c0-4.143-3.358-7.5-7.5-7.5s-7.5 3.357-7.5 7.5v87.852h-77v-197.42c0-9.649-7.851-17.5-17.5-17.5h-10.368c-2.42-.087-3.435-2.477-1.768-4.268l66.367-66.367c.975-.975 2.562-.975 3.536 0l66.368 66.367c1.662 1.785.665 4.18-1.768 4.268h-10.367c-9.649 0-17.5 7.851-17.5 17.5v74.568c0 4.143 3.358 7.5 7.5 7.5s7.5-3.357 7.5-7.5v-74.568c0-1.379 1.122-2.5 2.5-2.5h10.367c15.041.142 23.2-19.268 12.375-29.875l-66.368-66.367c-6.824-6.822-17.926-6.822-24.749 0l-66.367 66.367c-10.746 10.455-3.102 30.05 12.374 29.875h10.368c1.378 0 2.5 1.121 2.5 2.5v197.42h-22.888c-4.142 0-7.5 3.357-7.5 7.5s3.358 7.5 7.5 7.5h497c4.143 0 7.5-3.357 7.5-7.5s-3.357-7.5-7.5-7.5zm-210-302.42v302.42h-77v-302.42c0-9.649-7.851-17.5-17.5-17.5h-10.368c-2.42-.087-3.435-2.478-1.768-4.268l66.367-66.367c1.161-1.059 2.385-1.067 3.536 0l66.367 66.367c1.661 1.783.666 4.18-1.768 4.268h-10.366c-9.649 0-17.5 7.851-17.5 17.5z"/></g></svg>