<svg id="Capa_1" enable-background="new 0 0 512 512" height="512" viewBox="0 0 512 512" width="512" xmlns="http://www.w3.org/2000/svg"><g><path d="m406 301c4.143 0 7.5-3.357 7.5-7.5v-18.154c0-4.143-3.357-7.5-7.5-7.5s-7.5 3.357-7.5 7.5v18.154c0 4.143 3.358 7.5 7.5 7.5zm-39.077-39.077h18.154c4.143 0 7.5-3.357 7.5-7.5s-3.357-7.5-7.5-7.5h-18.154c-4.143 0-7.5 3.357-7.5 7.5s3.358 7.5 7.5 7.5zm60 0h18.154c4.143 0 7.5-3.357 7.5-7.5s-3.357-7.5-7.5-7.5h-18.154c-4.143 0-7.5 3.357-7.5 7.5s3.358 7.5 7.5 7.5zm-300 0h18.154c4.143 0 7.5-3.357 7.5-7.5s-3.357-7.5-7.5-7.5h-18.154c-4.143 0-7.5 3.357-7.5 7.5s3.358 7.5 7.5 7.5zm279.077-20.923c4.143 0 7.5-3.357 7.5-7.5v-18.154c0-4.143-3.357-7.5-7.5-7.5s-7.5 3.357-7.5 7.5v18.154c0 4.143 3.358 7.5 7.5 7.5zm105.768 254.224-12.059-66.148c-1.234-6.771-7.14-11.687-14.042-11.687h-56.532c-.033-.593-.092-1.186-.2-1.777l-12.059-66.147c-1.233-6.772-7.139-11.688-14.043-11.688h-11.833c-4.143 0-7.5 3.357-7.5 7.5s3.357 7.5 7.5 7.5h11.232l11.779 64.612h-150.355l11.778-64.612h80.566c4.143 0 7.5-3.357 7.5-7.5s-3.357-7.5-7.5-7.5h-9.699c-.064-1.631-11.941-66.179-12.259-67.925-1.234-6.771-7.14-11.687-14.042-11.687h-35.64v-70.149c39.214-12.13 67.783-48.726 67.783-91.872.001-53.014-43.129-96.144-96.143-96.144-15.555 0-31.008 3.803-44.69 10.997-3.666 1.928-5.076 6.463-3.148 10.129 1.929 3.666 6.463 5.077 10.129 3.148 11.538-6.067 24.577-9.274 37.709-9.274 44.743 0 81.144 36.4 81.144 81.144 0 44.742-36.4 81.143-81.144 81.143s-81.144-36.4-81.144-81.143c0-18.848 6.606-37.21 18.602-51.702 2.642-3.191 2.195-7.919-.995-10.56-3.19-2.642-7.919-2.195-10.56.995-14.217 17.177-22.047 38.935-22.047 61.267 0 43.146 28.569 79.742 67.783 91.872v70.149h-35.639c-6.902 0-12.808 4.915-14.042 11.687-.317 1.741-12.21 66.292-12.259 67.925h-56.532c-6.904 0-12.81 4.915-14.042 11.687l-12.061 66.148c-.108.592-.167 1.185-.2 1.777h-56.531c-6.902 0-12.808 4.915-14.042 11.687l-12.06 66.148c-.757 4.154.362 8.399 3.07 11.646 2.72 3.261 6.72 5.131 10.973 5.131h152.117c2.405 0 4.718-.616 6.775-1.725 2.057 1.108 4.37 1.725 6.774 1.725h152.117c2.404 0 4.718-.616 6.774-1.725 2.057 1.108 4.371 1.725 6.775 1.725h152.117c4.253 0 8.253-1.87 10.973-5.131 2.71-3.247 3.83-7.492 3.072-11.646zm-269.128-303.87c4.368.61 8.827.933 13.36.933s8.992-.323 13.36-.933v66.812h-26.72zm-50.039 81.811h126.799l11.778 64.611h-150.355zm67.586 79.611-4.187 22.967-4.187-22.967zm-245.031 144.224 11.778-64.611h126.799l11.779 64.611zm158.011-41.644-4.187-22.968h8.374zm-75.178-37.967 11.779-64.612h126.799l11.778 64.612zm82.834 79.611 11.778-64.611h126.799l11.778 64.611zm158.01-41.644-4.187-22.968h8.375zm7.656 41.644 11.779-64.611h126.799l11.778 64.611zm-279.566-235.077h18.154c4.143 0 7.5-3.357 7.5-7.5s-3.357-7.5-7.5-7.5h-18.154c-4.143 0-7.5 3.357-7.5 7.5s3.358 7.5 7.5 7.5zm189.077-113.41c4.143 0 7.5-3.357 7.5-7.5v-71.633l13.225 13.225c2.93 2.928 7.679 2.93 10.607 0 2.929-2.93 2.929-7.678 0-10.607l-26.028-26.028c-2.663-2.721-7.712-3.061-10.607 0l-26.028 26.028c-2.929 2.93-2.929 7.678 0 10.607 2.93 2.928 7.678 2.928 10.607 0l13.224-13.225v71.632c0 4.143 3.358 7.501 7.5 7.501zm-150 152.487c4.143 0 7.5-3.357 7.5-7.5v-18.154c0-4.143-3.357-7.5-7.5-7.5s-7.5 3.357-7.5 7.5v18.154c0 4.143 3.358 7.5 7.5 7.5zm0-60c4.143 0 7.5-3.357 7.5-7.5v-18.154c0-4.143-3.357-7.5-7.5-7.5s-7.5 3.357-7.5 7.5v18.154c0 4.143 3.358 7.5 7.5 7.5z"/></g></svg>