<svg id="Capa_1" enable-background="new 0 0 512 512" height="512" viewBox="0 0 512 512" width="512" xmlns="http://www.w3.org/2000/svg"><g><path d="m126.923 261.923h18.154c4.143 0 7.5-3.357 7.5-7.5s-3.357-7.5-7.5-7.5h-18.154c-4.143 0-7.5 3.357-7.5 7.5s3.358 7.5 7.5 7.5zm384.845 233.301-12.059-66.148c-1.234-6.771-7.14-11.687-14.042-11.687h-56.532c-.033-.593-.092-1.186-.2-1.777l-12.059-66.147c-1.233-6.772-7.139-11.688-14.043-11.688h-56.532c-.064-1.631-11.941-66.179-12.259-67.925-1.234-6.771-7.14-11.687-14.042-11.687h-35.64v-70.149c39.214-12.13 67.783-48.726 67.783-91.872.001-53.014-43.129-96.144-96.143-96.144s-96.144 43.13-96.144 96.144c0 43.146 28.569 79.742 67.783 91.872v18.562c0 4.143 3.357 7.5 7.5 7.5s7.5-3.357 7.5-7.5v-15.224c4.368.61 8.827.933 13.36.933s8.992-.323 13.36-.933v66.812h-26.719v-16.588c0-4.143-3.357-7.5-7.5-7.5s-7.5 3.357-7.5 7.5v16.588h-35.64c-6.902 0-12.808 4.915-14.042 11.687-.317 1.741-12.21 66.292-12.259 67.925h-56.532c-6.904 0-12.81 4.915-14.042 11.687l-12.061 66.148c-.108.592-.167 1.185-.2 1.777h-56.531c-6.902 0-12.808 4.915-14.042 11.687l-12.06 66.148c-.757 4.154.362 8.399 3.07 11.646 2.72 3.261 6.72 5.131 10.973 5.131h51.151c4.143 0 7.5-3.357 7.5-7.5s-3.357-7.5-7.5-7.5h-50.269l11.778-64.611h126.799l11.779 64.609h-65.086c-4.143 0-7.5 3.357-7.5 7.5s3.357 7.5 7.5 7.5h65.966c2.405 0 4.718-.616 6.775-1.725 2.057 1.108 4.37 1.725 6.774 1.725h152.117c2.404 0 4.718-.616 6.774-1.725 2.057 1.108 4.371 1.725 6.775 1.725h152.117c4.253 0 8.253-1.87 10.973-5.131 2.709-3.246 3.829-7.491 3.071-11.645zm-255.768-317.938c-44.743 0-81.144-36.4-81.144-81.143.001-44.743 36.401-81.143 81.144-81.143s81.144 36.4 81.144 81.144c0 44.742-36.401 81.142-81.144 81.142zm-63.399 95.879h126.799l11.778 64.611h-150.355zm67.586 79.611-4.187 22.967-4.187-22.967zm-87.02 102.58-4.187-22.968h8.374zm-75.178-37.967 11.779-64.612h126.799l11.778 64.612zm82.834 79.611 11.778-64.611h126.799l11.778 64.611zm158.01-41.644-4.187-22.968h8.375zm-75.177-37.967 11.778-64.612h126.799l11.779 64.612zm82.833 79.611 11.779-64.611h126.799l11.778 64.611zm20.434-235.077h18.154c4.143 0 7.5-3.357 7.5-7.5s-3.357-7.5-7.5-7.5h-18.154c-4.143 0-7.5 3.357-7.5 7.5s3.358 7.5 7.5 7.5zm60 0h18.154c4.143 0 7.5-3.357 7.5-7.5s-3.357-7.5-7.5-7.5h-18.154c-4.143 0-7.5 3.357-7.5 7.5s3.358 7.5 7.5 7.5zm-20.923-20.923c4.143 0 7.5-3.357 7.5-7.5v-18.154c0-4.143-3.357-7.5-7.5-7.5s-7.5 3.357-7.5 7.5v18.154c0 4.143 3.358 7.5 7.5 7.5zm0 60c4.143 0 7.5-3.357 7.5-7.5v-18.154c0-4.143-3.357-7.5-7.5-7.5s-7.5 3.357-7.5 7.5v18.154c0 4.143 3.358 7.5 7.5 7.5zm-129.275-191.319-13.225 13.225v-71.633c0-4.143-3.357-7.5-7.5-7.5s-7.5 3.357-7.5 7.5v71.632l-13.225-13.225c-2.93-2.928-7.678-2.928-10.607 0-2.929 2.93-2.929 7.678 0 10.607l26.028 26.028c2.614 2.678 7.64 3.106 10.607 0l26.028-26.028c2.929-2.93 2.929-7.678 0-10.607-2.928-2.927-7.676-2.927-10.606.001zm-170.725 131.319c4.143 0 7.5-3.357 7.5-7.5v-18.154c0-4.143-3.357-7.5-7.5-7.5s-7.5 3.357-7.5 7.5v18.154c0 4.143 3.358 7.5 7.5 7.5zm-39.077 20.923h18.154c4.143 0 7.5-3.357 7.5-7.5s-3.357-7.5-7.5-7.5h-18.154c-4.143 0-7.5 3.357-7.5 7.5s3.358 7.5 7.5 7.5zm39.077 39.077c4.143 0 7.5-3.357 7.5-7.5v-18.154c0-4.143-3.357-7.5-7.5-7.5s-7.5 3.357-7.5 7.5v18.154c0 4.143 3.358 7.5 7.5 7.5z"/></g></svg>