<svg id="Capa_1" enable-background="new 0 0 512 512" height="512" viewBox="0 0 512 512" width="512" xmlns="http://www.w3.org/2000/svg"><g><path d="m133.273 322.221c4.142 0 7.5-3.357 7.5-7.5v-21.221h21.221c4.142 0 7.5-3.357 7.5-7.5s-3.358-7.5-7.5-7.5h-21.221v-21.221c0-4.143-3.358-7.5-7.5-7.5s-7.5 3.357-7.5 7.5v21.221h-21.221c-4.142 0-7.5 3.357-7.5 7.5s3.358 7.5 7.5 7.5h21.221v21.221c0 4.142 3.358 7.5 7.5 7.5zm45.349 92.845h154.883c7.995 0 14.5-6.505 14.5-14.5v-42.029c0-7.976-6.485-14.479-14.455-14.5-13.561-.037-31.533-.05-42.113.09l.023-176.128c26.574.11 43.874.21 52.807.306v41.716c0 7.995 6.505 14.5 14.5 14.5h41.679c7.995 0 14.5-6.505 14.5-14.5v-98.587c0-7.995-6.505-14.5-14.5-14.5h-288.893c-7.995 0-14.5 6.505-14.5 14.5v98.588c0 7.995 6.505 14.5 14.5 14.5h41.946c7.995 0 14.5-6.505 14.5-14.5v-41.533h52.486c-.002 9.077-.004 21.302-.001 42.065 0 4.143 3.359 7.5 7.501 7.499 4.143-.001 7.5-3.359 7.499-7.501-.003-21.15-.001-33.439.001-42.566.001-3.875-1.508-7.518-4.249-10.255-2.738-2.735-6.378-4.242-10.251-4.242h-53.486c-7.995 0-14.5 6.505-14.5 14.5v41.533h-40.946v-97.588h287.895v97.587h-40.679v-41.711c0-7.908-6.431-14.412-14.334-14.499-9.036-.1-27.185-.204-55.484-.32-2.735-.012-6.656.32-9.658 3.314-3.338 3.327-3.334 7.909-3.333 9.865l-.024 179.768c-.003 2.792.352 6.859 3.459 9.921 3.449 3.397 8.137 3.326 10.134 3.291 7.973-.128 22.827-.167 42.977-.113v41.03h-153.884v-41.033c9.472-.039 33.003-.128 42.713.135 2.862.076 7.037-.181 10.218-3.283 3.158-3.081 3.555-7.155 3.548-10.36-.081-35.992-.109-60.285-.117-99.973-.001-4.143-3.359-7.5-7.501-7.499s-7.5 3.359-7.499 7.501c.007 39.175.035 63.355.114 98.581-9.691-.2-28.443-.154-42.038-.1-7.961.032-14.438 6.537-14.438 14.5v42.031c0 7.995 6.505 14.499 14.5 14.499zm292.378.516v-319.164c23.194-3.616 41-23.726 41-47.918 0-26.743-21.757-48.5-48.5-48.5-24.193 0-44.302 17.806-47.918 41h-319.164c-3.616-23.194-23.725-41-47.918-41-26.743 0-48.5 21.757-48.5 48.5 0 24.192 17.806 44.302 41 47.918v319.164c-23.194 3.616-41 23.726-41 47.918 0 26.743 21.757 48.5 48.5 48.5 24.193 0 44.302-17.806 47.918-41h218.184c4.142 0 7.5-3.357 7.5-7.5s-3.358-7.5-7.5-7.5h-218.184c-3.235-20.749-19.669-37.183-40.418-40.418v-319.164c20.749-3.235 37.183-19.669 40.418-40.418h319.164c3.235 20.749 19.669 37.183 40.418 40.418v319.164c-20.749 3.235-37.183 19.669-40.418 40.418h-65.98c-4.142 0-7.5 3.357-7.5 7.5s3.358 7.5 7.5 7.5h65.98c3.616 23.194 23.725 41 47.918 41 26.743 0 48.5-21.757 48.5-48.5 0-24.192-17.806-44.302-41-47.918zm-389 47.918c0 18.472-15.028 33.5-33.5 33.5s-33.5-15.028-33.5-33.5 15.028-33.5 33.5-33.5 33.5 15.028 33.5 33.5zm-33.5-381.5c-18.472 0-33.5-15.028-33.5-33.5s15.028-33.5 33.5-33.5 33.5 15.028 33.5 33.5-15.028 33.5-33.5 33.5zm381.5-33.5c0-18.472 15.028-33.5 33.5-33.5s33.5 15.028 33.5 33.5-15.028 33.5-33.5 33.5-33.5-15.028-33.5-33.5zm33.5 448.5c-18.472 0-33.5-15.028-33.5-33.5s15.028-33.5 33.5-33.5 33.5 15.028 33.5 33.5-15.028 33.5-33.5 33.5zm-113.494-218.5c-4.142 0-7.5 3.357-7.5 7.5s3.358 7.5 7.5 7.5h57.441c4.142 0 7.5-3.357 7.5-7.5s-3.358-7.5-7.5-7.5z"/></g></svg>