<svg id="Capa_1" enable-background="new 0 0 512.001 512.001" height="512" viewBox="0 0 512.001 512.001" width="512" xmlns="http://www.w3.org/2000/svg"><g><path d="m186.409 417.735v-3.464h2.095c7.964 0 14.443-6.474 14.443-14.431v-19.156c0-7.958-6.479-14.432-14.443-14.432h-18.632v-18.018h25.575c4.142 0 7.5-3.357 7.5-7.5s-3.358-7.5-7.5-7.5h-9.038v-3.465c0-4.143-3.358-7.5-7.5-7.5s-7.5 3.357-7.5 7.5v3.465h-2.095c-7.963 0-14.442 6.474-14.442 14.431v19.156c0 7.957 6.479 14.431 14.442 14.431h18.633v18.019h-25.575c-4.142 0-7.5 3.357-7.5 7.5s3.358 7.5 7.5 7.5h9.038v3.464c0 4.143 3.358 7.5 7.5 7.5s7.499-3.357 7.499-7.5zm318.091-230.087c4.142 0 7.5-3.357 7.5-7.5v-37.65c.05-3.834-3.316-7.605-7.5-7.5h-37.651c-4.142 0-7.5 3.357-7.5 7.5s3.358 7.5 7.5 7.5h20.994l-99.88 112.817-97.644-84.106c-5.705-4.923-14.363-4.602-19.722.735l-22.839 22.839-13.751-26.87c8.677-4.123 14.69-12.962 14.69-23.181 0-7.085-2.891-13.508-7.556-18.155 4.665-4.647 7.556-11.07 7.556-18.155 0-8.331-3.999-15.744-10.177-20.434l37.786-77.743c2.185-4.498 1.457-9.824-1.854-13.571-3.309-3.742-8.5-5.119-13.224-3.505-26.571 9.063-54.267 13.659-82.318 13.659-28.052 0-55.748-4.596-82.317-13.658-4.731-1.616-9.93-.236-13.239 3.516-3.309 3.751-4.028 9.078-1.84 13.561l37.785 77.74c-6.18 4.689-10.179 12.104-10.179 20.436 0 7.085 2.891 13.508 7.556 18.155-4.665 4.647-7.556 11.07-7.556 18.155 0 10.219 6.015 19.06 14.693 23.182l-29.221 57.099c-1.887 3.688-.428 8.206 3.259 10.094 3.686 1.885 8.206.427 10.093-3.26l31.453-61.459h79.026l62.612 122.344c-2.302 3.529-3.646 7.738-3.646 12.257v39.003c0 5.758 2.177 11.017 5.748 15-3.571 3.983-5.748 9.242-5.748 15v39.004c0 5.758 2.177 11.017 5.748 15-3.571 3.983-5.748 9.242-5.748 15v39.003c0 2.629.458 5.152 1.29 7.5h-202.259c-33.867 0-61.42-27.499-61.42-61.3 0-4.814.576-9.639 1.713-14.35 1.123-4.681 2.81-9.232 5.013-13.533l70.186-137.142c1.887-3.688.428-8.206-3.259-10.094-3.687-1.886-8.206-.428-10.093 3.26l-70.185 137.137c-2.745 5.356-4.847 11.032-6.246 16.859-1.413 5.853-2.129 11.862-2.129 17.861 0 42.072 34.282 76.3 76.42 76.3h204.98c4.029 0 8.05-.335 11.994-.959 2.057.621 4.237.959 6.494.959h189.612c12.407 0 22.5-10.094 22.5-22.5v-39.003c0-5.758-2.177-11.017-5.748-15 3.571-3.983 5.748-9.242 5.748-15v-39.004c0-5.758-2.177-11.017-5.748-15 3.571-3.983 5.748-9.242 5.748-15v-39.003c0-12.406-10.093-22.5-22.5-22.5h-87.81c-4.142 0-7.5 3.357-7.5 7.5s3.358 7.5 7.5 7.5h87.81c4.136 0 7.5 3.364 7.5 7.5v39.003c0 4.136-3.364 7.5-7.5 7.5h-189.611c-4.136 0-7.5-3.364-7.5-7.5v-39.003c0-4.136 3.364-7.5 7.5-7.5h66.801c4.142 0 7.5-3.357 7.5-7.5s-3.358-7.5-7.5-7.5h-66.801c-2.34 0-4.598.36-6.721 1.026l-38.229-74.699 25.94-25.94 97.664 84.124c2.716 2.342 6.084 3.491 9.444 3.491 4.018-.001 8.022-1.646 10.879-4.86l98.134-110.846v17.864c0 4.143 3.358 7.5 7.5 7.5zm-406.75-170.812c26.293 8.292 53.563 12.492 81.161 12.492 27.596 0 54.867-4.2 81.16-12.493l-35.708 73.468c-.448-.023-.898-.036-1.352-.036h-88.204c-.452 0-.902.013-1.349.036zm125.26 146.052h-88.204c-5.893 0-10.687-4.78-10.687-10.655s4.794-10.655 10.687-10.655h88.204c5.893 0 10.687 4.78 10.687 10.655s-4.794 10.655-10.687 10.655zm0-36.311h-88.204c-5.893 0-10.687-4.78-10.687-10.655s4.794-10.655 10.687-10.655h88.204c5.893 0 10.687 4.78 10.687 10.655s-4.794 10.655-10.687 10.655zm69.379 254.914c0-4.136 3.364-7.5 7.5-7.5h189.611c4.136 0 7.5 3.364 7.5 7.5v39.004c0 4.136-3.364 7.5-7.5 7.5h-189.611c-4.136 0-7.5-3.364-7.5-7.5zm0 69.004c0-4.136 3.364-7.5 7.5-7.5h189.611c4.136 0 7.5 3.364 7.5 7.5v39.003c0 4.136-3.364 7.5-7.5 7.5h-189.611c-4.056.007-7.503-3.315-7.5-7.5zm-35.905-76.742c0-42.708-34.8-77.453-77.575-77.453s-77.575 34.745-77.575 77.453 34.8 77.454 77.575 77.454 77.575-34.746 77.575-77.454zm-140.151 0c0-34.437 28.071-62.453 62.575-62.453s62.575 28.017 62.575 62.453c0 34.438-28.071 62.454-62.575 62.454s-62.575-28.017-62.575-62.454z"/></g></svg>