<svg id="Capa_1" enable-background="new 0 0 512 512" height="512" viewBox="0 0 512 512" width="512" xmlns="http://www.w3.org/2000/svg"><g><path d="m123.089 258.394c0 7.995 6.505 14.5 14.5 14.5h169.61c7.995 0 14.5-6.505 14.5-14.5v-47.614c0-7.995-6.505-14.5-14.5-14.5h-169.61c-7.995 0-14.5 6.505-14.5 14.5zm15-47.115h168.61v46.614h-168.61zm120.068-50.425c-4.142 0-7.5 3.357-7.5 7.5s3.358 7.5 7.5 7.5h49.042c7.995 0 14.5-6.505 14.5-14.5v-47.614c0-7.995-6.505-14.5-14.5-14.5h-169.61c-7.995 0-14.5 6.505-14.5 14.5v47.613c0 7.995 6.505 14.5 14.5 14.5h85.568c4.142 0 7.5-3.357 7.5-7.5s-3.358-7.5-7.5-7.5h-85.068v-46.613h168.61v46.613h-48.542zm108.543 175.9v-245.044c0-20.678-16.822-37.5-37.5-37.5h-21.018v-36.71c0-9.649-7.851-17.5-17.5-17.5h-136.577c-9.649 0-17.5 7.851-17.5 17.5v36.71h-21.016c-20.678 0-37.5 16.822-37.5 37.5v286.484c0 4.143 3.358 7.5 7.5 7.5s7.5-3.357 7.5-7.5v-286.484c0-12.406 10.093-22.5 22.5-22.5h213.611c12.406 0 22.5 10.094 22.5 22.5v242.603c-2.232-.168-4.486-.255-6.761-.255-8.038 0-15.828 1.078-23.239 3.085v-29.323c0-7.995-6.505-14.5-14.5-14.5h-169.61c-7.995 0-14.5 6.505-14.5 14.5v47.609c0 7.995 6.505 14.5 14.5 14.5h136.003c-4.651 6.233-8.506 13.094-11.413 20.431h-124.591c-7.995 0-14.5 6.505-14.5 14.5v47.609c0 7.995 6.505 14.5 14.5 14.5h130.009c6.87 12.045 16.472 22.338 27.957 30.03h-179.966c-12.407 0-22.5-10.094-22.5-22.5v-61.306c0-4.143-3.358-7.5-7.5-7.5s-7.5 3.357-7.5 7.5v61.307c0 20.678 16.822 37.5 37.5 37.5h213.611c2.073 0 4.135-.181 6.151-.518 3.151.339 6.349.518 9.588.518 49.06 0 88.972-39.912 88.972-88.972 0-41.553-28.637-76.541-67.211-86.274zm-73.518-282.544h-141.577v-36.71c0-1.379 1.122-2.5 2.5-2.5h136.577c1.379 0 2.5 1.121 2.5 2.5zm-155.093 397.76v-46.61h119.643c-1.156 5.712-1.765 11.62-1.765 17.668 0 10.128 1.705 19.864 4.836 28.941h-122.714zm0-97.04v-46.61h168.611v34.384c-6.844 3.271-13.204 7.394-18.949 12.226zm206.85 142.07c-40.788 0-73.972-33.184-73.972-73.972s33.184-73.971 73.972-73.971 73.972 33.183 73.972 73.971-33.184 73.972-73.972 73.972zm33.376-81.472h-25.876v-25.876c0-4.143-3.357-7.5-7.5-7.5s-7.5 3.357-7.5 7.5v25.876h-25.876c-4.143 0-7.5 3.357-7.5 7.5s3.357 7.5 7.5 7.5h25.876v25.876c0 4.143 3.357 7.5 7.5 7.5s7.5-3.357 7.5-7.5v-25.876h25.876c4.143 0 7.5-3.357 7.5-7.5s-3.357-7.5-7.5-7.5z"/></g></svg>