<svg id="Capa_1" enable-background="new 0 0 512 512" height="512" viewBox="0 0 512 512" width="512" xmlns="http://www.w3.org/2000/svg"><g><path d="m256 255.425c-19.28 0-37.854 5.73-53.716 16.572-3.42 2.337-4.297 7.004-1.959 10.424 2.337 3.42 7.006 4.296 10.424 1.959 13.356-9.129 29.004-13.955 45.251-13.955 44.276 0 80.298 36.021 80.298 80.298s-36.022 80.298-80.298 80.298-80.298-36.021-80.298-80.298c0-15.488 4.416-30.52 12.771-43.469 2.246-3.48 1.245-8.123-2.235-10.368-3.48-2.244-8.124-1.246-10.368 2.235-9.923 15.379-15.168 33.223-15.168 51.602 0 52.548 42.75 95.298 95.298 95.298s95.298-42.75 95.298-95.298-42.75-95.298-95.298-95.298zm-215.126 50.749c-2.086-2.191-6.913-3.785-10.835 0l-27.956 29.2c-2.865 2.992-2.762 7.739.23 10.604 2.988 2.861 7.736 2.766 10.604-.23l15.039-15.708v114.459c0 4.143 3.357 7.5 7.5 7.5s7.5-3.357 7.5-7.5v-114.458l15.037 15.707c2.865 2.992 7.612 3.095 10.604.231 2.992-2.865 3.096-7.612.231-10.604zm441.087 0c-2.063-2.188-6.934-3.781-10.835 0l-27.955 29.2c-2.864 2.992-2.761 7.739.231 10.604 2.99 2.861 7.737 2.762 10.604-.231l15.037-15.707v114.458c0 4.143 3.357 7.5 7.5 7.5s7.5-3.357 7.5-7.5v-114.458l15.039 15.708c2.867 2.996 7.615 3.091 10.604.23 2.992-2.864 3.096-7.611.23-10.604zm-225.961 96.119c4.143 0 7.5-3.357 7.5-7.5v-69.459l15.039 15.708c2.867 2.996 7.615 3.091 10.604.23 2.992-2.864 3.096-7.611.23-10.604l-27.956-29.2c-2.069-2.183-6.92-3.789-10.834 0l-27.956 29.2c-2.865 2.992-2.762 7.739.23 10.604 2.99 2.863 7.738 2.763 10.604-.23l15.039-15.708v69.459c0 4.142 3.357 7.5 7.5 7.5zm256-230.644c0-15.126-6.527-34.804-19.955-60.157-1.938-3.659-6.475-5.055-10.139-3.117-3.66 1.938-5.056 6.478-3.117 10.139 12.084 22.815 18.211 40.693 18.211 53.135 0 48.947-39.822 88.77-88.77 88.77-2.03 0-4.053-.077-6.055-.214-10.239-21.31-23.704-45.096-40.39-71.301-11.102-17.436-22.63-34.383-33.789-50.135 6.74-15.772 27.638-58.159 80.234-123.708 11.471 14.297 33.551 42.792 53.141 73.699 2.219 3.5 6.853 4.536 10.35 2.32 3.499-2.218 4.537-6.852 2.32-10.35-20.025-31.595-42.549-60.65-54.191-75.156-2.839-3.538-7.068-5.57-11.604-5.573h-.013c-4.536 0-8.77 2.027-11.623 5.572-17.45 21.742-57.732 74.116-78.749 119.065-18.557-25.554-35.311-46.952-46.254-60.587-3.819-4.76-9.508-7.488-15.607-7.488-6.1 0-11.788 2.729-15.608 7.488-10.942 13.635-27.695 35.033-46.253 60.586-21.018-44.948-61.3-97.322-78.756-119.073-2.848-3.536-7.08-5.563-11.616-5.563h-.013c-4.535.003-8.765 2.035-11.604 5.572-27.707 34.526-92.15 119.823-92.15 166.076 0 56.924 46.074 103.281 102.887 103.759-11.429 26.537-17.201 48.702-17.201 66.277 0 93.911 76.402 170.313 170.313 170.313s170.313-76.402 170.313-170.313c0-17.575-5.771-39.74-17.201-66.277 56.815-.478 102.889-46.835 102.889-103.759zm-497 0c0-33.872 45.838-103.074 88.771-156.588 14.26 17.775 60.841 77.599 80.242 123.696-11.161 15.755-22.693 32.706-33.798 50.146-16.686 26.205-30.151 49.991-40.39 71.301-2.002.137-4.025.214-6.055.214-48.948.001-88.77-39.822-88.77-88.769zm396.314 170.036c0 85.641-69.673 155.313-155.313 155.313s-155.313-69.673-155.313-155.313c0-30.793 21.502-80.838 62.181-144.725 11.713-18.395 23.912-36.248 35.637-52.704.095-.126.188-.253.274-.385 21.306-29.882 41.014-55.107 53.311-70.431 1.312-1.634 3.013-1.877 3.91-1.877s2.599.243 3.909 1.877c12.298 15.323 32.006 40.549 53.313 70.432.086.131.179.257.273.382 11.725 16.457 23.925 34.311 35.638 52.706 40.678 63.887 62.18 113.932 62.18 144.725z"/></g></svg>