<svg id="Capa_1" enable-background="new 0 0 512 512" height="512" viewBox="0 0 512 512" width="512" xmlns="http://www.w3.org/2000/svg"><g><path d="m57.994 410.111-15.038 15.708v-114.458c0-4.143-3.358-7.5-7.5-7.5s-7.5 3.357-7.5 7.5v114.458l-15.038-15.708c-2.864-2.992-7.613-3.095-10.604-.231-2.992 2.865-3.096 7.612-.231 10.604l27.956 29.201c2.079 2.196 6.927 3.778 10.835 0l27.956-29.201c2.865-2.992 2.761-7.739-.231-10.604-2.994-2.864-7.742-2.76-10.605.231zm454.006-238.462c0-46.255-64.444-131.55-92.15-166.074-2.839-3.538-7.068-5.57-11.604-5.573h-.013c-4.535 0-8.769 2.027-11.623 5.572-6.693 8.34-17.108 21.652-28.713 37.713-2.426 3.357-1.671 8.046 1.687 10.472 3.358 2.427 8.046 1.671 10.472-1.687 11.376-15.745 21.587-28.802 28.174-37.011 42.93 53.509 88.77 122.712 88.77 156.588 0 48.947-39.822 88.77-88.77 88.77-2.03 0-4.053-.077-6.055-.214-10.239-21.31-23.704-45.096-40.389-71.301-11.105-17.44-22.636-34.391-33.798-50.146 6.839-16.257 17.672-35.737 32.262-57.992 2.271-3.465 1.304-8.113-2.161-10.385-3.463-2.271-8.113-1.303-10.384 2.16-12.71 19.388-22.7 36.843-29.842 52.1-18.557-25.554-35.311-46.952-46.254-60.588-7.906-9.851-23.35-9.802-31.217 0-10.943 13.635-27.696 35.033-46.253 60.586-21.018-44.949-61.301-97.323-78.757-119.073-2.847-3.536-7.08-5.563-11.616-5.563h-.013c-4.535.003-8.765 2.035-11.603 5.572-27.706 34.524-92.15 119.819-92.15 166.074 0 56.924 46.074 103.281 102.887 103.758-11.429 26.538-17.201 48.703-17.201 66.278 0 46.12 18.137 89.307 51.069 121.604 2.958 2.9 7.707 2.855 10.606-.104 2.9-2.957 2.854-7.705-.103-10.605-30.033-29.453-46.572-68.837-46.572-110.895 0-30.793 21.502-80.838 62.181-144.725 24.283-38.137 67.198-96.073 89.223-123.52 2.247-2.8 5.568-2.807 7.82 0 19.719 24.574 66.055 87.135 89.223 123.52 40.679 63.887 62.181 113.932 62.181 144.725 0 85.641-69.673 155.313-155.313 155.313-29.208 0-57.665-8.149-82.294-23.568-3.51-2.197-8.138-1.132-10.336 2.378-2.198 3.511-1.134 8.139 2.377 10.337 27.018 16.913 58.227 25.854 90.253 25.854 93.911 0 170.313-76.402 170.313-170.313 0-17.575-5.771-39.74-17.201-66.278 56.814-.478 102.887-46.835 102.887-103.759zm-361.786 17.255c-16.685 26.205-30.15 49.991-40.389 71.301-2.002.137-4.025.214-6.055.214-48.948 0-88.77-39.822-88.77-88.77 0-33.874 45.838-103.075 88.77-156.588 14.261 17.775 60.84 77.598 80.243 123.695-11.162 15.756-22.694 32.708-33.799 50.148zm348.869 221.207-15.038 15.708v-114.458c0-4.143-3.358-7.5-7.5-7.5s-7.5 3.357-7.5 7.5v114.458l-15.038-15.708c-2.865-2.992-7.613-3.095-10.604-.231-2.992 2.865-3.096 7.612-.231 10.604l27.956 29.201c2.079 2.196 6.927 3.778 10.835 0l27.956-29.201c2.865-2.992 2.761-7.739-.231-10.604-2.994-2.864-7.742-2.76-10.605.231zm-248.5-10.132c2.079 2.196 6.926 3.777 10.835 0l27.956-29.201c2.865-2.992 2.761-7.739-.231-10.604-2.993-2.864-7.741-2.76-10.604.231l-15.039 15.708v-69.458c0-4.143-3.358-7.5-7.5-7.5s-7.5 3.357-7.5 7.5v69.458l-15.038-15.708c-2.865-2.993-7.613-3.095-10.604-.231-2.992 2.865-3.096 7.612-.231 10.604zm5.417 46.042c52.547 0 95.297-42.75 95.297-95.298s-42.75-95.298-95.297-95.298-95.297 42.75-95.297 95.298 42.75 95.298 95.297 95.298zm0-175.596c44.276 0 80.297 36.021 80.297 80.298s-36.02 80.298-80.297 80.298-80.297-36.021-80.297-80.298 36.021-80.298 80.297-80.298z"/></g></svg>