<svg id="Capa_1" enable-background="new 0 0 512.016 512.016" height="512" viewBox="0 0 512.016 512.016" width="512" xmlns="http://www.w3.org/2000/svg"><g><path d="m142.059 55.016c4.142 0 7.5-3.357 7.5-7.5s-3.358-7.5-7.5-7.5c-30.209 0-58.779 13.278-78.384 36.431-18.305 21.615-26.058 47.775-23.043 77.753 2.841 28.256 15.349 58.204 35.218 84.328 2.524 3.319 7.239 3.918 10.51 1.43 3.297-2.508 3.937-7.213 1.429-10.51-18.217-23.952-29.665-51.208-32.232-76.748-2.591-25.774 3.991-48.168 19.566-66.56 16.748-19.779 41.146-31.124 66.936-31.124zm-10.394 339.723h-83.846c-4.142 0-7.5 3.357-7.5 7.5s3.358 7.5 7.5 7.5h83.845c4.142 0 7.5-3.357 7.5-7.5s-3.357-7.5-7.499-7.5zm362.842-30h-141.666c49.601-32.405 88.276-66.644 115.165-101.993 24.275-31.922 39.61-69.051 43.179-104.548 4.083-40.606-7.091-77.814-32.315-107.6-44.493-52.539-120.106-65.858-179.79-31.66-13.099 7.502-24.902 17.365-35.081 29.314-1.972 2.313-4.884 3.641-7.991 3.641s-6.02-1.327-7.991-3.641c-10.179-11.949-21.982-21.812-35.08-29.314-26.704-15.3-56.917-21.519-87.37-17.964-30.217 3.52-57.99 16.304-80.316 36.969-3.04 2.813-3.223 7.559-.409 10.599 2.813 3.039 7.559 3.225 10.599.409 41.095-38.039 101.391-44.871 150.039-16.998 11.594 6.641 22.063 15.396 31.118 26.025 4.826 5.665 11.9 8.914 19.41 8.914 7.509 0 14.583-3.249 19.409-8.914 9.055-10.629 19.524-19.385 31.119-26.025 53.405-30.6 121.07-18.682 160.888 28.339 22.532 26.606 32.504 59.943 28.837 96.406-3.296 32.781-17.571 67.219-40.193 96.967-29.321 38.546-73.521 75.909-131.373 111.074h-137.375c-57.852-35.165-102.052-72.528-131.372-111.073-20.573-27.054-34.47-58.538-39.131-88.653-5.134-33.17.809-64.401 17.186-90.317 2.212-3.502 1.167-8.135-2.334-10.347-3.501-2.213-8.134-1.168-10.347 2.333-18.342 29.026-25.026 63.821-19.329 100.626 5.109 33.01 19.638 66.012 42.016 95.439 26.889 35.349 65.564 69.587 115.165 101.992h-141.667c-9.649 0-17.5 7.851-17.5 17.5v112.276c0 9.649 7.851 17.5 17.5 17.5h477c9.649 0 17.5-7.851 17.5-17.5v-112.276c0-9.649-7.85-17.5-17.5-17.5zm2.5 129.777c0 1.379-1.122 2.5-2.5 2.5h-56.26v-40.426c0-4.143-3.358-7.5-7.5-7.5s-7.5 3.357-7.5 7.5v40.426h-405.74c-1.378 0-2.5-1.121-2.5-2.5v-112.277c0-1.379 1.122-2.5 2.5-2.5h405.74v41.851c0 4.143 3.358 7.5 7.5 7.5s7.5-3.357 7.5-7.5v-41.851h56.26c1.378 0 2.5 1.121 2.5 2.5zm-241-208.838c42.793 0 77.608-34.815 77.608-77.608s-34.815-77.607-77.608-77.607-77.608 34.814-77.608 77.607 34.815 77.608 77.608 77.608zm0-140.216c34.522 0 62.608 28.086 62.608 62.607 0 34.522-28.086 62.608-62.608 62.608s-62.608-28.086-62.608-62.608c0-34.521 28.086-62.607 62.608-62.607zm-28.72 70.108h21.221v21.221c0 4.143 3.358 7.5 7.5 7.5s7.5-3.357 7.5-7.5v-21.221h21.221c4.142 0 7.5-3.357 7.5-7.5s-3.358-7.5-7.5-7.5h-21.221v-21.221c0-4.143-3.358-7.5-7.5-7.5s-7.5 3.357-7.5 7.5v21.221h-21.221c-4.142 0-7.5 3.357-7.5 7.5s3.358 7.5 7.5 7.5z"/></g></svg>