<svg id="Capa_1" enable-background="new 0 0 512.002 512.002" height="512" viewBox="0 0 512.002 512.002" width="512" xmlns="http://www.w3.org/2000/svg"><g><path d="m142.052 39.973c-30.209 0-58.779 13.278-78.384 36.431-18.305 21.615-26.058 47.775-23.043 77.753 2.841 28.256 15.349 58.204 35.218 84.328 2.524 3.319 7.239 3.918 10.51 1.43 3.297-2.508 3.937-7.213 1.429-10.51-18.217-23.952-29.665-51.208-32.232-76.748-2.591-25.774 3.991-48.168 19.566-66.56 16.75-19.779 41.147-31.124 66.937-31.124 4.142 0 7.5-3.357 7.5-7.5s-3.359-7.5-7.501-7.5zm-94.239 369.723h83.845c4.142 0 7.5-3.357 7.5-7.5s-3.358-7.5-7.5-7.5h-83.845c-4.142 0-7.5 3.357-7.5 7.5s3.358 7.5 7.5 7.5zm262.85-246.207c-3.47 2.263-4.447 6.91-2.184 10.379 6.626 10.158 10.129 21.97 10.129 34.158 0 34.522-28.086 62.608-62.607 62.608-34.522 0-62.608-28.086-62.608-62.608 0-34.521 28.086-62.607 62.608-62.607 10.331 0 20.566 2.567 29.599 7.423 3.646 1.961 8.196.594 10.157-3.054 1.962-3.648.595-8.196-3.054-10.157-11.209-6.026-23.9-9.212-36.702-9.212-42.793 0-77.608 34.814-77.608 77.607s34.815 77.608 77.608 77.608 77.607-34.815 77.607-77.608c0-15.106-4.346-29.752-12.566-42.354-2.264-3.47-6.911-4.446-10.379-2.183zm-83.383 37.038c-4.142 0-7.5 3.357-7.5 7.5s3.358 7.5 7.5 7.5h57.441c4.143 0 7.5-3.357 7.5-7.5s-3.357-7.5-7.5-7.5zm267.221 164.169h-141.666c49.602-32.405 88.276-66.644 115.166-101.993 24.275-31.922 39.609-69.051 43.179-104.548 4.083-40.607-7.092-77.814-32.315-107.6-44.494-52.542-120.108-65.857-179.792-31.66-13.1 7.503-24.902 17.365-35.081 29.314-1.972 2.313-4.884 3.641-7.991 3.641s-6.02-1.327-7.992-3.641c-10.179-11.949-21.982-21.812-35.08-29.314-59.682-34.196-135.297-20.881-179.792 31.661-25.223 29.785-36.398 66.993-32.315 107.599 3.569 35.497 18.904 72.626 43.18 104.549 26.889 35.349 65.564 69.587 115.165 101.992h-141.666c-9.649 0-17.5 7.851-17.5 17.5v112.276c0 9.649 7.851 17.5 17.5 17.5h292.194c4.143 0 7.5-3.357 7.5-7.5s-3.357-7.5-7.5-7.5h-126.454v-117.276h311.26c1.379 0 2.5 1.121 2.5 2.5v112.276c0 1.379-1.121 2.5-2.5 2.5h-149.806c-4.143 0-7.5 3.357-7.5 7.5s3.357 7.5 7.5 7.5h149.806c9.649 0 17.5-7.851 17.5-17.5v-112.276c0-9.649-7.85-17.5-17.5-17.5zm-326.26 132.277h-150.74c-1.378 0-2.5-1.121-2.5-2.5v-112.277c0-1.379 1.122-2.5 2.5-2.5h150.74zm19.073-132.277c-57.852-35.165-102.052-72.528-131.372-111.073-22.623-29.749-36.897-64.187-40.194-96.968-3.667-36.463 6.305-69.8 28.837-96.406 39.818-47.019 107.482-58.939 160.889-28.339 11.594 6.641 22.063 15.396 31.118 26.025 4.826 5.665 11.9 8.914 19.41 8.914 7.509 0 14.583-3.249 19.409-8.914 9.055-10.628 19.524-19.385 31.119-26.025 53.406-30.598 121.07-18.68 160.887 28.339 22.532 26.606 32.505 59.943 28.838 96.406-3.296 32.781-17.57 67.219-40.193 96.967-29.321 38.546-73.52 75.908-131.372 111.074z"/></g></svg>