<svg id="Capa_1" enable-background="new 0 0 512.003 512.003" height="512" viewBox="0 0 512.003 512.003" width="512" xmlns="http://www.w3.org/2000/svg"><g><path d="m124.964 176.447c43.306-5.519 87.394-8.316 131.037-8.316 83.048 0 166.055 10.021 246.715 29.784 3.92.96 8.074-1.438 9.069-5.499.986-4.023-1.477-8.084-5.499-9.069-81.827-20.05-166.035-30.216-250.285-30.216-44.275 0-89.001 2.839-132.934 8.438-4.108.523-7.016 4.278-6.491 8.388.524 4.107 4.276 7.014 8.388 6.49zm89.427-114.636 34.11-35.63v99.591c0 4.143 3.357 7.5 7.5 7.5s7.5-3.357 7.5-7.5v-99.591l34.11 35.63c1.474 1.539 3.444 2.313 5.419 2.313 1.864 0 3.732-.691 5.186-2.082 2.992-2.865 3.096-7.612.231-10.604l-47.027-49.123c-2.079-2.196-6.927-3.778-10.836 0l-47.028 49.123c-2.864 2.992-2.761 7.739.231 10.604 2.99 2.863 7.738 2.762 10.604-.231zm-205.104 136.104c26.75-6.555 54.11-12.107 81.322-16.504 4.089-.661 6.868-4.512 6.208-8.601-.661-4.09-4.508-6.872-8.601-6.208-27.605 4.461-55.362 10.095-82.5 16.744-4.022.985-6.485 5.046-5.499 9.069.994 4.054 5.132 6.465 9.07 5.5zm491.604 18.495c-80.116-19.182-162.509-28.908-244.89-28.908-82.371 0-164.757 9.725-244.866 28.903-6.556 1.568-11.134 7.369-11.134 14.104v49.983c0 6.735 4.568 12.533 11.11 14.101 80.116 19.182 162.509 28.908 244.89 28.908 44.53 0 89.512-2.871 133.693-8.533 4.108-.527 7.013-4.284 6.486-8.393s-4.291-7.003-8.393-6.486c-43.553 5.582-87.892 8.412-131.787 8.412-81.072 0-162.15-9.555-241-28.401v-49.197c78.851-18.846 159.933-28.401 241-28.401 81.072 0 162.15 9.555 241 28.401v49.197c-24.492 5.854-49.509 10.873-74.362 14.92-4.089.665-6.863 4.52-6.197 8.607.665 4.089 4.518 6.868 8.607 6.197 25.342-4.126 50.852-9.249 75.818-15.227 6.556-1.568 11.134-7.369 11.134-14.104v-49.983c.002-6.735-4.567-12.533-11.109-14.1zm-203.279 233.782-34.11 35.63v-99.591c0-4.143-3.357-7.5-7.5-7.5s-7.5 3.357-7.5 7.5v99.591l-34.11-35.63c-2.865-2.992-7.612-3.095-10.604-.231-2.992 2.865-3.096 7.612-.231 10.604l47.028 49.123c2.079 2.196 6.927 3.778 10.836 0l47.028-49.123c2.864-2.992 2.761-7.739-.231-10.604-2.993-2.863-7.74-2.763-10.606.231zm205.104-136.103c-80.661 19.763-163.668 29.784-246.715 29.784-83.048 0-166.055-10.021-246.715-29.784-4.023-.987-8.083 1.477-9.069 5.499-.986 4.023 1.477 8.084 5.499 9.069 81.827 20.05 166.035 30.216 250.285 30.216 84.249 0 168.457-10.166 250.285-30.216 4.022-.985 6.485-5.046 5.499-9.069s-5.046-6.488-9.069-5.499z"/></g></svg>