<svg id="Capa_1" enable-background="new 0 0 512.003 512.003" height="512" viewBox="0 0 512.003 512.003" width="512" xmlns="http://www.w3.org/2000/svg"><g><path d="m5.716 167.915c81.828 20.05 166.036 30.216 250.285 30.216 84.25 0 168.458-10.166 250.285-30.216 4.022-.985 6.485-5.046 5.499-9.069s-5.044-6.488-9.069-5.499c-80.66 19.763-163.667 29.784-246.715 29.784-83.047 0-166.054-10.021-246.715-29.784-4.024-.988-8.084 1.477-9.069 5.499-.986 4.023 1.477 8.083 5.499 9.069zm255.704 213.13c-2.08-2.196-6.926-3.778-10.836 0l-47.028 49.123c-2.864 2.992-2.761 7.739.231 10.604 2.989 2.861 7.738 2.762 10.604-.231l34.11-35.63v99.591c0 4.143 3.357 7.5 7.5 7.5s7.5-3.357 7.5-7.5v-99.591l34.11 35.63c2.868 2.995 7.616 3.093 10.604.231 2.992-2.865 3.096-7.612.231-10.604zm-10.836-250.086c2.08 2.196 6.926 3.778 10.836 0l47.028-49.123c2.864-2.992 2.761-7.739-.231-10.604-2.991-2.862-7.738-2.763-10.604.231l-34.11 35.63v-99.591c0-4.143-3.357-7.5-7.5-7.5s-7.5 3.357-7.5 7.5v99.591l-34.11-35.63c-2.864-2.992-7.611-3.095-10.604-.231-2.992 2.865-3.096 7.612-.231 10.604zm120.501 189.23c-38.068-4.191-76.788-6.316-115.083-6.316-84.25 0-168.458 10.166-250.285 30.216-4.022.985-6.485 5.046-5.499 9.069.994 4.053 5.132 6.464 9.069 5.499 80.66-19.764 163.667-29.784 246.715-29.784 37.749 0 75.916 2.095 113.441 6.227 4.125.455 7.822-2.518 8.275-6.634.454-4.119-2.516-7.824-6.633-8.277zm135.417-127.674c-3.497-2.769-7.993-3.766-12.331-2.743-77.947 18.4-158.079 27.729-238.169 27.729-38.979 0-78.387-2.233-117.132-6.64-4.118-.458-7.831 2.489-8.3 6.604-.468 4.116 2.489 7.832 6.604 8.3 39.306 4.469 79.285 6.735 118.827 6.735 81.041 0 162.116-9.414 241-27.985v101.971c-78.883-18.57-159.961-27.985-241-27.985-81.04 0-162.116 9.414-241 27.985v-101.97c28.548 6.721 57.729 12.309 86.75 16.61 4.095.606 7.911-2.222 8.519-6.319.607-4.097-2.222-7.911-6.319-8.519-28.81-4.271-57.783-9.827-86.116-16.516-4.343-1.024-8.839-.025-12.335 2.742-3.494 2.766-5.498 6.908-5.498 11.367v103.24c0 4.457 2.005 8.6 5.5 11.365 3.51 2.777 8.031 3.758 12.331 2.743 77.948-18.4 158.08-27.729 238.169-27.729s160.22 9.329 238.167 27.729c4.342 1.024 8.839.025 12.335-2.742 3.494-2.766 5.498-6.908 5.498-11.367v-103.24c0-4.457-2.005-8.599-5.5-11.365zm-.215 151.574c-32.922-8.066-66.629-14.609-100.187-19.448-4.099-.595-7.902 2.254-8.493 6.353-.592 4.1 2.253 7.902 6.353 8.493 33.078 4.771 66.306 11.221 98.757 19.171 3.919.96 8.074-1.438 9.069-5.499.986-4.025-1.477-8.085-5.499-9.07z"/></g></svg>