<?xml version="1.0" encoding="UTF-8"?><svg id="Layer_2" xmlns="http://www.w3.org/2000/svg" viewBox="0 0 101 68.52"><defs><style>.cls-1{fill:#96959a;}.cls-2{fill:#0b67b2;}</style></defs><g id="Layer_1-2"><path class="cls-1" d="M95.35,31.71c-1.62,5.25-3.21,10.38-4.81,15.58h-4c-24.22,0-48.44-.03-72.66,.05-2.07,0-2.98-.54-3.52-2.61-1.12-4.35-2.58-8.61-4-13.23H25.41c1.45,0,2.92,.13,4.35-.03,3.95-.43,7.04,.29,9.33,4.18,.9,1.53,3.8,2.59,5.82,2.63,11.51,.25,23.04,.12,34.56,.12,2.71,0,5.29-.76,6.47-3.24,2.04-4.28,5.49-3.92,9.42-3.45m-11.62-2.22c-1.33,4.04-2.22,4.53-7.72,4.04v-4.04h7.72Zm.9-5.13h-8.57v-4.03h8.57v4.03Zm-13.58,9.15h-8.62v-4h8.62v4Zm.16-9.11h-8.79v-4.03h8.61c.06,1.25,.11,2.54,.18,4.03m-13.75,9.13h-8.57v-4.03h8.57v4.03Zm-.11-9.12h-8.56v-4.05h8.56v4.05ZM27.98,13.19h-8.55v-3.95h8.55v3.95Zm-.1,13.56H12.52v-8.74h15.36v8.74Zm-14.95,25.42H88.57c-.9,2.88-2.89,4.2-6.64,4.23-5.26,.05-10.53,.01-15.79,.01-15.25,0-30.49,0-45.74,0-3.18,0-5.8-.87-7.46-4.25m79.48,3.82c2.92-8.69,5.75-17.12,8.59-25.55v-2.17c-1.5-.44-2.98-1.12-4.5-1.27-2.23-.22-4.49-.06-6.97-.06,0-2.93-.05-5.54,.02-8.15,.05-2.17-.93-3.12-3.11-3.11-13.07,.03-26.14,.04-39.21-.01-2.35,0-3.29,1.03-3.28,3.26,.03,4.79,0,9.58,0,15.12-3.48-3.25-5.12-8.4-11.12-6.83v-8.21c0-3.44,0-6.88,0-10.31,0-4.01-.3-4.3-4.34-4.33-.72,0-1.44,0-2.22,0-.82-1.64,.32-4.83-2.77-4.32-1.15,.19-1.97,2.34-2.94,3.59,.18,.24,.36,.48,.54,.73-.88,0-1.77,0-2.65,0-3.58,.02-3.98,.44-3.99,4.12,0,1.52,0,3.04,0,4.5-.51,.16-.76,.29-1.02,.32q-5.67,.47-5.68,6.28v7.35c-1.52,0-2.77-.07-4.01,.01-2.43,.16-3.23,1.25-2.52,3.57,2.6,8.52,5.26,17.03,7.99,25.88-.18,0-.38,0-.57,0l.33,.11s.01,4.02,4.36,4.39c24.56,0,49.12,0,73.68,.02,.22-.08,3.99-1.49,4.96-4.41,.07-.2,.21-.37,.41-.53"/><path class="cls-2" d="M17.67,37.24c0-1.56-1.26-2.82-2.82-2.82s-2.82,1.26-2.82,2.82,1.26,2.82,2.82,2.82,2.82-1.26,2.82-2.82m8.68,0c0-1.56-1.26-2.82-2.82-2.82s-2.82,1.26-2.82,2.82,1.26,2.82,2.82,2.82,2.82-1.26,2.82-2.82m8.68,0c0-1.56-1.26-2.82-2.82-2.82s-2.82,1.26-2.82,2.82,1.26,2.82,2.82,2.82,2.82-1.26,2.82-2.82"/><path class="cls-2" d="M2.92,62.69c-1.61,0-2.92,1.31-2.92,2.91s1.3,2.92,2.92,2.92H98.08c1.61,0,2.92-1.31,2.92-2.92s-1.31-2.91-2.92-2.91H2.92Z"/></g></svg>