<?xml version="1.0" encoding="UTF-8"?><svg id="Layer_2" xmlns="http://www.w3.org/2000/svg" viewBox="0 0 63.75 74.37"><defs><style>.cls-1{fill:#fff;}.cls-2{fill:#6dcff6;}</style></defs><g id="Layer_1-2"><g><path class="cls-1" d="M42.56,66.4c3.06,0,6.05,0,9.03,0,1.24,0,1.55-.32,1.55-1.58V17.94c0-1.3-.32-1.63-1.6-1.63-2.77,0-5.53,0-8.3,0-.21,0-.43,.03-.66,.05v4.9c1.37,0,2.67,0,3.97,0,.89,0,1.26,.37,1.28,1.25,.01,.8,0,1.61,0,2.41,0,1.39-.27,1.66-1.62,1.66-1.21,0-2.42,0-3.62,0v5.25c.12,.03,.17,.05,.23,.05,1.11,0,2.21,.01,3.32,.01,1.45,0,1.7,.25,1.71,1.66,0,.72,0,1.44,0,2.16,0,1.15-.33,1.49-1.46,1.49-1.26,0-2.52,0-3.79,0v5.31c1.28,0,2.5,0,3.71,0,1.22,0,1.53,.3,1.53,1.49,0,.8,0,1.6,0,2.41,0,1.08-.34,1.42-1.44,1.42-1.26,0-2.53,0-3.87,0v5.31c1.43,0,2.76,0,4.08,0,.84,0,1.21,.38,1.23,1.21,.02,.77,0,1.55,0,2.32,0,1.55-.22,1.77-1.76,1.77h-3.55c0,2.58,0,5.01,0,7.45,0,.13,.02,.27,.04,.51m-5.36-30.45h0c0-9.68,0-19.37,0-29.05,0-1.27-.3-1.58-1.55-1.58-7.8,0-15.6,0-23.41,0-1.32,0-1.61,.3-1.61,1.6,0,19.31,0,38.62,0,57.94,0,1.23,.33,1.55,1.58,1.55,7.77,0,15.55,0,23.32,0,1.35,0,1.65-.3,1.65-1.65v-28.8m21.26,33.12c1.37,0,2.61,0,3.86,0,1.07,0,1.42,.37,1.43,1.46,0,.75,0,1.49,0,2.24-.02,1.25-.34,1.58-1.58,1.58-5.67,0-11.34,0-17.02,0-14.39,0-28.78,0-43.16,0-.3,0-.61,.03-.91,0-.66-.08-1.06-.44-1.07-1.14,0-1-.02-1.99,0-2.99,.02-.78,.4-1.14,1.2-1.15,1.33-.02,2.65,0,4.1,0v-1.08c0-21.72,0-43.44,0-65.16C5.32,.89,6.23,0,8.17,0,18.66,0,29.14,0,39.63,0c1.98,0,2.87,.89,2.88,2.89,0,2.65,0,5.31,0,8.1h1c4.01,0,8.02,0,12.04,0,1.97,0,2.91,.92,2.91,2.88,0,18.01,0,36.02,0,54.04v1.17"/><g><path class="cls-2" d="M26.57,13.22c-.04-2.61-.03-2.63,2.6-2.6,.47,0,.94,0,1.41,0,.84,.02,1.25,.38,1.27,1.19,.03,.97,.03,1.94,0,2.9-.02,.76-.44,1.18-1.2,1.19-.91,.02-1.83,.02-2.74,0-.97-.01-1.33-.4-1.34-1.37,0-.44,0-.89,0-1.33"/><path class="cls-2" d="M15.95,23.87c0-.41,0-.83,0-1.24,.01-1.01,.35-1.36,1.33-1.37,.89,0,1.77-.01,2.65,0,.88,.01,1.28,.38,1.3,1.24,.02,.94,.02,1.88-.01,2.82-.02,.82-.43,1.21-1.25,1.23-.91,.02-1.82,.02-2.74,0-.92-.02-1.28-.4-1.29-1.34,0-.44,0-.89,0-1.33h0Z"/><path class="cls-2" d="M15.95,55.75c0-.39,0-.77,0-1.16,0-1.11,.32-1.44,1.41-1.45,.89,0,1.77,0,2.65,0,.78,0,1.19,.41,1.22,1.16,.03,.97,.03,1.94,0,2.9-.02,.82-.42,1.19-1.26,1.22-.91,.02-1.82,.03-2.74,0-.91-.02-1.27-.41-1.28-1.35,0-.44,0-.88,0-1.33h0Z"/><path class="cls-2" d="M18.58,31.88c.44,0,.88,0,1.33,0,.89,.02,1.29,.37,1.32,1.23,.03,.94,.03,1.88,0,2.82-.02,.81-.43,1.2-1.25,1.23-.94,.02-1.88,.03-2.82,0-.82-.02-1.19-.42-1.21-1.25-.01-.91,0-1.83,0-2.74,0-.93,.36-1.28,1.31-1.3,.44,0,.89,0,1.33,0h0Z"/><path class="cls-2" d="M29.26,31.88q2.61,0,2.61,2.6t-2.7,2.7-2.6-2.63c0-.5-.01-1,0-1.49,.03-.79,.4-1.14,1.19-1.17,.5-.02,.99,0,1.49,0"/><path class="cls-2" d="M15.95,45.15c0-.53-.02-1.05,0-1.58,.03-.65,.4-1.03,1.05-1.05,1.05-.03,2.1-.03,3.15,0,.71,.01,1.05,.47,1.07,1.13,.04,.99,.04,1.99,.01,2.99-.02,.72-.43,1.14-1.14,1.16-.99,.03-1.99,.03-2.99,0-.75-.03-1.16-.44-1.15-1.23,0-.47,0-.94,0-1.41h0Z"/><path class="cls-2" d="M26.57,45.14c0-.5-.01-1,0-1.49,.02-.73,.39-1.13,1.13-1.14,1-.01,1.99,0,2.99,0,.74,0,1.13,.43,1.15,1.14,.03,.97,.03,1.94,0,2.9-.02,.82-.42,1.21-1.24,1.23-.91,.03-1.82,.03-2.74,.01-.93-.02-1.29-.41-1.3-1.33,0-.44,0-.88,0-1.33h0Z"/><path class="cls-2" d="M18.58,10.63c.47,0,.94,0,1.41,0,.82,.02,1.21,.39,1.24,1.23,.03,.94,.03,1.88,0,2.82-.02,.82-.42,1.22-1.24,1.24-.94,.02-1.88,.02-2.82,0-.83-.02-1.21-.42-1.22-1.24-.02-.91-.02-1.82,0-2.74,0-.94,.37-1.29,1.31-1.3,.44,0,.89,0,1.33,0h0Z"/><path class="cls-2" d="M26.57,23.84c-.07-2.59-.03-2.65,2.59-2.58,.47,.01,.94,0,1.41,0,.83,.02,1.25,.38,1.28,1.19,.03,.97,.02,1.93,0,2.9-.02,.77-.45,1.17-1.2,1.19-.94,.02-1.88,.03-2.82,0-.86-.02-1.24-.42-1.26-1.3-.01-.47,0-.94,0-1.41"/><path class="cls-2" d="M29.23,53.13c.41,0,.83,0,1.24,0,.98,.01,1.37,.37,1.39,1.33,.02,.88,.02,1.77,0,2.65-.02,.91-.41,1.29-1.34,1.3-.89,.01-1.77,.01-2.65,0-.89-.02-1.27-.4-1.28-1.26-.02-.91-.02-1.83,0-2.74,.01-.93,.37-1.27,1.33-1.28,.44,0,.88,0,1.33,0h0Z"/></g></g></g></svg>