<?xml version="1.0" encoding="UTF-8"?><svg id="Layer_2" xmlns="http://www.w3.org/2000/svg" viewBox="0 0 106.2 58.76"><defs><style>.cls-1{fill:#96959a;}.cls-2{fill:#0b67b2;}</style></defs><g id="Layer_1-2"><path class="cls-1" d="M61.6,46.91c1.3-.66,2.61-1.31,3.9-1.99,1.08-.57,2.11-.53,3.21-.02,1.11,.52,2.26,.95,3.41,1.35,1.02,.36,1.75,.98,2.11,2.01,.47,1.32,.95,2.63,1.41,3.95,.08,.24,.19,.36,.45,.35,.79-.01,1.58,0,2.36,0,.47-1.45,.94-2.82,1.37-4.21,.36-1.18,1.13-1.89,2.3-2.29,1.08-.37,2.14-.85,3.15-1.37,1.08-.55,2.12-.63,3.21-.1,1.2,.58,2.42,1.13,3.62,1.72,.26,.13,.43,.14,.64-.09,.44-.48,.9-.95,1.37-1.4,.2-.2,.2-.36,.07-.6-.63-1.2-1.22-2.41-1.85-3.61-.55-1.06-.51-2.08,0-3.16,.51-1.08,.94-2.19,1.32-3.32,.37-1.12,1.06-1.87,2.17-2.26,1.3-.45,2.6-.92,3.9-1.4,.13-.05,.29-.24,.29-.37,0-.68-.04-1.37-.04-2.05,0-.28-.12-.4-.38-.48-1.31-.42-2.62-.86-3.93-1.29-1.06-.34-1.71-1.04-2.11-2.07-.48-1.22-1.03-2.43-1.57-3.62-.43-.94-.46-1.85-.01-2.78,.59-1.23,1.16-2.48,1.76-3.7,.15-.31,.15-.52-.12-.76-.45-.4-.89-.83-1.31-1.27-.24-.26-.43-.23-.72-.08-1.22,.64-2.46,1.26-3.7,1.88-.95,.48-1.89,.42-2.87,0-1.19-.52-2.41-.98-3.63-1.43-.98-.36-1.68-.98-2.03-1.97-.51-1.41-1.01-2.83-1.54-4.29-.82,0-1.66-.01-2.5,.02-.11,0-.27,.22-.32,.37-.44,1.31-.87,2.62-1.29,3.93-.34,1.07-1.08,1.73-2.12,2.13-1.14,.44-2.28,.91-3.38,1.45-1.03,.51-2.01,.57-3.04,.09-1.25-.59-2.5-1.18-3.74-1.78-.23-.11-.38-.13-.56,.08-.44,.48-.89,.95-1.37,1.45,.64,1.17,1.32,2.39,1.99,3.61,.64,1.15,.61,2.28-.1,3.39-1.15,1.81-2.31,3.62-3.46,5.43-.1,.16-.18,.37-.17,.56,.14,2.5,.25,5.01,.48,7.5,.12,1.34-.42,2.37-1.07,3.43-1.31,2.13-2.63,4.26-3.88,6.43-.86,1.49-2.1,2.01-3.76,1.81-1.14-.14-2.29-.23-3.44-.32-.13,0-.3,.07-.4,.16-.35,.31-.69,.63-1,.98-.11,.12-.18,.32-.17,.49,.07,1.46,.14,2.92,.24,4.38,.09,1.5-.48,2.61-1.82,3.34-2.29,1.24-4.69,2.21-7.22,2.82-1.26,.3-2.34-.03-3.19-1.02-1.02-1.18-2.02-2.37-3.05-3.53-.12-.14-.35-.21-.54-.25-1.16-.24-1.97,.22-2.67,1.15-.68,.9-1.5,1.7-2.28,2.54-.85,.91-1.89,1.24-3.09,.92-2.61-.7-5.08-1.74-7.39-3.14-1.18-.71-1.69-1.76-1.56-3.14,.14-1.55,.24-3.1,.36-4.65,0-.03,0-.06,0-.09-.04-.34-1.38-1.46-1.73-1.44-1.54,.07-3.08,.14-4.62,.2-1.33,.06-2.3-.51-2.95-1.67-1.34-2.38-2.34-4.9-2.94-7.57-.25-1.09,.07-2.06,.88-2.8,1.19-1.1,2.44-2.13,3.68-3.17,.22-.19,.29-.38,.33-.66,.17-1.1-.23-1.86-1.11-2.53-.91-.69-1.71-1.54-2.57-2.31-.92-.83-1.29-1.87-.99-3.07,.63-2.55,1.57-4.96,2.96-7.21,.99-1.6,2.33-2.1,4.12-1.8,1.24,.21,2.5,.3,3.75,.42,.15,.01,.36-.08,.47-.19,.51-.48,1-.98,1.48-1.49,.08-.09,.16-.24,.15-.35-.12-1.55-.24-3.1-.39-4.65-.1-1.05,.61-2.41,1.55-2.89,2.31-1.16,4.71-2.08,7.22-2.68,1.25-.3,2.34,.02,3.19,1.02,1,1.17,2,2.35,3.02,3.5,.14,.16,.41,.22,.63,.27,.21,.04,.45-.03,.65,.02,.68,.18,1.08-.18,1.49-.65,.88-1.03,1.81-2.02,2.72-3.02,.9-.98,2.01-1.26,3.27-.92,2.58,.71,5.01,1.75,7.29,3.15,1.18,.72,1.64,1.79,1.52,3.17-.14,1.52-.24,3.04-.34,4.56,0,.15,.1,.35,.21,.47,.69,.8,1.44,1.55,2.1,2.38,1.1,1.36,.85,3.29-.52,4.36-1.35,1.05-3.22,.78-4.34-.52-.84-.98-1.76-1.89-2.7-2.77-.82-.78-1.18-1.69-1.09-2.8,.12-1.36,.24-2.73,.34-4.09,.01-.14-.11-.37-.23-.43-.66-.32-1.33-.6-2.01-.86-.11-.04-.35,.06-.45,.17-.84,.9-1.68,1.8-2.47,2.74-.94,1.12-2.06,1.57-3.54,1.37-1.11-.15-2.27-.07-3.4-.02-1.13,.04-2.02-.36-2.74-1.22-.87-1.04-1.77-2.05-2.64-3.09-.17-.2-.31-.26-.55-.16-.5,.2-1.01,.39-1.53,.56-.24,.08-.29,.2-.26,.45,.12,1.36,.23,2.73,.31,4.09,.08,1.21-.49,2.07-1.41,2.83-1.03,.85-1.96,1.81-2.89,2.77-.61,.63-1.24,1.22-2.14,1.29-.64,.05-1.3-.04-1.95-.1-1.01-.09-2.01-.21-3.01-.33-.26-.03-.4,.06-.49,.29-.24,.6-.48,1.21-.74,1.81-.1,.22-.05,.36,.13,.52,.97,.87,1.92,1.77,2.91,2.63,.74,.64,1.26,1.38,1.32,2.37,.03,.42-.06,.84-.06,1.25-.01,1.01-.05,2.02,0,3.03,.06,1.17-.29,2.13-1.19,2.9-1.02,.86-2.03,1.75-3.06,2.6-.28,.23-.32,.43-.19,.74,.23,.54,.45,1.09,.65,1.65,.12,.32,.28,.44,.65,.42,1.35-.09,2.71-.13,4.06-.21,1.17-.07,2.05,.4,2.81,1.28,.73,.85,1.48,1.7,2.33,2.42,1.12,.94,1.48,2.07,1.31,3.48-.15,1.25-.22,2.51-.31,3.77,0,.1,.11,.26,.2,.3,.66,.3,1.33,.6,2.01,.86,.13,.05,.38-.06,.49-.17,.93-1,1.85-2.02,2.77-3.03,.82-.9,1.81-1.22,3.02-1.07,.91,.11,1.83,.07,2.75,.09,.59,.01,1.19-.06,1.77,.02,.74,.1,1.31,.53,1.79,1.1,.89,1.04,1.79,2.08,2.67,3.13,.2,.24,.37,.27,.64,.15,.61-.26,1.24-.48,1.85-.76,.12-.05,.24-.26,.23-.4-.05-1.39-.14-2.77-.2-4.15-.05-1.13,.34-2.04,1.22-2.79,.86-.74,1.74-1.49,2.45-2.36,1-1.23,2.22-1.53,3.7-1.34,.94,.12,1.89,.19,2.83,.24,.15,0,.38-.12,.46-.25,.99-1.6,1.99-3.19,2.91-4.83,.2-.36,.14-.9,.12-1.35-.09-1.79-.22-3.57-.33-5.36-.04-.64-.06-1.28-.11-1.91-.05-.73,.16-1.38,.55-1.98,1.02-1.58,2.03-3.16,3.02-4.75,.08-.13,.09-.38,.02-.52-.69-1.29-1.41-2.56-2.1-3.85-.64-1.2-.53-2.39,.31-3.45,1.53-1.92,3.3-3.6,5.21-5.15,1.15-.93,2.37-1.05,3.69-.41,1.34,.65,2.69,1.29,4.04,1.91,.17,.08,.42,.07,.6,0,.41-.14,.81-.32,1.19-.53,.16-.09,.3-.3,.36-.48,.45-1.34,.92-2.67,1.31-4.02,.47-1.64,1.51-2.48,3.29-2.58,1.86-.11,3.72-.16,5.59-.19,.69-.01,1.4,.06,2.09,.2,1.17,.24,1.94,.98,2.34,2.11,.51,1.45,1.03,2.89,1.56,4.33,.06,.16,.22,.31,.38,.41,1,.61,1.93,.56,2.94-.11,.94-.62,2-1.06,3.02-1.56,1.17-.57,2.29-.48,3.34,.29,2.11,1.55,3.96,3.36,5.59,5.4,.89,1.12,1.06,2.31,.44,3.61-.65,1.34-1.3,2.69-1.92,4.04-.09,.2-.07,.47-.02,.69,.24,1.12,.95,1.67,2.07,1.91,1.06,.23,2.06,.68,3.1,.99,1.5,.45,2.21,1.48,2.41,2.98,.3,2.22,.35,4.43,.17,6.66-.09,1.06-.18,2.13-1.08,2.89-.31,.26-.68,.51-1.06,.65-1.38,.52-2.77,1.01-4.16,1.49-.41,.14-.63,.38-.86,.78-.5,.91-.34,1.65,.16,2.49,.57,.96,1.02,1.99,1.54,2.98,.7,1.34,.58,2.57-.34,3.78-1.56,2.04-3.34,3.86-5.35,5.45-1.05,.83-2.2,.95-3.42,.39-1.38-.64-2.75-1.29-4.13-1.95-.25-.12-.47-.21-.73-.01-.13,.1-.3,.17-.47,.2-.74,.16-1.06,.65-1.25,1.35-.32,1.18-.77,2.33-1.11,3.5-.47,1.58-1.54,2.35-3.14,2.54-2.39,.29-4.78,.34-7.17,.09-1.43-.15-2.48-.8-2.98-2.22-.49-1.41-1.01-2.8-1.5-4.21-.11-.3-.25-.52-.58-.58-.06,0-.12-.03-.17-.07-.81-.52-1.54-.4-2.35,.09-1.02,.62-2.12,1.11-3.18,1.65-1.18,.6-2.34,.57-3.42-.22-.68-.5-1.33-1.03-1.96-1.58-1.29-1.12-1.46-3.06-.4-4.27,1.21-1.4,3.04-1.56,4.44-.4,.05,.04,.1,.08,.16,.12"/><path class="cls-2" d="M83.85,29.34c0-3.27-2.71-5.98-5.97-5.97-3.32,.01-5.95,2.65-5.96,5.97,0,3.27,2.69,5.97,5.96,5.98,3.27,0,5.97-2.7,5.97-5.97m6.17,.03c0,6.66-5.45,12.13-12.05,12.12-6.81-.02-12.29-5.43-12.24-12.17,.05-6.91,5.61-12.15,12.25-12.13,6.64,.02,12.05,5.49,12.04,12.18"/><path class="cls-2" d="M22.96,29.28c-.05,3.25,2.58,5.98,5.84,6.04,3.27,.06,6.02-2.59,6.07-5.86,.05-3.32-2.56-6.03-5.9-6.08-3.39-.05-6.15,2.9-6.01,5.9m18.08,.1c.05,6.55-5.36,12.14-12.2,12.12-6.65-.03-12.17-5.48-12.08-12.15,.09-7.11,5.64-12.16,12.24-12.14,6.66,.01,12.05,5.48,12.04,12.18"/></g></svg>