<?xml version="1.0" encoding="UTF-8"?><svg id="Layer_2" xmlns="http://www.w3.org/2000/svg" viewBox="0 0 75.39 72.25"><defs><style>.cls-1{fill:#96959a;}.cls-2{fill:#0b67b2;}</style></defs><g id="Layer_1-2"><path class="cls-1" d="M44.12,41.81c-.24-.54-.46-1.02-.72-1.58-.56,.53-.97,1.04-1.1,1.73-.1,.51-.24,.99-.91,1.14-.19-.59-.38-1.16-.57-1.74-.06-.17-.09-.37-.18-.52-.27-.43-.5-.93-1.17-.8-.21,.04-.44-.05-.69-.08,.68,.64,.75,.95,.1,1.63-.44,.47-1,.85-1.57,1.15-.57,.3-.96,.1-1.23-.48-.26-.55-.47-1.13-.74-1.68-.13-.27-.32-.51-.47-.76-.78,.37-.92,.7-.62,1.41,.35,.81,.89,1.47,1.57,2.01,.15,.12,.41,.11,.63,.12,.11,0,.23-.1,.34-.12,.24-.02,.49-.02,.73-.02,0,.26,.1,.58-.02,.77-.34,.55-.76,1.06-1.17,1.57-.13,.16-.33,.28-.51,.39-.62,.38-.88,.87-.67,1.62,.13,.48,.1,.97-.51,1.22-.22,.09-.36,.36-.53,.56-.44,.55-.84,1.14-1.33,1.64-.29,.29-.69,.52-1.09,.65-.67,.22-1.24-.02-1.63-.6-.61-.93-.93-1.89-.65-3.04,.21-.86-.03-1.73-.56-2.44-.19-.25-.66-.36-1.02-.38-.53-.04-1.07,.05-1.6,.09-1.7,.12-2.76-.78-2.91-2.5-.14-1.54,.52-2.77,1.59-3.81,.07-.06,.15-.12,.23-.15,1.02-.33,2.04-.67,3.06-.99,.1-.03,.21-.04,.32-.05,.78-.07,1.08,.22,1.01,.98,.45,.13,.91,.27,1.39,.41,.38-.42,.84-.54,1.35-.16,.06,.04,.14,.07,.21,.09,1.24,.4,1.47,.28,1.8-1.2-.69,.05-1.33-.04-1.8-.68-.13,.28-.24,.52-.39,.86-.1-.21-.16-.35-.24-.48-.35-.53-.66-1.12-1.09-1.58-.68-.72-1.54-.67-2.21,.07-.29,.32-.53,.67-.8,1.01-.44,.54-1.03,.7-1.69,.64-.61-.05-1-.54-.98-1.19,.02-.73,.37-1.08,1.05-1.13,.24-.02,.62-.07,.67-.2,.13-.35-.2-.53-.47-.68-.09-.05-.17-.11-.32-.2,1.15-.83,2.27-1.59,3.63-1.99-.1-.21-.2-.43-.3-.64-.61,.1-1.1-.17-1.24-.67-.18-.62,.07-1.09,.69-1.36,.14-.06,.26-.23,.34-.37,.28-.47,.49-.99,.81-1.43,.32-.45,.78-.76,1.35-.79,.27-.01,.58,.05,.81,.18,1.07,.6,2.18,.98,3.43,.66,.69-.17,1.27-.53,1.75-1.05,.31-.34,.62-.68,.95-1.04,5.6,3.61,7.6,10.53,5.89,15.95M27.08,23.92c-.54,.46-.66,1.01-.67,1.66,0,.33-.34,.66-.56,1.06,.36,.64-.11,1.28-.78,1.71-.7,.45-1.41,.91-2.05,1.44-.26,.21-.41,.6-.51,.94-.11,.35-.2,.67-.6,.71-.39,.04-.64-.21-.76-.55-.15-.4-.28-.81-.36-1.23-.08-.44,0-.85,.43-1.12,.1-.06,.18-.21,.2-.33,.04-.19,.06-.41,.01-.59-.21-.78,.09-1.26,.77-1.68,1.38-.86,2.8-1.58,4.37-2,.1-.03,.21-.06,.31-.07,.04,0,.08,.02,.19,.04m-8.06,18.8c.72,.48,1.42,1.01,2.05,1.6,.33,.3,.65,.54,1.07,.65,.43,.11,.86,.22,1.28,.36,.67,.24,.91,.54,.87,1.24-.04,.64-.17,1.27-.27,1.91-.01,.08-.07,.17-.13,.24-.39,.42-.78,.83-1.24,1.32-2.77-1.77-4.77-4.25-5.94-7.47,.82-.16,1.6-.31,2.3,.16M74.47,12.73c-.12-1.48-.9-2.64-2.25-3.38-.85-.46-1.67-.98-2.52-1.44-1.39-.75-2.79-.74-4.17,0-.88,.48-1.73,.99-2.59,1.49-1.46,.84-2.18,2.15-2.19,3.79-.01,1.43-.19,2.88,.23,4.3-5.85,3.37-11.68,6.72-17.52,10.08-3.14-3.85-7.15-5.95-12.05-6.37,0-2.26,0-4.45,0-6.64,0-.1,.1-.25,.2-.3,.43-.24,.86-.47,1.29-.69h-5.3c.39,.2,.77,.41,1.15,.62,.27,.15,.38,.26,.38,.57-.01,2.01-.02,4.02,0,6.03,0,.35-.1,.47-.45,.51-.68,.07-1.37,.16-2.04,.31-8.82,2.04-14.35,10.55-12.63,19.45,.17,.88,.44,1.74,.67,2.66-.98,.54-1.98,1.11-2.99,1.65-.08,.04-.26,.03-.31-.03-.63-.78-1.55-1.14-2.38-1.63-1.53-.91-3.08-.9-4.62-.01-.41,.24-.82,.48-1.23,.71-1.19,.67-1.89,1.7-2.1,3.03-.11,.72-.09,1.47-.08,2.2,.02,1.69,.74,3.01,2.22,3.87,.4,.23,.8,.45,1.2,.69,1.54,.9,3.08,.9,4.62,0,.41-.24,.83-.47,1.24-.71,1.4-.84,2.13-2.08,2.16-3.71,.01-.63-.01-1.26,0-1.89,0-.13,.05-.33,.14-.39,1.02-.59,2.05-1.15,3.1-1.74,3.03,5.19,7.5,8.08,13.48,8.72,0,1.09,0,2.16,0,3.23,0,.09-.1,.21-.19,.26-1.21,.67-2.45,1.27-3.61,2-1.22,.76-1.86,1.93-1.91,3.38-.03,1.09-.03,2.18,0,3.27,.04,1.52,.75,2.7,2.03,3.5,.86,.53,1.74,1.03,2.63,1.52,1.44,.8,2.9,.81,4.34,.02,.89-.49,1.77-.99,2.63-1.52,1.34-.83,2.03-2.05,2.08-3.62,.03-1.01,.03-2.03,0-3.04-.05-1.57-.74-2.79-2.09-3.62-.81-.5-1.64-.96-2.47-1.43-.39-.22-.94-.35-1.13-.68-.2-.35-.04-.9-.04-1.36,0-.64,0-1.28,0-1.89,6.73-.73,11.46-4.14,14.33-10.2,.21,.1,.39,.18,.57,.27,2.87,1.39,5.74,2.78,8.61,4.18,1.88,.91,3.76,1.81,5.63,2.74,.13,.07,.31,.24,.31,.36-.02,1.33-.14,2.66-.09,3.99,.06,1.53,.76,2.76,2.11,3.56,.88,.53,1.77,1.05,2.67,1.54,1.38,.75,2.79,.75,4.18,0,.89-.48,1.76-1.01,2.63-1.51,1.17-.67,1.92-1.69,2.07-2.99,.15-1.35,.18-2.73,.06-4.08-.12-1.48-.91-2.64-2.26-3.37-.82-.45-1.62-.93-2.44-1.4-1.18-.68-2.46-.83-3.67-.28-1.3,.59-2.52,1.39-3.75,2.14-.27,.17-.44,.21-.73,.07-4.85-2.36-9.71-4.72-14.57-7.07-.63-.3-.63-.3-.49-.97,.73-3.41,.47-6.74-.86-9.97-.29-.69-.63-1.36-.96-2.06,.15-.1,.31-.2,.46-.29,3.9-2.24,7.79-4.48,11.68-6.73,1.67-.96,3.35-1.93,5.03-2.88,.13-.08,.37-.13,.48-.07,1.02,.57,2.01,1.18,3.03,1.75,1.44,.82,2.89,.81,4.34,.03,.86-.47,1.7-.98,2.55-1.47,1.19-.68,1.94-1.71,2.09-3.03,.15-1.33,.17-2.7,.06-4.04"/><path class="cls-2" d="M66.04,22.83c4.69,0,8.5-3.81,8.5-8.5s-3.81-8.5-8.5-8.5-8.5,3.81-8.5,8.5,3.81,8.5,8.5,8.5"/><path class="cls-2" d="M67.89,61.85c4.14,0,7.5-3.36,7.5-7.5s-3.36-7.5-7.5-7.5-7.5,3.36-7.5,7.5,3.36,7.5,7.5,7.5"/><path class="cls-2" d="M30.24,72.25c4.14,0,7.5-3.36,7.5-7.5s-3.36-7.5-7.5-7.5-7.5,3.36-7.5,7.5,3.36,7.5,7.5,7.5"/><path class="cls-2" d="M6.39,55.83c3.53,0,6.39-2.91,6.39-6.5s-2.86-6.5-6.39-6.5-6.39,2.91-6.39,6.5,2.86,6.5,6.39,6.5"/><path class="cls-2" d="M30.24,14.33c3.89,0,7.04-3.21,7.04-7.16S34.13,0,30.24,0s-7.04,3.21-7.04,7.17,3.15,7.16,7.04,7.16"/></g></svg>