<?xml version="1.0" encoding="UTF-8"?><svg id="Layer_2" xmlns="http://www.w3.org/2000/svg" viewBox="0 0 73.58 73.73"><defs><style>.cls-1{fill:#fff;}.cls-2{fill:#6dcff6;}</style></defs><g id="Layer_1-2"><g><path class="cls-1" d="M23.02,47.81c0-2.03,.03-3.91-.03-5.78-.01-.37-.29-.79-.56-1.07-1.81-1.87-2.28-4.05-1.26-6.4,1.03-2.37,3.03-3.39,5.59-3.38,3.89,.01,7.77,0,11.66,0h1.75c0-1.67-.02-3.17,0-4.66,.02-.83-.33-1.15-1.16-1.14-4.58,.05-9.18-.11-13.75,.17-4.04,.25-7.04,2.5-9.01,6.02-.27,.48-.31,1.26-.12,1.79,.86,2.4,.88,4.73-.07,7.1-.16,.41-.26,1.01-.08,1.36,1.46,2.91,3.68,4.97,7.03,5.99"/><path class="cls-1" d="M50.56,25.87c0,2.05-.04,3.83,.03,5.6,.02,.47,.3,1.01,.63,1.36,1.71,1.85,2.18,3.97,1.21,6.26-.98,2.31-2.88,3.42-5.38,3.44-3.88,.02-7.76,.01-11.64,.01-.59,0-1.18,0-2,0,0,1.72-.05,3.37,.04,5.01,.01,.28,.62,.75,.95,.75,4.79,0,9.61,.19,14.37-.19,3.8-.3,6.67-2.58,8.52-5.95,.28-.51,.26-1.35,.07-1.93-.76-2.29-.75-4.53,.04-6.81,.18-.51,.32-1.22,.11-1.65-1.43-2.86-3.67-4.83-6.96-5.91"/><path class="cls-1" d="M73.58,36.88c0-4.15-3.21-7.43-7.32-7.47-4.16-.03-7.56,3.3-7.58,7.43-.01,4.12,3.39,7.49,7.54,7.47,4.11-.02,7.35-3.3,7.35-7.43"/><path class="cls-1" d="M0,36.94c.02,4.13,3.27,7.37,7.4,7.38,4.14,0,7.54-3.42,7.49-7.52-.06-4.08-3.4-7.37-7.47-7.38C3.23,29.41-.02,32.7,0,36.94"/><path class="cls-2" d="M42.46,40.1h5.54c0-5.35,.18-10.56-.07-15.76-.14-2.77-1.86-5.01-4-6.79-1.37-1.14-2.65-1.86-4.76-1.17-1.73,.56-3.86-.11-5.81-.18-.69-.03-1.5-.12-2.06,.18-2.62,1.39-4.41,3.52-5.48,6.75,2.78-.46,5.45,.89,7.88-1.35,1.57-1.45,3.67-1.44,5.61-.43,1.97,1.03,3.1,2.69,3.13,4.92,.06,3.99,.02,7.98,.02,11.97v1.87"/><path class="cls-2" d="M47.78,50.67c-2.11,0-3.94-.05-5.77,.03-.46,.02-.96,.4-1.34,.72-1.85,1.56-3.86,2.11-6.13,1.07-2.3-1.05-3.41-2.88-3.42-5.38,0-3.18,.01-6.37,0-9.55-.01-2.05-1.17-3.31-2.95-3.29-1.72,.03-2.89,1.26-2.86,3.21,.05,3.99,0,7.98,.34,11.95,.23,2.71,1.85,4.91,3.92,6.68,1.41,1.2,2.73,1.93,4.9,1.24,1.74-.55,3.86,.12,5.81,.2,.64,.03,1.4,.14,1.92-.14,2.68-1.41,4.49-3.59,5.58-6.75"/><path class="cls-2" d="M44.23,66.32c.05-4.12-3.19-7.44-7.3-7.48-4.23-.05-7.56,3.17-7.6,7.36-.04,4.14,3.32,7.53,7.47,7.53s7.38-3.3,7.42-7.4"/><path class="cls-2" d="M36.71,14.89c4.23,.02,7.53-3.23,7.52-7.42C44.23,3.38,40.95,.05,36.87,0c-4.12-.05-7.54,3.35-7.54,7.47,0,4.11,3.28,7.4,7.38,7.42"/></g></g></svg>