<?xml version="1.0" encoding="UTF-8"?><svg id="Layer_2" xmlns="http://www.w3.org/2000/svg" viewBox="0 0 82.69 67.11"><defs><style>.cls-1{fill:#fff;}.cls-2{fill:#96959a;}.cls-3{fill:#6dcff6;}</style></defs><g id="Layer_1-2"><g><path class="cls-2" d="M54.18,35.75c-.43-.31-.06-.84-.31-1.2,.04-.01,.08-.03,.12-.04,.06,.4,.12,.81,.19,1.24"/><path class="cls-1" d="M20.81,26.61c-.14,11.2,8.95,20.74,20.65,20.68,11.53-.06,20.03-9.19,20.5-19.62,.55-12.33-9.31-21.5-20.3-21.64-11.64-.14-20.98,9.41-20.85,20.57m23.2,31h2.58v9.5h-10.46v-9.45h2.61c0-1.43,.01-2.8-.02-4.16,0-.13-.33-.35-.52-.37-5.13-.59-9.7-2.54-13.67-5.81-5.28-4.35-8.49-9.93-9.5-16.72-.92-6.15,.16-11.94,3.31-17.3,3.62-6.17,8.89-10.26,15.8-12.27,3.3-.96,6.66-1.23,10.03-.88,5.64,.59,10.65,2.76,14.89,6.57,4.82,4.33,7.74,9.68,8.67,16.12,.98,6.77-.43,13.02-4.22,18.67-3.99,5.95-9.57,9.66-16.57,11.23-.77,.17-1.57,.22-2.35,.39-.22,.05-.55,.33-.55,.51-.05,1.29-.03,2.58-.03,3.98"/><path class="cls-1" d="M78.57,60.39h-5.45c-.24-2.21-.49-4.39-.73-6.57-.18-1.7-.37-3.39-.54-5.09-.06-.6-.22-1.09-.83-1.4-1.7-.85-2.21-2.21-2.06-4.1,.18-2.22,.06-4.47,.04-6.71,0-.6,.06-.95,.81-1.02,.95-.09,1.88-.38,2.82-.59,.54-.12,.91-.02,1.22,.51,.59,1.01,1.28,1.97,2,3.06,.72-1.1,1.41-2.11,2.05-3.15,.26-.43,.56-.54,1.02-.44,1.07,.23,2.15,.41,3.21,.68,.22,.06,.53,.4,.53,.62,.03,3.05,.03,6.1,0,9.15,0,.25-.22,.55-.42,.73-.51,.46-1.03,.92-1.62,1.27-.56,.35-.75,.84-.82,1.42-.34,3.28-.67,6.56-1.02,9.84-.06,.55-.15,1.09-.24,1.76"/><path class="cls-1" d="M6.92,38.51c.73-1.12,1.41-2.09,2-3.1,.28-.47,.61-.58,1.08-.48,1.08,.21,2.16,.41,3.22,.67,.21,.05,.49,.37,.5,.57,.03,3.09,.03,6.17,0,9.26,0,.22-.21,.49-.4,.65-.54,.47-1.08,.95-1.68,1.32-.51,.32-.69,.77-.74,1.29-.35,3.28-.69,6.56-1.03,9.84-.06,.6-.15,1.19-.24,1.85H4.18c-.24-2.19-.49-4.34-.72-6.49-.18-1.7-.35-3.39-.54-5.09-.07-.61-.19-1.16-.84-1.48C.36,46.5-.13,45.12,.03,43.23c.18-2.25,.05-4.52,.03-6.79,0-.55,.1-.85,.74-.93,.95-.12,1.89-.36,2.83-.57,.6-.14,1.01,0,1.35,.58,.57,.99,1.24,1.92,1.95,2.98"/><path class="cls-1" d="M79.97,28.76c0,2.24-1.91,4.13-4.16,4.12-2.21,0-4.08-1.89-4.08-4.11,0-2.25,1.87-4.11,4.16-4.13,2.17-.02,4.08,1.91,4.08,4.12"/><path class="cls-1" d="M11.03,28.77c0,2.24-1.92,4.12-4.17,4.11-2.2-.01-4.08-1.91-4.07-4.13,0-2.25,1.89-4.1,4.18-4.11,2.16,0,4.07,1.93,4.06,4.13"/><path class="cls-1" d="M18.92,49.74c1.88,1.38,3.76,2.89,5.78,4.19,1.06,.68,1.66,1.25,1.29,2.63-.32,1.2-.29,2.5-.43,3.82h-5.49c-.39-3.61-.78-7.2-1.16-10.64"/><path class="cls-1" d="M63.83,49.85c-.36,3.32-.75,6.87-1.15,10.52h-5.47c-.19-1.66-.38-3.32-.54-4.98-.02-.23,.07-.6,.23-.72,2.33-1.65,4.67-3.26,6.93-4.82"/><path class="cls-3" d="M41.38,39.02c1.16-1.77,2.24-3.41,3.32-5.06,.06-.09,.1-.19,.16-.28,.91-1.39,.55-1.21,2.04-.92,2.01,.39,4.02,.76,6.02,1.19,.22,.05,.5,.41,.52,.64,.05,1.16,.06,2.32,0,3.47-.02,.33-.25,.72-.5,.96-2.9,2.68-6.3,4.24-10.26,4.53-4.92,.36-9.18-1.2-12.81-4.51-.3-.27-.51-.77-.54-1.19-.07-1.07,0-2.15-.03-3.22,0-.43,.13-.63,.58-.72,2.15-.41,4.28-.85,6.42-1.29,.55-.11,.94-.05,1.29,.52,1.19,1.94,2.46,3.83,3.8,5.88"/><path class="cls-3" d="M41.21,29.13c-4.17-.19-7.3-3.55-7.1-7.61,.21-4,3.65-7.08,7.68-6.87,3.92,.2,7.01,3.6,6.85,7.55-.15,3.93-3.57,7.11-7.44,6.94"/></g></g></svg>